<svg width="1440" height="902" viewBox="0 0 1440 902" fill="none" xmlns="http://www.w3.org/2000/svg">
    <defs>
        <linearGradient id="paint0_linear_1362_8002" x1="726.992" y1="273" x2="726.992" y2="-178" gradientUnits="userSpaceOnUse">
            <stop stop-color="white"/>
            <stop offset="1" stop-color="#5CCAED"/>
        </linearGradient>
        <clipPath id="clip0_1362_8002">
            <rect width="1440" height="902" fill="white"/>
        </clipPath>
        <clipPath id="clip1_1362_8002">
            <rect width="1454" height="451" fill="white" transform="translate(0 -178)"/>
        </clipPath>
        <clipPath id="clip2_1362_8002">
            <rect width="59" height="59" fill="white" transform="translate(959 16)"/>
        </clipPath>
        <clipPath id="clip3_1362_8002">
            <rect width="23" height="23" fill="white" transform="matrix(-1 0 0 1 1008 6)"/>
        </clipPath>
        <clipPath id="clip4_1362_8002">
            <rect width="23" height="23" fill="white" transform="translate(934 24.5176) rotate(-21.7354)"/>
        </clipPath>
        <clipPath id="clip5_1362_8002">
            <rect width="1448" height="543" fill="white" transform="translate(-8 195)"/>
        </clipPath>
        <clipPath id="clip6_1362_8002">
            <rect width="1440" height="356" fill="white" transform="translate(0 588)"/>
        </clipPath>
    </defs>
<g clip-path="url(#clip0_1362_8002)">
<rect width="1440" height="902" fill="white"/>
<g clip-path="url(#clip1_1362_8002)">
<path d="M1454 -178H0V273H1454V-178Z" fill="url(#paint0_linear_1362_8002)"/>
<path opacity="0.21" d="M1375.87 20.238C1375.9 -18.4692 1366.72 -56.6284 1349.09 -91.0893C1331.46 -125.55 1305.89 -155.325 1274.48 -177.954H988.337C957.108 -155.406 931.65 -125.798 914.04 -91.5448C896.43 -57.2916 887.166 -19.3626 887.002 19.1502C886.839 57.663 895.781 95.6694 913.1 130.071C930.418 164.472 955.624 194.295 986.66 217.107H1276.29C1307.19 194.416 1332.3 164.767 1349.6 130.565C1366.9 96.3616 1375.9 58.5656 1375.87 20.238Z" fill="#F4F7DC"/>
<path opacity="0.36" d="M1131.47 184.763C1222.38 184.763 1296.07 111.082 1296.07 20.1921C1296.07 -70.6977 1222.38 -144.378 1131.47 -144.378C1040.56 -144.378 966.861 -70.6977 966.861 20.1921C966.861 111.082 1040.56 184.763 1131.47 184.763Z" fill="#F8F4B1"/>
<path d="M1131.47 79.7143C1164.35 79.7143 1191 53.0653 1191 20.1921C1191 -12.6811 1164.35 -39.3301 1131.47 -39.3301C1098.59 -39.3301 1071.93 -12.6811 1071.93 20.1921C1071.93 53.0653 1098.59 79.7143 1131.47 79.7143Z" fill="#F6F7D5"/>
<path d="M1531 -59.1921C1522.34 -64.6975 1512.29 -67.6154 1502.02 -67.6033C1501.76 -67.6033 1501.5 -67.6033 1501.24 -67.6033C1500.17 -70.8544 1498.42 -73.8377 1496.1 -76.3503C1493.78 -78.8628 1490.95 -80.8455 1487.79 -82.1632C1484.64 -83.4809 1481.24 -84.1027 1477.82 -83.9862C1474.41 -83.8697 1471.05 -83.0177 1468 -81.4883C1464.94 -79.9588 1462.25 -77.7878 1460.1 -75.1231C1457.96 -72.4583 1456.42 -69.3626 1455.58 -66.0466C1454.74 -62.7306 1454.62 -59.2723 1455.24 -55.9073C1455.85 -52.5423 1457.18 -49.3496 1459.14 -46.5467C1456.01 -42.5021 1453.47 -38.0315 1451.6 -33.2698C1441.07 -33.2337 1430.99 -29.0213 1423.56 -21.5562C1416.13 -14.0911 1411.96 -3.98236 1411.97 6.55399V6.76928C1400.31 1.62749 1387.1 1.29482 1375.2 5.84348C1373.12 0.49424 1369.25 -3.96067 1364.24 -6.74974C1359.23 -9.53881 1353.4 -10.4864 1347.77 -9.42836C1342.13 -8.37034 1337.04 -5.37335 1333.38 -0.956422C1329.73 3.46051 1327.72 9.01921 1327.73 14.757C1327.73 15.4747 1327.77 16.1923 1327.83 16.8741C1321.4 14.806 1314.53 14.595 1307.99 16.2655C1301.45 17.936 1295.51 21.42 1290.86 26.317C1286.21 31.2139 1283.04 37.3249 1281.71 43.9469C1280.37 50.5689 1280.93 57.4331 1283.33 63.7499C1285.72 70.0667 1289.84 75.5796 1295.23 79.6545C1300.61 83.7293 1307.03 86.2007 1313.76 86.7842C1320.48 87.3678 1327.23 86.0399 1333.24 82.9532C1339.24 79.8666 1344.25 75.1466 1347.69 69.3361C1350.56 76.3648 1355.05 82.6203 1360.77 87.5989C1366.5 92.5776 1373.32 96.1402 1380.68 98H1404.17C1413.55 95.6468 1422.01 90.5377 1428.46 83.3307C1430.28 88.481 1432.68 93.4034 1435.63 98H1531V-59.1921Z" fill="white"/>
<path d="M1168.51 92.1057C1165.62 89.2193 1162.18 86.9293 1158.4 85.3668C1154.62 83.8043 1150.57 83 1146.48 83C1142.38 83 1138.33 83.8043 1134.55 85.3668C1130.77 86.9293 1127.33 89.2193 1124.44 92.1057L977 239H1316L1168.51 92.1057Z" fill="#54C5D2"/>
<path d="M977 239H1095.4C1100.85 229.768 1103.62 219.21 1103.39 208.503C1103.06 198.765 1100.41 187.851 1106.41 180.156C1110.37 175.061 1117.78 171.973 1118.48 165.572C1119.39 156.986 1107.14 151.428 1107.62 142.807C1108.03 135.681 1116.52 132.332 1123.56 130.931C1130.59 129.529 1139.06 127.237 1140.74 120.243C1142.82 111.443 1131.86 105.172 1129.2 96.4912C1128.38 93.7135 1128.42 90.7538 1129.32 88C1127.65 89.1175 1126.1 90.39 1124.68 91.8002L977 239Z" fill="#BAE5F4"/>
<path d="M680.164 116.304C675.293 111.445 668.693 108.716 661.811 108.716C654.93 108.716 648.329 111.445 643.458 116.304L520.465 239.348H803.234L680.164 116.304Z" fill="#54C5D2"/>
<path d="M680.164 116.304C677.348 113.494 673.922 111.369 670.153 110.094C666.384 108.819 662.371 108.429 658.427 108.952C659.381 109.644 660.411 110.367 661.504 111.213C668.534 116.458 673.672 124.271 673.811 133.253C673.949 139.313 672.118 145.219 671.272 151.218C670.426 157.216 670.765 163.845 674.595 168.536C680.041 175.227 690.21 175.457 697.332 180.317C704.87 185.439 708.024 195.129 708.224 204.234C708.424 213.339 706.193 222.291 705.286 231.35C705.011 233.986 704.898 236.636 704.947 239.286H803.234L680.164 116.304Z" fill="#BAE5F4"/>
<path d="M493.681 250.206C482.159 240.701 452.837 239.44 438.3 235.872C418.608 231.073 398.917 225.413 379.057 221.429C344.858 213.109 309.276 204.08 282.616 181.117C260.048 161.692 246.125 134.13 225.803 112.382C205.481 90.6344 173.021 74.5926 146.223 87.6044C127.455 96.725 117.378 117.104 102.625 131.854C91.6266 142.607 78.0618 150.37 63.2184 154.408C48.375 158.446 32.7457 158.624 17.8142 154.925C11.8607 153.387 5.92252 151.202 -0.015625 149.234V272.939H496.143C501.127 264.787 501.712 256.835 493.681 250.206Z" fill="#1F8F90"/>
<path d="M1181.89 273H1453.97V125.717C1447.83 123.257 1441.51 121.312 1435.05 119.903C1403.48 113.074 1370.04 118.55 1340.45 131.485C1310.87 144.42 1284.15 164.568 1252.41 169.29C1228.98 172.781 1204.98 167.413 1181.46 170.228C1145.66 174.535 1115.19 197.005 1083.97 215.047C1060.07 226.997 1036.5 239.655 1008.9 239.302C997.732 239.179 986.317 234.441 988.471 249.914C989.409 256.635 995.317 265.171 1001.22 272.985H1181.86L1181.89 273Z" fill="#1F8F90"/>
<g clip-path="url(#clip2_1362_8002)">
<path d="M976.682 25.2807L973.924 22.8643C972.981 22.0335 971.826 21.4781 970.587 21.2589C969.348 21.0398 968.073 21.1654 966.901 21.6219C967.242 22.6113 967.779 23.5221 968.48 24.2998C969.182 25.0775 970.033 25.7061 970.983 26.148C971.934 26.59 972.964 26.8363 974.012 26.8721C975.06 26.908 976.104 26.7327 977.083 26.3567C978.061 25.9807 978.954 25.4118 979.707 24.6839C980.46 23.956 981.059 23.0841 981.467 22.1202C981.874 21.1564 982.083 20.1204 982.081 19.0742C982.078 18.028 981.864 16.9931 981.452 16.0312V16.0312C980.279 16.4827 979.253 17.246 978.485 18.2381C977.717 19.2303 977.235 20.4134 977.093 21.6592L976.682 25.2807Z" fill="#54B9D9"/>
<path d="M1012.56 49.8978L1011.85 47.7485C1011.6 47.0146 1011.16 46.362 1010.57 45.8616C1009.98 45.3611 1009.26 45.0319 1008.49 44.9097V44.9097C1008.29 46.1675 1008.6 47.454 1009.35 48.4862C1010.09 49.5183 1011.22 50.2115 1012.48 50.4133C1013.74 50.6152 1015.03 50.309 1016.07 49.5623C1017.1 48.8156 1017.8 47.6894 1018 46.4316V46.4316C1017.23 46.3075 1016.45 46.396 1015.73 46.6874C1015.01 46.9789 1014.38 47.4619 1013.92 48.0839L1012.56 49.8978Z" fill="#54B9D9"/>
<path d="M962.624 74.59L961.864 72.9998C961.603 72.4591 961.199 71.9999 960.695 71.6715C960.192 71.3431 959.608 71.158 959.006 71.1362V71.1362C958.97 72.1247 959.329 73.0871 960.004 73.8117C960.679 74.5363 961.614 74.9637 962.605 75C963.596 75.0362 964.561 74.6783 965.287 74.005C966.013 73.3316 966.442 72.398 966.478 71.4096V71.4096C965.875 71.3879 965.277 71.5316 964.75 71.8251C964.223 72.1186 963.787 72.5507 963.489 73.0743L962.624 74.59Z" fill="#54B9D9"/>
</g>
<g opacity="0.5" clip-path="url(#clip3_1362_8002)">
<path d="M1001.11 9.61792L1002.18 8.67593C1002.55 8.35208 1003 8.13556 1003.48 8.05012C1003.97 7.96469 1004.46 8.01364 1004.92 8.19161C1004.79 8.57733 1004.58 8.93238 1004.3 9.23554C1004.03 9.53869 1003.7 9.78375 1003.33 9.95604C1002.96 10.1283 1002.56 10.2243 1002.15 10.2383C1001.74 10.2523 1001.33 10.184 1000.95 10.0374C1000.57 9.89082 1000.22 9.66902 999.928 9.38526C999.634 9.10151 999.401 8.76161 999.242 8.38587C999.083 8.01014 999.001 7.60628 999.002 7.19845C999.003 6.79061 999.087 6.38716 999.248 6.01221V6.01221C999.705 6.18822 1000.1 6.48576 1000.4 6.87252C1000.7 7.25929 1000.89 7.72052 1000.95 8.20615L1001.11 9.61792Z" fill="#54B9D9"/>
<path d="M987.119 19.2145L987.398 18.3767C987.494 18.0906 987.667 17.8362 987.897 17.6411C988.128 17.446 988.408 17.3177 988.706 17.27V17.27C988.785 17.7604 988.666 18.2619 988.374 18.6642C988.082 19.0666 987.642 19.3368 987.15 19.4155C986.659 19.4942 986.156 19.3749 985.753 19.0838C985.35 18.7927 985.079 18.3536 985 17.8633V17.8633C985.299 17.8149 985.605 17.8494 985.885 17.963C986.166 18.0767 986.409 18.265 986.59 18.5074L987.119 19.2145Z" fill="#54B9D9"/>
<path d="M1006.59 28.84L1006.88 28.2201C1006.99 28.0094 1007.14 27.8303 1007.34 27.7023C1007.54 27.5743 1007.76 27.5022 1008 27.4937V27.4937C1008.01 27.879 1007.87 28.2542 1007.61 28.5366C1007.35 28.8191 1006.98 28.9857 1006.59 28.9999C1006.21 29.014 1005.83 28.8745 1005.55 28.612C1005.27 28.3495 1005.1 27.9855 1005.08 27.6002V27.6002C1005.32 27.5917 1005.55 27.6478 1005.76 27.7622C1005.96 27.8766 1006.13 28.0451 1006.25 28.2492L1006.59 28.84Z" fill="#54B9D9"/>
</g>
<g opacity="0.25" clip-path="url(#clip4_1362_8002)">
<path d="M941.743 25.3255L940.395 24.8486C939.934 24.684 939.436 24.6495 938.955 24.749C938.475 24.8485 938.031 25.0781 937.673 25.4126C937.939 25.7218 938.265 25.974 938.631 26.1544C938.998 26.3347 939.397 26.4394 939.805 26.4623C940.213 26.4851 940.621 26.4256 941.006 26.2873C941.39 26.149 941.743 25.9347 942.043 25.6573C942.343 25.3799 942.585 25.045 942.752 24.6727C942.92 24.3004 943.011 23.8982 943.019 23.4904C943.028 23.0825 942.954 22.6772 942.802 22.2987C942.65 21.9202 942.423 21.5763 942.135 21.2876V21.2876C941.775 21.6203 941.514 22.0449 941.379 22.515C941.244 22.9852 941.241 23.4831 941.369 23.9548L941.743 25.3255Z" fill="#54B9D9"/>
<path d="M958.29 29.0597L957.72 28.3848C957.525 28.1546 957.271 27.9823 956.984 27.8864C956.698 27.7906 956.39 27.775 956.095 27.8413V27.8413C956.204 28.326 956.5 28.7476 956.92 29.0133C957.34 29.279 957.849 29.3671 958.335 29.2581C958.821 29.1492 959.243 28.8522 959.51 28.4324C959.777 28.0127 959.866 27.5046 959.758 27.0199V27.0199C959.462 27.0856 959.191 27.2311 958.972 27.4404C958.754 27.6498 958.597 27.915 958.52 28.207L958.29 29.0597Z" fill="#54B9D9"/>
<path d="M943.77 45.211L943.266 44.7448C943.093 44.5867 942.88 44.4788 942.651 44.4326C942.421 44.3864 942.183 44.4036 941.962 44.4825V44.4825C942.091 44.8457 942.36 45.1424 942.709 45.3074C943.058 45.4724 943.459 45.4921 943.823 45.3621C944.187 45.2322 944.484 44.9634 944.65 44.6147C944.816 44.266 944.836 43.8661 944.707 43.5029V43.5029C944.485 43.5821 944.29 43.7204 944.141 43.9028C943.993 44.0852 943.897 44.3046 943.865 44.5372L943.77 45.211Z" fill="#54B9D9"/>
</g>
<path d="M386.292 106.206C381.04 100.952 373.918 98 366.492 98C359.066 98 351.943 100.952 346.692 106.206L214 239H519L386.292 106.206Z" fill="#54C5D2"/>
<path d="M386.345 106.211C382.833 102.694 378.449 100.176 373.644 98.9155C368.838 97.6548 363.784 97.6969 359 99.0373C362.359 103.48 363.977 108.999 363.549 114.554C362.944 120.682 360.011 127.06 362.455 132.707C364.9 138.355 371.396 140.536 377.014 142.858C382.632 145.18 388.764 149.493 388.416 155.555C387.911 164.287 374.23 170.059 377.57 178.137C380.395 184.912 392.145 183.179 395.46 189.706C398.227 195.088 392.907 201.175 387.521 203.945C382.135 206.715 375.573 208.921 373.335 214.544C371.28 219.685 373.832 225.507 373.178 230.997C372.807 233.929 371.628 236.7 369.772 239H519L386.345 106.211Z" fill="#BAE5F4"/>
</g>
<g clip-path="url(#clip5_1362_8002)">
<path d="M912.091 225.391C756.713 234.096 600.401 242.785 445.835 224.67C364.914 215.184 284.682 198.372 203.256 195.429C155.634 193.697 107.416 196.962 61.1576 208.931C38.231 214.752 15.9802 222.971 -5.22726 233.452L-7.69336 234.647V738H1439.98V195.782L912.091 225.391Z" fill="#2FB34E"/>
<path opacity="0.5" d="M723.613 305.972H514.379C513.453 305.972 512.565 305.604 511.91 304.949C511.255 304.294 510.887 303.405 510.887 302.478C510.887 301.551 511.255 300.663 511.91 300.007C512.565 299.352 513.453 298.984 514.379 298.984H723.613C724.07 298.984 724.524 299.074 724.947 299.25C725.37 299.426 725.754 299.684 726.077 300.008C726.4 300.333 726.655 300.718 726.829 301.142C727.003 301.566 727.092 302.02 727.09 302.478V302.478C727.092 302.936 727.003 303.39 726.829 303.814C726.655 304.238 726.4 304.623 726.077 304.948C725.754 305.273 725.37 305.53 724.947 305.706C724.524 305.882 724.07 305.972 723.613 305.972V305.972Z" fill="#10A279"/>
<path d="M808.371 412H677.256C674.946 412 673.074 413.873 673.074 416.184C673.074 418.495 674.946 420.368 677.256 420.368H808.371C810.681 420.368 812.553 418.495 812.553 416.184C812.553 413.873 810.681 412 808.371 412Z" fill="#10A279" fill-opacity="0.5"/>
<path d="M677.96 465.026H644.477C643.553 465.022 642.669 464.652 642.017 463.998C641.366 463.343 641 462.456 641 461.532V461.532C641 460.609 641.366 459.725 642.018 459.072C642.67 458.42 643.555 458.053 644.477 458.053H677.96C678.884 458.053 679.77 458.419 680.424 459.071C681.079 459.723 681.449 460.608 681.453 461.532C681.453 462.459 681.085 463.348 680.43 464.003C679.775 464.658 678.887 465.026 677.96 465.026Z" fill="#10A279" fill-opacity="0.5"/>
<path opacity="0.5" d="M1189.49 444.133H1100.22C1098.92 444.133 1097.68 443.617 1096.76 442.701C1095.85 441.784 1095.33 440.54 1095.33 439.244C1095.33 438.602 1095.46 437.967 1095.7 437.375C1095.95 436.783 1096.31 436.245 1096.76 435.792C1097.22 435.339 1097.76 434.981 1098.35 434.737C1098.94 434.493 1099.58 434.368 1100.22 434.37H1189.49C1190.13 434.368 1190.76 434.493 1191.36 434.737C1191.95 434.981 1192.49 435.339 1192.94 435.792C1193.39 436.245 1193.75 436.783 1194 437.375C1194.25 437.967 1194.37 438.602 1194.37 439.244V439.244C1194.37 440.54 1193.86 441.784 1192.94 442.701C1192.03 443.617 1190.78 444.133 1189.49 444.133Z" fill="#10A279"/>
<path d="M1439.86 444.653C1426.56 446.435 1414.18 452.447 1404.56 461.803C1403.37 459.792 1401.68 458.131 1399.64 456.987C1397.61 455.842 1395.31 455.256 1392.98 455.287C1390.65 455.318 1388.36 455.966 1386.36 457.164C1384.36 458.362 1382.71 460.068 1381.58 462.109C1376.41 459.139 1370.67 457.327 1364.73 456.799C1358.8 456.27 1352.82 457.039 1347.21 459.05C1341.6 461.061 1336.5 464.268 1332.25 468.448C1328 472.628 1324.71 477.681 1322.61 483.258C1321.97 483.258 1321.32 483.166 1320.65 483.166C1315.6 483.167 1310.63 484.508 1306.27 487.053C1301.9 489.599 1298.29 493.257 1295.8 497.655C1293.31 502.053 1292.03 507.034 1292.09 512.089C1292.15 517.144 1293.54 522.093 1296.14 526.43H1439.92L1439.86 444.653Z" fill="#10A279"/>
</g>
<path d="M1247.61 340.608H1289.51C1290.67 340.609 1291.83 340.379 1292.91 339.933C1293.99 339.486 1294.97 338.832 1295.8 338.006C1296.62 337.18 1297.28 336.199 1297.72 335.12C1298.17 334.041 1298.4 332.885 1298.4 331.717V331.717C1298.4 329.359 1297.46 327.097 1295.79 325.43C1294.13 323.763 1291.86 322.826 1289.51 322.826H1247.61C1245.25 322.826 1242.99 323.763 1241.32 325.43C1239.65 327.097 1238.71 329.359 1238.71 331.717V331.717C1238.71 332.885 1238.94 334.041 1239.39 335.12C1239.84 336.199 1240.49 337.18 1241.32 338.006C1242.14 338.832 1243.12 339.486 1244.2 339.933C1245.28 340.379 1246.44 340.609 1247.61 340.608V340.608Z" fill="#207E6D"/>
<path d="M1387.02 298.691C1385.82 297.818 1384.37 297.346 1382.89 297.342H1349.59C1347.72 297.342 1345.92 298.086 1344.6 299.411C1343.27 300.735 1342.53 302.532 1342.53 304.405V304.405C1342.53 306.278 1343.27 308.074 1344.6 309.398C1345.92 310.723 1347.72 311.467 1349.59 311.467H1382.89C1384.37 311.466 1385.82 310.997 1387.02 310.126V298.691Z" fill="#207E6D"/>
<path d="M1206.79 357.954H1229.83C1230.47 357.954 1231.11 357.828 1231.7 357.582C1232.3 357.336 1232.84 356.976 1233.29 356.522C1233.74 356.068 1234.1 355.529 1234.35 354.935C1234.6 354.342 1234.72 353.706 1234.72 353.063V353.063C1234.72 352.421 1234.6 351.785 1234.35 351.192C1234.1 350.598 1233.74 350.059 1233.29 349.605C1232.84 349.151 1232.3 348.79 1231.7 348.545C1231.11 348.299 1230.47 348.172 1229.83 348.172H1206.79C1205.49 348.174 1204.25 348.69 1203.33 349.607C1202.41 350.524 1201.9 351.767 1201.9 353.063V353.063C1201.9 354.36 1202.41 355.603 1203.33 356.52C1204.25 357.436 1205.49 357.952 1206.79 357.954Z" fill="#207E6D"/>
<path d="M1278.76 296.207H1290.86C1291.54 296.207 1292.2 295.937 1292.68 295.455C1293.16 294.974 1293.43 294.321 1293.43 293.64V293.64C1293.43 292.959 1293.16 292.306 1292.68 291.824C1292.2 291.343 1291.54 291.072 1290.86 291.072H1278.76C1278.08 291.072 1277.42 291.343 1276.94 291.824C1276.46 292.306 1276.19 292.959 1276.19 293.64V293.64C1276.19 294.321 1276.46 294.974 1276.94 295.455C1277.42 295.937 1278.08 296.207 1278.76 296.207V296.207Z" fill="#207E6D"/>
<path d="M1312.91 369.74H1370.89C1377.68 369.74 1383.18 364.235 1383.18 357.444C1383.18 350.653 1377.68 345.148 1370.89 345.148H1312.91C1306.12 345.148 1300.61 350.653 1300.61 357.444C1300.61 364.235 1306.12 369.74 1312.91 369.74Z" fill="#207E6D"/>
<path d="M1254.01 218.423L1270.69 324.54C1270.87 325.662 1270.8 326.809 1270.49 327.902C1270.18 328.995 1269.63 330.008 1268.9 330.871C1268.16 331.734 1267.24 332.427 1266.21 332.901C1265.18 333.376 1264.05 333.622 1262.92 333.621H1238.81C1237.67 333.622 1236.55 333.376 1235.52 332.901C1234.48 332.427 1233.57 331.734 1232.83 330.871C1232.09 330.008 1231.55 328.995 1231.24 327.902C1230.93 326.809 1230.86 325.662 1231.04 324.54L1247.71 218.423C1247.83 217.676 1248.22 216.996 1248.8 216.506C1249.37 216.016 1250.1 215.747 1250.86 215.747C1251.62 215.747 1252.35 216.016 1252.93 216.506C1253.51 216.996 1253.89 217.676 1254.01 218.423V218.423Z" fill="#10A279"/>
<path d="M1354.72 214.4L1367.98 298.706C1368.12 299.597 1368.06 300.508 1367.81 301.376C1367.57 302.244 1367.14 303.048 1366.55 303.734C1365.97 304.419 1365.24 304.97 1364.42 305.347C1363.6 305.725 1362.71 305.92 1361.81 305.92H1342.64C1341.74 305.92 1340.85 305.725 1340.03 305.347C1339.21 304.97 1338.48 304.419 1337.9 303.734C1337.31 303.048 1336.88 302.244 1336.63 301.376C1336.39 300.508 1336.33 299.597 1336.47 298.706L1349.69 214.4C1349.77 213.792 1350.07 213.234 1350.54 212.83C1351 212.426 1351.59 212.203 1352.21 212.203C1352.82 212.203 1353.41 212.426 1353.88 212.83C1354.34 213.234 1354.64 213.792 1354.72 214.4Z" fill="#10A279"/>
<path d="M1210.33 290.752L1219.47 349.117C1219.57 349.734 1219.53 350.365 1219.36 350.967C1219.19 351.568 1218.89 352.125 1218.48 352.6C1218.08 353.075 1217.57 353.456 1217.01 353.718C1216.44 353.979 1215.82 354.115 1215.2 354.115H1201.93C1201.31 354.115 1200.69 353.979 1200.12 353.718C1199.56 353.456 1199.05 353.075 1198.65 352.6C1198.24 352.125 1197.94 351.568 1197.77 350.967C1197.6 350.365 1197.56 349.734 1197.66 349.117L1206.8 290.752C1206.8 290.521 1206.85 290.292 1206.94 290.078C1207.02 289.864 1207.15 289.669 1207.32 289.505C1207.48 289.342 1207.68 289.212 1207.89 289.123C1208.1 289.034 1208.33 288.989 1208.56 288.989C1208.8 288.989 1209.03 289.034 1209.24 289.123C1209.45 289.212 1209.65 289.342 1209.81 289.505C1209.98 289.669 1210.11 289.864 1210.19 290.078C1210.28 290.292 1210.33 290.521 1210.33 290.752V290.752Z" fill="#10A279"/>
<path d="M1280.62 260.911L1285.44 291.567C1285.49 291.894 1285.46 292.228 1285.37 292.545C1285.28 292.862 1285.12 293.156 1284.9 293.405C1284.68 293.654 1284.41 293.853 1284.11 293.988C1283.81 294.124 1283.48 294.192 1283.15 294.188H1276.19C1275.86 294.192 1275.53 294.124 1275.23 293.988C1274.93 293.853 1274.66 293.654 1274.44 293.405C1274.23 293.156 1274.06 292.862 1273.97 292.545C1273.88 292.228 1273.86 291.894 1273.9 291.567L1278.72 260.911C1278.72 260.659 1278.82 260.418 1279 260.24C1279.17 260.062 1279.42 259.962 1279.67 259.962C1279.92 259.962 1280.16 260.062 1280.34 260.24C1280.52 260.418 1280.62 260.659 1280.62 260.911Z" fill="#10A279"/>
<path d="M1321.82 200.725L1344.89 347.517C1345.14 349.069 1345.04 350.656 1344.61 352.168C1344.19 353.68 1343.44 355.081 1342.42 356.276C1341.4 357.471 1340.13 358.43 1338.7 359.088C1337.27 359.746 1335.72 360.087 1334.15 360.088H1300.79C1299.22 360.087 1297.67 359.745 1296.24 359.088C1294.81 358.43 1293.54 357.471 1292.52 356.276C1291.5 355.082 1290.75 353.681 1290.32 352.169C1289.89 350.657 1289.8 349.07 1290.04 347.517L1313.12 200.725C1313.89 195.758 1321.05 195.758 1321.82 200.725Z" fill="#10A279"/>
<path d="M1231.04 324.54L1247.71 218.423C1247.79 217.821 1248.04 217.256 1248.44 216.8C1248.84 216.344 1249.37 216.018 1249.96 215.863L1243.86 333.621H1238.8C1237.66 333.621 1236.54 333.374 1235.51 332.899C1234.48 332.424 1233.56 331.731 1232.83 330.868C1232.09 330.005 1231.55 328.993 1231.24 327.9C1230.93 326.808 1230.86 325.662 1231.04 324.54V324.54Z" fill="#8BC194"/>
<path d="M1336.47 298.706L1349.69 214.4C1349.75 213.921 1349.96 213.471 1350.28 213.109C1350.59 212.746 1351.01 212.487 1351.48 212.366L1346.64 305.92H1342.61C1341.71 305.917 1340.83 305.719 1340.01 305.34C1339.19 304.961 1338.47 304.41 1337.88 303.725C1337.3 303.04 1336.87 302.237 1336.63 301.37C1336.38 300.504 1336.33 299.595 1336.47 298.706V298.706Z" fill="#8BC194"/>
<path d="M1197.69 349.087L1206.83 290.722C1206.87 290.391 1207.01 290.081 1207.23 289.83C1207.45 289.579 1207.74 289.399 1208.07 289.312L1204.72 354.069H1201.93C1201.31 354.064 1200.7 353.926 1200.14 353.663C1199.57 353.401 1199.07 353.02 1198.67 352.548C1198.27 352.075 1197.97 351.521 1197.8 350.924C1197.63 350.327 1197.6 349.7 1197.69 349.087V349.087Z" fill="#8BC194"/>
<path d="M1273.98 291.568L1278.8 260.911C1278.81 260.732 1278.89 260.563 1279 260.427C1279.12 260.291 1279.28 260.194 1279.45 260.149L1277.69 294.166H1276.23C1275.9 294.163 1275.58 294.092 1275.29 293.955C1274.99 293.819 1274.73 293.621 1274.52 293.375C1274.3 293.13 1274.15 292.841 1274.05 292.529C1273.96 292.218 1273.94 291.89 1273.98 291.568V291.568Z" fill="#8BC194"/>
<path d="M1290.04 347.517L1313.12 200.726C1313.23 199.893 1313.58 199.11 1314.14 198.479C1314.69 197.848 1315.42 197.397 1316.23 197.183L1307.85 360.088H1300.84C1299.27 360.095 1297.71 359.759 1296.27 359.105C1294.84 358.45 1293.57 357.492 1292.54 356.297C1291.51 355.102 1290.76 353.698 1290.32 352.182C1289.89 350.666 1289.8 349.074 1290.04 347.517V347.517Z" fill="#8BC194"/>
<path d="M354.914 348.838H317.882C315.799 348.838 313.801 347.992 312.327 346.487C310.854 344.982 310.026 342.94 310.026 340.811V340.811C310.026 338.683 310.854 336.641 312.327 335.136C313.801 333.631 315.799 332.785 317.882 332.785H354.914C356.997 332.785 358.996 333.631 360.469 335.136C361.942 336.641 362.77 338.683 362.77 340.811V340.811C362.77 342.94 361.942 344.982 360.469 346.487C358.996 347.992 356.997 348.838 354.914 348.838Z" fill="#207E6D"/>
<path d="M400.661 336.607H388.319C387.974 336.607 387.634 336.538 387.316 336.403C386.998 336.268 386.709 336.071 386.466 335.822C386.223 335.573 386.031 335.278 385.9 334.953C385.768 334.628 385.701 334.28 385.702 333.929V333.929C385.702 333.22 385.978 332.54 386.468 332.039C386.959 331.538 387.625 331.256 388.319 331.256H400.661C401.355 331.256 402.021 331.538 402.513 332.039C403.005 332.54 403.282 333.219 403.283 333.929V333.929C403.283 334.28 403.215 334.629 403.084 334.954C402.952 335.279 402.759 335.574 402.515 335.823C402.272 336.071 401.983 336.269 401.664 336.403C401.346 336.538 401.005 336.607 400.661 336.607V336.607Z" fill="#207E6D"/>
<path d="M430.61 384H408.061C406.794 384 405.579 383.517 404.683 382.657C403.787 381.796 403.283 380.63 403.283 379.414C403.283 378.197 403.787 377.031 404.683 376.17C405.579 375.31 406.794 374.827 408.061 374.827H430.61C431.877 374.827 433.092 375.31 433.989 376.17C434.885 377.031 435.388 378.197 435.388 379.414C435.388 380.63 434.885 381.796 433.989 382.657C433.092 383.517 431.877 384 430.61 384Z" fill="#207E6D"/>
<path d="M349.29 240.393L334.57 334.669C334.416 335.665 334.478 336.682 334.752 337.652C335.026 338.621 335.505 339.519 336.156 340.284C336.808 341.049 337.616 341.663 338.526 342.084C339.435 342.505 340.424 342.723 341.425 342.723H362.713C363.713 342.722 364.702 342.503 365.611 342.082C366.52 341.661 367.328 341.047 367.979 340.282C368.63 339.517 369.109 338.619 369.384 337.651C369.658 336.682 369.721 335.665 369.568 334.669L354.848 240.393C354.744 239.726 354.407 239.119 353.897 238.68C353.388 238.241 352.739 238 352.069 238C351.398 238 350.75 238.241 350.241 238.68C349.731 239.119 349.394 239.726 349.29 240.393V240.393Z" fill="#10A279"/>
<path d="M398.495 300.695L393.375 331.661C393.321 331.988 393.342 332.323 393.437 332.642C393.532 332.961 393.698 333.257 393.925 333.509C394.151 333.761 394.433 333.963 394.75 334.102C395.066 334.241 395.411 334.314 395.76 334.314H403.168C403.517 334.313 403.861 334.24 404.177 334.1C404.493 333.961 404.773 333.758 404.999 333.506C405.225 333.254 405.391 332.959 405.485 332.64C405.58 332.322 405.601 331.988 405.547 331.661L400.427 300.695C400.389 300.477 400.271 300.28 400.094 300.137C399.917 299.994 399.693 299.916 399.461 299.916C399.229 299.916 399.004 299.994 398.827 300.137C398.651 300.28 398.533 300.477 398.495 300.695Z" fill="#10A279"/>
<path d="M427.14 317.395L417.858 375.236C417.762 375.847 417.801 376.472 417.974 377.066C418.147 377.661 418.45 378.212 418.861 378.682C419.272 379.151 419.782 379.528 420.355 379.786C420.929 380.045 421.553 380.178 422.184 380.178H435.603C436.234 380.177 436.857 380.043 437.43 379.784C438.003 379.526 438.512 379.149 438.922 378.679C439.332 378.21 439.634 377.659 439.807 377.065C439.98 376.471 440.019 375.847 439.923 375.236L430.628 317.395C430.554 316.995 430.339 316.633 430.02 316.372C429.701 316.112 429.299 315.969 428.884 315.969C428.469 315.969 428.067 316.112 427.748 316.372C427.43 316.633 427.214 316.995 427.14 317.395V317.395Z" fill="#10A279"/>
<path d="M369.567 334.649L354.818 240.282C354.751 239.746 354.526 239.242 354.173 238.835C353.819 238.429 353.352 238.138 352.833 238L358.216 342.723H362.698C363.702 342.722 364.694 342.503 365.605 342.081C366.517 341.658 367.327 341.042 367.979 340.275C368.632 339.508 369.112 338.608 369.386 337.637C369.66 336.666 369.721 335.647 369.567 334.649V334.649Z" fill="#8BC194"/>
<path d="M405.545 331.658L400.187 300.662C400.162 300.486 400.079 300.321 399.95 300.188C399.82 300.055 399.65 299.96 399.461 299.916L401.421 334.314H403.049C403.414 334.314 403.775 334.241 404.107 334.102C404.438 333.963 404.733 333.76 404.97 333.508C405.207 333.256 405.382 332.96 405.481 332.64C405.58 332.321 405.602 331.986 405.545 331.658V331.658Z" fill="#8BC194"/>
<path d="M439.92 375.222L430.545 317.365C430.5 317.036 430.355 316.727 430.128 316.478C429.901 316.229 429.604 316.052 429.272 315.969L432.688 380.178H435.538C436.177 380.181 436.81 380.049 437.392 379.791C437.974 379.533 438.491 379.156 438.908 378.684C439.325 378.213 439.631 377.659 439.806 377.061C439.981 376.464 440.02 375.836 439.92 375.222V375.222Z" fill="#8BC194"/>
<g clip-path="url(#clip6_1362_8002)">
<path d="M1440 653.88C452.979 585.09 133.254 584.471 0 653.88V944H1440V653.88Z" fill="#6CBE45"/>
<path d="M670.203 838.549C677.12 838.549 683.755 835.806 688.646 830.924C693.538 826.041 696.286 819.419 696.286 812.514H644.119C644.123 819.418 646.873 826.037 651.763 830.919C656.654 835.801 663.286 838.545 670.203 838.549V838.549Z" fill="#2FB34E"/>
<path d="M560.018 765.977C565.182 765.977 570.135 763.929 573.786 760.285C577.438 756.64 579.489 751.696 579.489 746.542H540.547C540.547 749.094 541.051 751.621 542.029 753.979C543.008 756.337 544.442 758.48 546.25 760.285C548.058 762.089 550.204 763.521 552.567 764.498C554.929 765.474 557.461 765.977 560.018 765.977V765.977Z" fill="#2FB34E"/>
<path d="M445.506 804.255C452.419 804.255 459.049 801.516 463.939 796.64C468.83 791.764 471.582 785.15 471.59 778.25H419.423C419.431 785.15 422.183 791.764 427.073 796.64C431.964 801.516 438.594 804.255 445.506 804.255V804.255Z" fill="#2FB34E"/>
<path d="M770.194 857.848C775.323 857.848 780.242 855.815 783.871 852.196C787.499 848.577 789.539 843.669 789.543 838.549H750.86C750.86 843.667 752.897 848.576 756.523 852.195C760.148 855.814 765.066 857.848 770.194 857.848V857.848Z" fill="#2FB34E"/>
<path d="M983.981 848.206C989.111 848.202 994.03 846.165 997.658 842.544C1001.29 838.923 1003.33 834.013 1003.33 828.892H964.616C964.616 831.429 965.117 833.942 966.091 836.286C967.064 838.631 968.49 840.76 970.289 842.554C972.087 844.348 974.222 845.77 976.571 846.74C978.921 847.709 981.438 848.208 983.981 848.206V848.206Z" fill="#2FB34E"/>
<path d="M983.981 848.206C989.111 848.202 994.03 846.165 997.658 842.544C1001.29 838.923 1003.33 834.013 1003.33 828.892H964.616C964.616 831.429 965.117 833.942 966.091 836.286C967.064 838.631 968.49 840.76 970.289 842.554C972.087 844.348 974.222 845.77 976.571 846.74C978.921 847.709 981.438 848.208 983.981 848.206V848.206Z" fill="#2FB34E"/>
<path d="M988.14 725.677C993.269 725.677 998.189 723.644 1001.82 720.025C1005.45 716.406 1007.49 711.498 1007.49 706.378H968.806C968.806 708.912 969.306 711.422 970.278 713.763C971.249 716.105 972.674 718.232 974.469 720.024C976.264 721.816 978.396 723.238 980.741 724.208C983.087 725.178 985.601 725.677 988.14 725.677V725.677Z" fill="#2FB34E"/>
<path d="M544.492 844.83C548.222 844.83 551.799 843.351 554.436 840.719C557.073 838.086 558.555 834.516 558.555 830.793H530.399C530.399 832.639 530.764 834.467 531.473 836.172C532.181 837.877 533.22 839.425 534.529 840.729C535.838 842.033 537.392 843.066 539.102 843.77C540.811 844.474 542.643 844.834 544.492 844.83V844.83Z" fill="#2FB34E"/>
<path d="M791.463 807.145C795.192 807.145 798.769 805.666 801.407 803.034C804.044 800.401 805.525 796.831 805.525 793.108H777.4C777.4 796.831 778.882 800.401 781.519 803.034C784.156 805.666 787.733 807.145 791.463 807.145Z" fill="#2FB34E"/>
<path d="M634.124 731.501C636.952 731.501 639.665 730.379 641.665 728.383C643.665 726.387 644.789 723.679 644.789 720.855H623.337C623.337 722.264 623.617 723.658 624.16 724.958C624.704 726.257 625.5 727.436 626.504 728.426C627.507 729.416 628.697 730.198 630.005 730.726C631.313 731.254 632.713 731.517 634.124 731.501V731.501Z" fill="#2FB34E"/>
<path d="M1102.5 725.402C1107.75 725.402 1112.79 723.32 1116.5 719.612C1120.22 715.904 1122.31 710.876 1122.31 705.632H1082.59C1082.59 708.238 1083.1 710.817 1084.1 713.223C1085.11 715.628 1086.57 717.812 1088.43 719.65C1090.28 721.487 1092.47 722.941 1094.89 723.928C1097.3 724.915 1099.89 725.417 1102.5 725.402Z" fill="#2FB34E"/>
<path d="M261.459 713.495C265.19 713.495 268.768 712.016 271.408 709.384C274.048 706.753 275.533 703.182 275.537 699.458H247.396C247.401 703.18 248.883 706.748 251.52 709.379C254.156 712.011 257.731 713.491 261.459 713.495V713.495Z" fill="#2FB34E"/>
<path d="M895.523 896.293C897.369 896.293 899.198 895.93 900.904 895.224C902.61 894.519 904.16 893.485 905.466 892.181C906.772 890.878 907.808 889.331 908.515 887.628C909.221 885.924 909.585 884.099 909.585 882.256H881.46C881.46 885.979 882.942 889.549 885.579 892.181C888.216 894.814 891.793 896.293 895.523 896.293V896.293Z" fill="#2FB34E"/>
<path d="M840.019 732.885C843.753 732.885 847.333 731.405 849.973 728.769C852.614 726.134 854.097 722.56 854.097 718.833H825.972C825.972 722.555 827.451 726.124 830.084 728.759C832.718 731.393 836.291 732.877 840.019 732.885V732.885Z" fill="#2FB34E"/>
<path d="M596.34 886.606C600.943 886.606 605.356 884.781 608.611 881.533C611.865 878.284 613.694 873.878 613.694 869.284H579.002C579 871.558 579.447 873.81 580.317 875.912C581.188 878.013 582.465 879.923 584.075 881.532C585.685 883.14 587.597 884.416 589.702 885.287C591.806 886.158 594.062 886.606 596.34 886.606Z" fill="#2FB34E"/>
<path d="M720.587 748.108C724.316 748.108 727.893 746.629 730.53 743.997C733.167 741.364 734.649 737.794 734.649 734.071H706.524C706.524 737.794 708.006 741.364 710.643 743.997C713.28 746.629 716.857 748.108 720.587 748.108Z" fill="#2FB34E"/>
<path d="M920.783 812.513C927.353 812.513 933.655 809.908 938.3 805.27C942.946 800.633 945.556 794.343 945.556 787.785H896.056C896.056 794.336 898.659 800.618 903.295 805.254C907.931 809.89 914.221 812.501 920.783 812.513V812.513Z" fill="#2FB34E"/>
<path d="M458.365 892.096C450.89 879.848 440.745 869.44 428.686 861.644C416.626 853.848 402.962 848.865 388.708 847.065C368.109 844.617 347.343 849.012 326.607 849.438C305.871 849.864 283.155 845.24 270.022 829.196C252.684 808.012 255.243 771.3 230.638 759.24C214.457 751.287 195.352 759.088 178.836 766.205C154.276 776.729 128.178 785.854 101.668 784.09C75.1576 782.326 47.84 767.011 39.4147 741.751C33.1528 723 37.8911 701.572 29.801 683.505C24.179 670.868 13.0417 662.047 0 657.12V944.015H471.529C472.214 925.807 467.645 907.786 458.365 892.096V892.096Z" fill="#0B8866"/>
<path d="M164.926 634.141C108.655 660.853 63.8078 706.767 38.4804 763.593C13.1531 820.419 9.01532 884.411 26.8143 944.015H99.0162C142.563 906.753 172.613 856.22 184.525 800.215C196.437 744.211 189.549 685.849 164.926 634.141V634.141Z" fill="#D4E16E"/>
<path d="M143.413 704.386C143.63 703.598 143.541 702.758 143.163 702.033C142.785 701.308 142.147 700.753 141.376 700.478C140.606 700.203 139.76 700.228 139.007 700.55C138.255 700.871 137.652 701.465 137.319 702.211L51.1309 944.016H58.0022L143.413 704.386Z" fill="#A3CD3A"/>
<path d="M78.8752 884.005L124.11 862.532C124.832 862.211 125.418 861.647 125.764 860.937C126.11 860.227 126.193 859.419 125.999 858.654C125.873 858.192 125.647 857.764 125.336 857.4C125.024 857.037 124.636 856.746 124.199 856.55C123.762 856.354 123.287 856.256 122.808 856.265C122.329 856.274 121.858 856.389 121.428 856.601L76.0261 878.15C75.2506 878.521 74.6545 879.185 74.3688 879.995C74.0831 880.805 74.1312 881.695 74.5026 882.469C74.6852 882.86 74.9441 883.21 75.264 883.499C75.5839 883.788 75.9584 884.011 76.3656 884.154C76.7728 884.297 77.2046 884.358 77.6355 884.332C78.0664 884.306 78.4879 884.195 78.8752 884.005V884.005Z" fill="#A3CD3A"/>
<path d="M98.9706 827.569L144.205 806.095C144.928 805.775 145.514 805.21 145.859 804.501C146.205 803.791 146.288 802.982 146.095 802.217C145.969 801.756 145.743 801.327 145.432 800.964C145.12 800.6 144.731 800.31 144.294 800.115C143.856 799.92 143.381 799.825 142.902 799.836C142.423 799.847 141.952 799.964 141.524 800.179L96.1825 821.729C95.799 821.911 95.4554 822.167 95.1712 822.483C94.887 822.798 94.6678 823.166 94.5263 823.565C94.3848 823.965 94.3237 824.389 94.3464 824.812C94.3692 825.236 94.4754 825.65 94.6589 826.033V826.033C95.0283 826.806 95.6892 827.401 96.4972 827.689C97.3052 827.977 98.1945 827.934 98.9706 827.569V827.569Z" fill="#A3CD3A"/>
<path d="M119.036 771.133L164.271 749.659C164.994 749.339 165.579 748.774 165.925 748.065C166.271 747.355 166.354 746.546 166.16 745.781C166.033 745.321 165.805 744.895 165.493 744.533C165.181 744.171 164.793 743.882 164.356 743.687C163.919 743.493 163.445 743.397 162.966 743.406C162.488 743.416 162.018 743.531 161.59 743.744L116.187 765.293C115.412 765.664 114.816 766.328 114.53 767.138C114.244 767.948 114.292 768.838 114.664 769.612V769.612C114.848 770.001 115.108 770.35 115.428 770.637C115.749 770.925 116.123 771.146 116.53 771.288C116.938 771.429 117.369 771.489 117.799 771.462C118.229 771.435 118.65 771.324 119.036 771.133V771.133Z" fill="#A3CD3A"/>
<path d="M81.8308 746.04L103.344 791.192C103.664 791.913 104.23 792.498 104.941 792.843C105.652 793.188 106.462 793.271 107.229 793.077C107.691 792.952 108.12 792.726 108.485 792.416C108.849 792.105 109.139 791.717 109.335 791.28C109.53 790.843 109.626 790.369 109.615 789.89C109.603 789.412 109.486 788.942 109.27 788.515L87.6813 743.272C87.3092 742.502 86.6471 741.909 85.8394 741.625C85.0317 741.34 84.1439 741.385 83.3696 741.751V741.751C82.5992 742.12 82.0055 742.777 81.7174 743.58C81.4293 744.383 81.47 745.266 81.8308 746.04Z" fill="#A3CD3A"/>
<path d="M60.6377 805.517L82.1505 850.685C82.4784 851.4 83.0453 851.979 83.7541 852.323C84.4628 852.667 85.2693 852.755 86.0355 852.57C86.4964 852.443 86.9234 852.215 87.2862 851.904C87.6491 851.593 87.9389 851.206 88.1352 850.77C88.3315 850.335 88.4294 849.862 88.422 849.385C88.4146 848.907 88.3021 848.437 88.0924 848.008L66.5034 802.689C66.1313 801.915 65.4666 801.32 64.6553 801.034C63.8439 800.749 62.9524 800.797 62.1765 801.168V801.168C61.7873 801.35 61.4383 801.608 61.1498 801.926C60.8612 802.245 60.6389 802.617 60.4957 803.021C60.3526 803.426 60.2914 803.855 60.3158 804.284C60.3401 804.712 60.4496 805.132 60.6377 805.517V805.517Z" fill="#A3CD3A"/>
<path d="M38.3786 868.052L59.8913 913.219C60.2148 913.938 60.7817 914.519 61.4924 914.861C62.2031 915.203 63.0119 915.284 63.7764 915.09C64.2391 914.965 64.6681 914.739 65.0323 914.428C65.3965 914.117 65.6869 913.729 65.8823 913.293C66.0778 912.856 66.1734 912.381 66.1623 911.903C66.1511 911.425 66.0336 910.955 65.818 910.528L44.229 865.208C43.857 864.438 43.1949 863.846 42.3872 863.561C41.5795 863.276 40.6916 863.322 39.9174 863.687V863.687C39.5248 863.868 39.1726 864.126 38.8816 864.445C38.5906 864.764 38.3667 865.138 38.2232 865.545C38.0797 865.952 38.0195 866.384 38.0462 866.814C38.0729 867.245 38.1859 867.666 38.3786 868.052V868.052Z" fill="#A3CD3A"/>
<path d="M397.346 719.867C373.271 719.02 349.264 722.914 326.696 731.328C304.128 739.741 283.442 752.51 265.818 768.904C248.194 785.298 233.978 804.997 223.981 826.875C213.984 848.754 208.403 872.383 207.556 896.415V896.415C256.177 898.123 303.488 880.482 339.08 847.374C374.672 814.265 395.631 768.4 397.346 719.867V719.867Z" fill="#D4E16E"/>
<path d="M361.284 753.476C360.867 753.038 360.295 752.781 359.691 752.762C359.086 752.742 358.498 752.96 358.054 753.37L153.058 944.015H159.731L361.101 756.7C361.325 756.501 361.508 756.259 361.638 755.989C361.769 755.719 361.845 755.425 361.862 755.126C361.879 754.827 361.837 754.527 361.737 754.244C361.638 753.961 361.484 753.7 361.284 753.476V753.476Z" fill="#A3CD3A"/>
<path d="M262.618 847.841L297.797 849.088C298.35 849.115 298.896 848.95 299.341 848.619C299.785 848.289 300.101 847.816 300.235 847.279C300.301 846.953 300.296 846.618 300.219 846.294C300.142 845.971 299.996 845.669 299.79 845.408C299.584 845.148 299.323 844.935 299.026 844.785C298.73 844.636 298.404 844.552 298.071 844.541L262.785 843.294C262.182 843.274 261.594 843.492 261.152 843.903C260.709 844.313 260.448 844.882 260.424 845.484V845.484C260.412 845.783 260.459 846.081 260.563 846.362C260.666 846.643 260.825 846.9 261.029 847.119C261.233 847.338 261.478 847.515 261.751 847.639C262.024 847.763 262.318 847.832 262.618 847.841V847.841Z" fill="#A3CD3A"/>
<path d="M293.454 819.159L328.633 820.391C329.188 820.424 329.736 820.261 330.182 819.93C330.628 819.599 330.943 819.121 331.071 818.582C331.137 818.257 331.133 817.923 331.057 817.601C330.981 817.279 330.836 816.977 330.631 816.717C330.427 816.456 330.168 816.243 329.873 816.093C329.578 815.942 329.254 815.857 328.923 815.844L293.622 814.612C293.322 814.6 293.023 814.647 292.742 814.751C292.461 814.854 292.204 815.013 291.984 815.216C291.764 815.42 291.587 815.665 291.463 815.937C291.339 816.209 291.27 816.503 291.26 816.802V816.802C291.24 817.405 291.459 817.991 291.87 818.433C292.281 818.874 292.851 819.136 293.454 819.159V819.159Z" fill="#A3CD3A"/>
<path d="M324.306 790.416L359.47 791.663C360.025 791.696 360.573 791.533 361.019 791.202C361.465 790.871 361.78 790.393 361.908 789.854C361.977 789.529 361.974 789.194 361.899 788.871C361.825 788.547 361.68 788.245 361.475 787.984C361.27 787.723 361.01 787.51 360.714 787.36C360.417 787.21 360.092 787.127 359.76 787.116L324.459 785.854C324.158 785.844 323.859 785.893 323.578 785.998C323.297 786.103 323.039 786.263 322.82 786.468C322.601 786.673 322.424 786.919 322.3 787.192C322.176 787.465 322.107 787.759 322.097 788.059C322.087 788.359 322.136 788.657 322.241 788.938C322.347 789.219 322.507 789.476 322.712 789.695C322.917 789.914 323.164 790.09 323.437 790.214C323.711 790.338 324.006 790.406 324.306 790.416Z" fill="#A3CD3A"/>
<path d="M309.224 762.784L307.959 797.899C307.927 798.45 308.091 798.996 308.423 799.438C308.755 799.881 309.233 800.192 309.772 800.317C310.097 800.383 310.432 800.378 310.755 800.302C311.077 800.227 311.379 800.082 311.64 799.878C311.901 799.674 312.114 799.416 312.265 799.121C312.416 798.827 312.501 798.503 312.515 798.172L313.749 762.936C313.761 762.638 313.714 762.34 313.609 762.06C313.505 761.781 313.347 761.524 313.143 761.306C312.939 761.089 312.693 760.913 312.42 760.791C312.148 760.669 311.853 760.602 311.555 760.594C310.956 760.581 310.377 760.804 309.941 761.213C309.505 761.623 309.247 762.187 309.224 762.784V762.784Z" fill="#A3CD3A"/>
<path d="M276.726 793.016L275.476 828.131C275.45 828.684 275.616 829.228 275.946 829.672C276.277 830.116 276.752 830.431 277.29 830.565C277.615 830.631 277.952 830.626 278.275 830.549C278.599 830.473 278.902 830.326 279.163 830.121C279.424 829.915 279.637 829.655 279.788 829.359C279.938 829.062 280.021 828.737 280.032 828.405L281.281 793.184C281.291 792.884 281.242 792.585 281.137 792.305C281.031 792.024 280.871 791.767 280.666 791.548C280.461 791.329 280.215 791.153 279.941 791.029C279.668 790.905 279.372 790.836 279.072 790.827C278.774 790.816 278.477 790.865 278.197 790.97C277.918 791.074 277.662 791.233 277.444 791.436C277.226 791.639 277.051 791.884 276.927 792.155C276.804 792.426 276.736 792.719 276.726 793.016V793.016Z" fill="#A3CD3A"/>
<path d="M242.552 824.801L241.303 859.916C241.27 860.469 241.434 861.017 241.765 861.462C242.097 861.907 242.575 862.221 243.116 862.349C243.441 862.418 243.777 862.415 244.101 862.34C244.424 862.266 244.728 862.121 244.989 861.916C245.251 861.712 245.464 861.453 245.614 861.157C245.765 860.861 245.848 860.536 245.858 860.204L247.108 824.968C247.124 824.364 246.902 823.778 246.488 823.337C246.075 822.895 245.503 822.634 244.899 822.611V822.611C244.6 822.601 244.303 822.649 244.024 822.754C243.745 822.858 243.489 823.017 243.271 823.22C243.053 823.424 242.877 823.668 242.754 823.939C242.631 824.21 242.562 824.503 242.552 824.801V824.801Z" fill="#A3CD3A"/>
<path d="M1439.97 632.985C1424.73 641.729 1412.04 654.276 1404.27 671.43C1397.71 685.969 1394.14 703.23 1381.21 712.598C1361.7 726.696 1332.6 714.651 1311.12 725.631C1290.92 735.972 1285.5 762.251 1285.89 784.942C1286.29 807.632 1289.81 831.736 1279.11 851.719C1255.77 895.366 1185.18 887.549 1154.18 926.116C1149.9 931.467 1146.6 937.532 1144.44 944.031H1440.02L1439.97 632.985Z" fill="#0B8866"/>
<path d="M1050.13 785.762C1058.8 818.764 1073.92 849.729 1094.62 876.873C1115.33 904.017 1141.21 926.805 1170.77 943.924H1359.13C1336.2 884.186 1291.98 835.003 1234.96 805.813C1177.93 776.623 1112.11 769.483 1050.13 785.762Z" fill="#D4E16E"/>
<path d="M1110.59 820.969C1110.16 821.707 1110.04 822.586 1110.25 823.413C1110.47 824.24 1111.01 824.947 1111.75 825.379L1315.48 944H1328.29L1114.99 819.813C1114.25 819.386 1113.38 819.268 1112.55 819.485C1111.73 819.701 1111.02 820.235 1110.59 820.969V820.969Z" fill="#A3CD3A"/>
<path d="M1279.19 915.956L1266.48 867.793C1266.3 867.031 1265.85 866.357 1265.23 865.89C1264.6 865.423 1263.82 865.192 1263.04 865.238C1262.57 865.281 1262.12 865.424 1261.71 865.659C1261.3 865.893 1260.95 866.213 1260.68 866.596C1260.41 866.98 1260.23 867.417 1260.14 867.878C1260.06 868.34 1260.07 868.814 1260.19 869.268L1272.94 917.599C1273.05 918.009 1273.23 918.395 1273.49 918.733C1273.75 919.071 1274.07 919.355 1274.43 919.568C1274.8 919.782 1275.21 919.921 1275.63 919.977C1276.05 920.033 1276.48 920.005 1276.89 919.895C1277.71 919.674 1278.42 919.136 1278.85 918.398C1279.28 917.661 1279.4 916.783 1279.19 915.956V915.956Z" fill="#A3CD3A"/>
<path d="M1227.57 885.906L1214.88 837.743C1214.69 836.979 1214.25 836.305 1213.61 835.838C1212.98 835.371 1212.2 835.141 1211.42 835.188C1210.95 835.23 1210.5 835.373 1210.09 835.608C1209.69 835.842 1209.34 836.163 1209.07 836.546C1208.8 836.93 1208.61 837.368 1208.53 837.829C1208.45 838.29 1208.47 838.764 1208.59 839.218L1221.32 887.548C1221.54 888.375 1222.08 889.081 1222.82 889.512C1223.56 889.943 1224.44 890.062 1225.27 889.845V889.845C1226.1 889.627 1226.8 889.089 1227.24 888.351C1227.67 887.612 1227.79 886.733 1227.57 885.906V885.906Z" fill="#A3CD3A"/>
<path d="M1175.97 855.81L1163.27 807.647C1163.09 806.884 1162.64 806.209 1162.01 805.742C1161.38 805.275 1160.6 805.045 1159.82 805.092C1159.35 805.134 1158.9 805.277 1158.49 805.512C1158.08 805.747 1157.73 806.067 1157.46 806.451C1157.19 806.834 1157.01 807.272 1156.93 807.733C1156.84 808.195 1156.86 808.669 1156.98 809.122L1169.72 857.452C1169.94 858.279 1170.48 858.986 1171.22 859.416C1171.96 859.847 1172.84 859.967 1173.66 859.749V859.749C1174.49 859.531 1175.2 858.994 1175.63 858.255C1176.06 857.516 1176.18 856.637 1175.97 855.81V855.81Z" fill="#A3CD3A"/>
<path d="M1144.49 887.594L1192.73 874.911C1193.49 874.73 1194.16 874.286 1194.63 873.657C1195.1 873.029 1195.33 872.255 1195.28 871.474C1195.24 871.006 1195.1 870.554 1194.86 870.148C1194.63 869.742 1194.31 869.391 1193.92 869.121C1193.54 868.85 1193.1 868.667 1192.64 868.582C1192.18 868.497 1191.7 868.513 1191.25 868.63L1142.87 881.359C1142.46 881.465 1142.08 881.651 1141.74 881.907C1141.4 882.163 1141.11 882.483 1140.9 882.849C1140.69 883.216 1140.55 883.621 1140.49 884.041C1140.44 884.461 1140.46 884.888 1140.57 885.298V885.298C1140.79 886.118 1141.33 886.819 1142.06 887.249C1142.79 887.678 1143.66 887.803 1144.49 887.594V887.594Z" fill="#A3CD3A"/>
<path d="M1198.88 919.257L1247.13 906.589C1247.9 906.405 1248.57 905.958 1249.04 905.327C1249.51 904.696 1249.74 903.92 1249.69 903.137C1249.65 902.67 1249.51 902.218 1249.27 901.812C1249.04 901.406 1248.71 901.057 1248.33 900.787C1247.95 900.518 1247.51 900.336 1247.04 900.253C1246.58 900.17 1246.11 900.189 1245.65 900.308L1197.23 913.022C1196.41 913.24 1195.7 913.777 1195.27 914.516C1194.84 915.254 1194.72 916.134 1194.93 916.961V916.961C1195.04 917.371 1195.23 917.756 1195.48 918.094C1195.74 918.432 1196.06 918.716 1196.43 918.93C1196.79 919.143 1197.2 919.282 1197.62 919.338C1198.04 919.394 1198.47 919.367 1198.88 919.257V919.257Z" fill="#A3CD3A"/>
<path d="M1216.23 600.714C1203.38 651.746 1211.35 705.786 1238.41 750.948C1265.47 796.109 1309.39 828.692 1360.52 841.53C1373.37 790.498 1365.4 736.457 1338.34 691.296C1311.28 646.135 1267.36 613.551 1216.23 600.714Z" fill="#D4E16E"/>
<path d="M1243.7 646.565C1243.14 646.9 1242.74 647.444 1242.58 648.077C1242.42 648.71 1242.52 649.381 1242.85 649.941L1419.02 944.015H1424.73L1247.09 647.463C1246.92 647.181 1246.71 646.935 1246.45 646.737C1246.19 646.54 1245.9 646.396 1245.58 646.312C1245.27 646.229 1244.94 646.208 1244.62 646.252C1244.29 646.295 1243.98 646.402 1243.7 646.565Z" fill="#A3CD3A"/>
<path d="M1321.47 772.273L1330.78 735.348C1330.95 734.762 1330.91 734.132 1330.66 733.574C1330.4 733.015 1329.96 732.566 1329.4 732.307C1329.08 732.161 1328.72 732.089 1328.36 732.095C1328 732.102 1327.65 732.187 1327.32 732.345C1327 732.503 1326.72 732.73 1326.49 733.01C1326.27 733.29 1326.11 733.616 1326.02 733.965L1316.68 771.011C1316.59 771.328 1316.57 771.661 1316.61 771.988C1316.66 772.315 1316.76 772.63 1316.93 772.914C1317.1 773.198 1317.32 773.445 1317.59 773.641C1317.86 773.836 1318.16 773.976 1318.48 774.052V774.052C1318.79 774.132 1319.12 774.149 1319.44 774.103C1319.76 774.057 1320.07 773.948 1320.34 773.782C1320.62 773.617 1320.86 773.398 1321.06 773.139C1321.25 772.88 1321.39 772.586 1321.47 772.273V772.273Z" fill="#A3CD3A"/>
<path d="M1298.02 733.144L1307.33 696.219C1307.5 695.634 1307.46 695.006 1307.21 694.448C1306.97 693.89 1306.52 693.439 1305.97 693.177C1305.64 693.034 1305.29 692.964 1304.93 692.972C1304.57 692.98 1304.21 693.065 1303.89 693.223C1303.57 693.381 1303.28 693.606 1303.05 693.885C1302.83 694.163 1302.66 694.487 1302.57 694.835L1293.23 731.881C1293.15 732.199 1293.13 732.531 1293.17 732.857C1293.21 733.183 1293.32 733.498 1293.49 733.781C1293.66 734.065 1293.88 734.312 1294.15 734.508C1294.41 734.704 1294.71 734.845 1295.03 734.923V734.923C1295.35 735.003 1295.67 735.02 1295.99 734.974C1296.31 734.927 1296.62 734.818 1296.9 734.653C1297.17 734.488 1297.42 734.269 1297.61 734.01C1297.8 733.751 1297.94 733.457 1298.02 733.144Z" fill="#A3CD3A"/>
<path d="M1274.59 693.999L1283.88 657.074C1284.06 656.489 1284.02 655.859 1283.77 655.301C1283.52 654.742 1283.08 654.292 1282.52 654.033C1282.19 653.886 1281.84 653.814 1281.48 653.821C1281.12 653.827 1280.76 653.913 1280.44 654.071C1280.11 654.229 1279.83 654.455 1279.6 654.735C1279.38 655.015 1279.21 655.341 1279.13 655.69L1269.79 692.736C1269.7 693.054 1269.68 693.386 1269.72 693.712C1269.77 694.038 1269.88 694.353 1270.04 694.636C1270.21 694.92 1270.43 695.167 1270.7 695.363C1270.96 695.559 1271.26 695.7 1271.58 695.778V695.778C1271.9 695.858 1272.23 695.875 1272.55 695.829C1272.87 695.783 1273.18 695.674 1273.45 695.509C1273.73 695.344 1273.98 695.125 1274.17 694.866C1274.37 694.607 1274.51 694.312 1274.59 693.999V693.999Z" fill="#A3CD3A"/>
<path d="M1241.77 703.732L1278.76 713.008C1279.35 713.187 1279.98 713.148 1280.54 712.899C1281.1 712.651 1281.55 712.209 1281.81 711.655C1281.95 711.326 1282.03 710.969 1282.02 710.61C1282.01 710.25 1281.93 709.896 1281.77 709.573C1281.61 709.249 1281.38 708.965 1281.1 708.739C1280.82 708.512 1280.5 708.35 1280.15 708.263L1243.03 698.941C1242.72 698.857 1242.38 698.836 1242.06 698.881C1241.73 698.926 1241.42 699.035 1241.13 699.202C1240.85 699.369 1240.6 699.59 1240.41 699.854C1240.21 700.117 1240.07 700.417 1239.99 700.736C1239.91 701.049 1239.89 701.375 1239.93 701.696C1239.98 702.016 1240.09 702.324 1240.26 702.602C1240.42 702.88 1240.64 703.123 1240.9 703.317C1241.16 703.511 1241.45 703.652 1241.77 703.732V703.732Z" fill="#A3CD3A"/>
<path d="M1266.48 744.899L1303.47 754.191C1304.06 754.365 1304.69 754.323 1305.25 754.071C1305.81 753.82 1306.26 753.377 1306.52 752.822C1306.67 752.495 1306.74 752.139 1306.73 751.78C1306.73 751.421 1306.64 751.068 1306.48 750.746C1306.32 750.424 1306.1 750.141 1305.82 749.916C1305.54 749.691 1305.21 749.531 1304.86 749.446L1267.75 740.124C1267.43 740.037 1267.1 740.014 1266.77 740.057C1266.45 740.1 1266.13 740.208 1265.85 740.373C1265.56 740.539 1265.32 740.76 1265.12 741.022C1264.92 741.285 1264.78 741.585 1264.7 741.903V741.903C1264.62 742.217 1264.6 742.543 1264.65 742.863C1264.69 743.183 1264.8 743.491 1264.97 743.77C1265.13 744.048 1265.35 744.291 1265.61 744.485C1265.87 744.678 1266.17 744.819 1266.48 744.899V744.899Z" fill="#A3CD3A"/>
<path d="M1292.46 788.271L1329.45 797.548C1330.04 797.727 1330.67 797.688 1331.23 797.439C1331.79 797.191 1332.24 796.749 1332.5 796.195C1332.64 795.866 1332.72 795.509 1332.71 795.149C1332.7 794.79 1332.62 794.436 1332.46 794.112C1332.3 793.789 1332.07 793.505 1331.79 793.278C1331.51 793.052 1331.19 792.89 1330.84 792.803L1293.71 783.481C1293.39 783.392 1293.06 783.369 1292.73 783.411C1292.4 783.454 1292.09 783.563 1291.8 783.73C1291.52 783.898 1291.27 784.121 1291.07 784.387C1290.88 784.652 1290.74 784.954 1290.66 785.275C1290.58 785.59 1290.56 785.917 1290.61 786.238C1290.66 786.559 1290.77 786.868 1290.94 787.146C1291.1 787.425 1291.32 787.667 1291.58 787.86C1291.85 788.053 1292.14 788.193 1292.46 788.271V788.271Z" fill="#A3CD3A"/>
</g>
</g>
</svg>
