<svg fill="none" height="902" viewBox="0 0 1280 902" width="1280" xmlns="http://www.w3.org/2000/svg" xmlns:xlink="http://www.w3.org/1999/xlink"><mask id="a" height="33" maskUnits="userSpaceOnUse" width="33" x="696" y="45"><circle cx="712.5" cy="61.5" fill="#069f60" r="16.5"/></mask><mask id="b" height="33" maskUnits="userSpaceOnUse" width="33" x="741" y="45"><circle cx="757.5" cy="61.5" fill="#069f60" r="16.5"/></mask><mask id="c" height="33" maskUnits="userSpaceOnUse" width="33" x="786" y="45"><circle cx="802.5" cy="61.5" fill="#069f60" r="16.5"/></mask><path d="m0 0h1280v902h-1280z" fill="#f6d269"/><path d="m27 58c0-27.6142 22.3858-50 50-50h1131c27.61 0 50 22.3858 50 50v844h-1231z" fill="#e2b74d"/><path d="m38 70c0-27.6143 22.3858-50 50-50h1105c27.61 0 50 22.3858 50 50v832h-1205z" fill="#405872"/><rect fill="#2e4053" height="33" rx="16.5" width="219" x="461" y="45"/><rect fill="#33465b" height="33" rx="16.5" width="219" x="465" y="45"/><path d="m568.82 55.0352-.097 4.1406-2.911.1172-.742 9.2578-4.121.2148.02-9.2578-2.91.1563.117-4.6094zm12.481.2734-3.574 13.5937-4.844.2735-4.395-13.7305 4.629-.4297 1.875 8.0078 1.817-8.0078z" fill="#2e4053"/><circle cx="712.5" cy="61.5" fill="#304256" r="16.5"/><g mask="url(#a)"><circle cx="716.5" cy="61.5" fill="#33465b" r="16.5"/></g><circle cx="757.5" cy="61.5" fill="#e77665" r="16.5"/><g mask="url(#b)"><circle cx="761.5" cy="61.5" fill="#ff8471" r="16.5"/></g><circle cx="802.5" cy="61.5" fill="#069f60" r="16.5"/><g mask="url(#c)"><circle cx="806.5" cy="61.5" fill="#05b46c" r="16.5"/></g></svg>