<svg fill="none" height="2048" viewBox="0 0 2571 2048" width="2571" xmlns="http://www.w3.org/2000/svg"><rect fill="#ffe359" height="1833" rx="132" width="2362" x="104" y="83"/><rect fill="#fff" height="1163" rx="175" stroke="#e4c05c" stroke-width="50" width="1712" x="355" y="419"/><g fill="#547580"><rect height="68" rx="34" width="636" x="575" y="714"/><rect height="68" rx="34" width="636" x="575" y="834"/><rect height="66" rx="33" width="636" x="575" y="956"/></g><path d="m602 1297c42.274-15.48 121.511-62.48 100.267-126.59-16.234-49 70.771-5.03 148.6 43.23 28.344 17.57 23.321 59.3-7.915 70.98-19.049 7.13-40.984-.55-47.625-19.77-19.012-55.03-11.312-120.96 121.668-94.44 160.795 32.05 187.565 97.75 180.845 126.59l47.16-126.59" stroke="#547580" stroke-linecap="round" stroke-width="58"/><path d="m2009.33 1105.64h-411.27v821.75c0 17.19 18.17 28.31 33.48 20.47l159.59-81.69 185.71 84.12c15.22 6.89 32.49-4.24 32.49-20.96z" fill="#ff5364"/><path d="m2222.94 741.026h-321.65v816.824c0 18.28 20.3 29.25 35.6 19.24l115.4-75.53 136.12 78.83c15.33 8.88 34.53-2.18 34.53-19.9z" fill="#df4d60"/><path d="m1821.83 171.462c10.55-26.251 47.71-26.251 58.25 0 9.4 23.387 41.14 26.723 55.19 5.801 15.77-23.485 52.12-15.759 56.98 12.111 4.33 24.83 34.68 34.691 52.78 17.148 20.31-19.692 54.26-4.577 53.21 23.694-.93 25.187 26.71 41.142 48.06 27.745 23.96-15.039 54.03 6.804 47.13 34.241-6.15 24.443 17.57 45.796 41.23 37.129 26.57-9.727 51.44 17.889 38.98 43.292-11.09 22.632 7.67 48.449 32.62 44.892 28.01-3.992 46.59 28.191 29.13 50.45-15.56 19.831-2.58 48.983 22.57 50.692 28.22 1.918 39.71 37.262 18 55.404-19.34 16.163-12.71 47.377 11.54 54.276 27.21 7.745 31.09 44.704 6.08 57.936-22.27 11.789-22.27 43.7 0 55.489 25.01 13.233 21.13 50.191-6.08 57.936-24.25 6.9-30.88 38.114-11.54 54.277 21.71 18.142 10.22 53.485-18 55.403-25.15 1.709-38.13 30.862-22.57 50.692 17.46 22.259-1.12 54.44-29.13 50.45-24.95-3.56-43.71 22.26-32.62 44.89 12.46 25.41-12.41 53.02-38.98 43.29-23.66-8.66-47.38 12.69-41.23 37.13 6.9 27.44-23.17 49.28-47.13 34.24-21.35-13.39-48.99 2.56-48.06 27.75 1.05 28.27-32.9 43.39-53.21 23.69-18.1-17.54-48.45-7.68-52.78 17.15-4.86 27.87-41.21 35.6-56.98 12.11-14.05-20.92-45.79-17.58-55.19 5.8-10.54 26.25-47.7 26.25-58.25 0-9.4-23.38-41.13-26.72-55.19-5.8-15.77 23.49-52.12 15.76-56.98-12.11-4.33-24.83-34.67-34.69-52.77-17.15-20.31 19.7-54.26 4.58-53.22-23.69.93-25.19-26.71-41.14-48.05-27.75-23.97 15.04-54.03-6.8-47.13-34.24 6.14-24.44-17.57-45.79-41.24-37.13-26.57 9.73-51.43-17.88-38.98-43.29 11.09-22.63-7.66-48.45-32.62-44.89-28 3.99-46.58-28.191-29.12-50.45 15.55-19.83 2.57-48.983-22.57-50.692-28.23-1.918-39.71-37.261-18-55.403 19.33-16.163 12.7-47.377-11.54-54.277-27.21-7.745-31.1-44.703-6.09-57.936 22.28-11.789 22.28-43.7 0-55.489-25.01-13.232-21.12-50.191 6.09-57.936 24.24-6.899 30.87-38.113 11.54-54.276-21.71-18.142-10.23-53.486 18-55.404 25.14-1.709 38.12-30.861 22.57-50.692-17.46-22.259 1.12-54.442 29.12-50.45 24.96 3.557 43.71-22.26 32.62-44.892-12.45-25.403 12.41-53.019 38.98-43.292 23.67 8.667 47.38-12.686 41.24-37.129-6.9-27.437 23.16-49.28 47.13-34.241 21.34 13.397 48.98-2.558 48.05-27.745-1.04-28.271 32.91-43.386 53.22-23.694 18.1 17.543 48.44 7.682 52.77-17.148 4.86-27.87 41.21-35.596 56.98-12.111 14.06 20.922 45.79 17.586 55.19-5.801z" fill="#fb7b76"/><circle cx="1850.34" cy="713.404" fill="#fff" r="367.237" stroke="#f3d55b" stroke-width="50"/></svg>