<svg width="168" height="168" viewBox="0 0 168 168" fill="none" xmlns="http://www.w3.org/2000/svg">
<path d="M83.8394 167.146C129.774 167.146 167.012 129.888 167.012 83.9286C167.012 37.9687 129.774 0.710815 83.8394 0.710815C37.9046 0.710815 0.667114 37.9687 0.667114 83.9286C0.667114 129.888 37.9046 167.146 83.8394 167.146Z" fill="#D4E16C"/>
<path d="M83.8398 167.172C97.8949 167.18 111.722 163.616 124.024 156.815V153.881C124.024 142.967 119.691 132.501 111.978 124.784C104.265 117.067 93.804 112.731 82.8964 112.731C71.9888 112.731 61.5279 117.067 53.8151 124.784C46.1022 132.501 41.7692 142.967 41.7692 153.881V155.845C54.5324 163.307 69.0577 167.217 83.8398 167.172Z" fill="#003343"/>
<path d="M82.8966 146.661C85.8486 146.661 88.7717 146.079 91.4987 144.948C94.2257 143.817 96.7032 142.159 98.7895 140.07C100.876 137.98 102.53 135.499 103.657 132.769C104.784 130.04 105.363 127.114 105.36 124.161C105.358 122.443 105.161 120.731 104.773 119.058C98.2142 114.94 90.6275 112.755 82.8838 112.755C75.1401 112.755 67.5533 114.94 60.9943 119.058C60.6068 120.731 60.4102 122.443 60.408 124.161C60.408 130.128 62.7773 135.851 66.9947 140.071C71.2121 144.291 76.9322 146.661 82.8966 146.661Z" fill="#415E6F"/>
<path d="M126.981 86.2759C126.981 88.7583 126.245 91.185 124.867 93.2491C123.488 95.3132 121.529 96.9221 119.237 97.8721C116.945 98.8221 114.422 99.0706 111.989 98.5863C109.556 98.102 107.32 96.9066 105.566 95.1512C103.811 93.3959 102.617 91.1593 102.133 88.7245C101.648 86.2898 101.897 83.7661 102.846 81.4726C103.796 79.1791 105.404 77.2188 107.467 75.8397C109.53 74.4605 111.955 73.7244 114.436 73.7244C117.763 73.7244 120.954 75.0468 123.307 77.4006C125.659 79.7545 126.981 82.947 126.981 86.2759Z" fill="#F6928A"/>
<path d="M63.9769 86.2759C63.9769 88.7583 63.2412 91.185 61.8628 93.2491C60.4844 95.3132 58.5252 96.9221 56.233 97.8721C53.9407 98.8221 51.4184 99.0706 48.985 98.5863C46.5516 98.102 44.3164 96.9066 42.5619 95.1512C40.8075 93.3959 39.6128 91.1593 39.1287 88.7245C38.6447 86.2898 38.8931 83.7661 39.8426 81.4726C40.7921 79.1791 42.3999 77.2188 44.4629 75.8397C46.5258 74.4605 48.9512 73.7244 51.4323 73.7244C54.7594 73.7244 57.9501 75.0468 60.3027 77.4006C62.6552 79.7545 63.9769 82.947 63.9769 86.2759Z" fill="#F6928A"/>
<path d="M98.8829 108.242C98.8829 99.4077 91.7253 92.2462 82.896 92.2462C74.0667 92.2462 66.9092 99.4077 66.9092 108.242V123.37C66.9092 132.204 74.0667 139.366 82.896 139.366C91.7253 139.366 98.8829 132.204 98.8829 123.37V108.242Z" fill="#F6928A"/>
<path d="M49.112 60.5103H116.655V88.9554C116.655 97.9203 113.095 106.518 106.759 112.857C100.424 119.196 91.8306 122.758 82.8705 122.758V122.758C73.9105 122.758 65.3174 119.196 58.9816 112.857C52.6459 106.518 49.0865 97.9203 49.0865 88.9554V60.5103H49.112Z" fill="#F4AF9F"/>
<path d="M82.8966 107.373C87.7481 107.368 92.4517 105.702 96.2269 102.653C100.002 99.6047 102.622 95.356 103.651 90.6124C103.765 90.0721 103.757 89.5131 103.628 88.9763C103.499 88.4394 103.252 87.938 102.905 87.5082C102.559 87.0785 102.121 86.7313 101.624 86.4916C101.127 86.2519 100.583 86.1258 100.031 86.1224H65.7879C65.2366 86.1249 64.6928 86.2507 64.1965 86.4905C63.7001 86.7304 63.2636 87.0783 62.9189 87.5087C62.5743 87.9392 62.3303 88.4413 62.2046 88.9783C62.079 89.5153 62.0749 90.0737 62.1928 90.6124C63.2162 95.3496 65.8272 99.5944 69.5929 102.643C73.3585 105.691 78.0527 107.361 82.8966 107.373V107.373Z" fill="#8B153B"/>
<path d="M71.3971 91.6596H94.3446C94.7653 91.6596 95.1818 91.5762 95.5701 91.4144C95.9585 91.2525 96.3111 91.0153 96.6074 90.7165C96.9036 90.4177 97.1378 90.0631 97.2965 89.6732C97.4551 89.2834 97.5351 88.8661 97.5318 88.4452V86.0726H68.3374V88.4452C68.3301 89.2737 68.6454 90.0724 69.2165 90.6724C69.7876 91.2724 70.5697 91.6265 71.3971 91.6596V91.6596Z" fill="white"/>
<path d="M83.381 96.0219H64.1304C65.9371 99.4337 68.6389 102.289 71.9452 104.28C75.2515 106.271 79.0375 107.323 82.8965 107.323C86.1716 107.333 89.4029 106.573 92.3304 105.104V104.976C92.3304 102.601 91.3876 100.324 89.7093 98.6446C88.0309 96.9653 85.7546 96.0219 83.381 96.0219Z" fill="#ED2061"/>
<path d="M82.8966 77.5773C82.2863 77.5739 81.6813 77.6916 81.1167 77.9237C80.5522 78.1559 80.0392 78.4978 79.6076 78.9296C79.1761 79.3614 78.8343 79.8747 78.6023 80.4395C78.3703 81.0044 78.2527 81.6097 78.2561 82.2203H87.5116C87.515 81.6118 87.3981 81.0086 87.1677 80.4454C86.9373 79.8822 86.5978 79.3701 86.1689 78.9386C85.74 78.5072 85.2301 78.1649 84.6685 77.9312C84.107 77.6976 83.5048 77.5773 82.8966 77.5773V77.5773Z" fill="#F6928A"/>
<path d="M116.655 39.9991H49.1122V60.5102H116.655V39.9991Z" fill="#ED4042"/>
<path d="M99.0276 48.824C102.847 37.1121 96.4546 24.5196 84.7491 20.6978C73.0436 16.876 60.458 23.2722 56.6383 34.9841C52.8186 46.696 59.2113 59.2885 70.9168 63.1103C82.6223 66.9321 95.2079 60.5359 99.0276 48.824Z" fill="#ED4042"/>
<path d="M65.2014 46.3513C65.2064 49.1589 64.3786 51.9047 62.8229 54.2412C61.2671 56.5777 59.0532 58.3997 56.4618 59.4764C53.8703 60.5532 51.0178 60.8362 48.2654 60.2897C45.5131 59.7432 42.9848 58.3917 41.0006 56.4065C39.0165 54.4213 37.6657 51.8916 37.1196 49.1377C36.5734 46.3839 36.8562 43.5297 37.9324 40.9369C39.0085 38.344 40.8295 36.1291 43.1647 34.5724C45.4999 33.0158 48.2443 32.1875 51.0503 32.1926C54.8034 32.1926 58.4029 33.6843 61.0567 36.3396C63.7105 38.9949 65.2014 42.5962 65.2014 46.3513V46.3513Z" fill="#ED4042"/>
<path d="M114.36 60.5093C123.443 60.5093 130.806 53.1423 130.806 44.0546C130.806 34.9668 123.443 27.5998 114.36 27.5998C105.277 27.5998 97.9144 34.9668 97.9144 44.0546C97.9144 53.1423 105.277 60.5093 114.36 60.5093Z" fill="#ED4042"/>
<path d="M108.7 35.2026C108.705 37.4086 108.055 39.5665 106.834 41.4032C105.613 43.2399 103.875 44.6727 101.839 45.5204C99.8035 46.3681 97.5622 46.5926 95.3992 46.1654C93.2361 45.7381 91.2483 44.6783 89.6875 43.1202C88.1266 41.5621 87.063 39.5757 86.631 37.4124C86.199 35.2491 86.4181 33.0062 87.2607 30.9676C88.1033 28.929 89.5314 27.1863 91.3643 25.9602C93.1972 24.734 95.3525 24.0795 97.5574 24.0795C100.508 24.0795 103.338 25.2506 105.427 27.3359C107.516 29.4211 108.693 32.2502 108.7 35.2026V35.2026Z" fill="#ED4042"/>
<path d="M72.5697 55.6876C72.5697 58.2457 71.8116 60.7465 70.3911 62.8735C68.9707 65.0005 66.9518 66.6583 64.5897 67.6373C62.2275 68.6162 59.6283 68.8724 57.1207 68.3733C54.6131 67.8742 52.3096 66.6423 50.5017 64.8334C48.6939 63.0245 47.4628 60.72 46.964 58.211C46.4652 55.702 46.7212 53.1013 47.6996 50.7379C48.678 48.3745 50.3349 46.3545 52.4607 44.9332C54.5866 43.512 57.086 42.7533 59.6427 42.7533C61.3403 42.7533 63.0213 43.0879 64.5897 43.7379C66.1581 44.3879 67.5832 45.3407 68.7836 46.5417C69.9839 47.7428 70.936 49.1687 71.5857 50.7379C72.2353 52.3072 72.5697 53.989 72.5697 55.6876V55.6876Z" fill="#ED4042"/>
<path d="M70.6321 77.8825C70.6321 76.2181 69.9712 74.6218 68.7949 73.4448C67.6187 72.2679 66.0232 71.6067 64.3597 71.6067C62.6962 71.6067 61.1007 72.2679 59.9244 73.4448C58.7481 74.6218 58.0873 76.2181 58.0873 77.8825H70.6321Z" fill="#002439"/>
<path d="M107.705 77.8835C107.603 76.2849 106.897 74.7851 105.729 73.689C104.562 72.5929 103.021 71.9829 101.42 71.9829C99.819 71.9829 98.2783 72.5929 97.1108 73.689C95.9433 74.7851 95.2368 76.2849 95.135 77.8835H107.705Z" fill="#002439"/>
</svg>
