<svg fill="none" height="2048" viewBox="0 0 1969 2048" width="1969" xmlns="http://www.w3.org/2000/svg" xmlns:xlink="http://www.w3.org/1999/xlink"><clipPath id="a"><path d="m0 0h1968.19v2048h-1968.19z"/></clipPath><mask id="b" height="1018" maskUnits="userSpaceOnUse" width="1247" x="403" y="476"><path d="m431.347 1078.81c-35.682-37.38-37.003-95.793-3.047-134.75l110.973-127.317c37.956-43.546 104.807-45.968 145.814-5.283l111.776 110.896c39.414 39.105 103.139 38.614 141.946-1.093l405.241-414.626c38.84-39.741 102.63-40.193 142.03-1.006l134.1 133.366c39.16 38.947 39.33 102.263.38 141.421l-679.796 683.502c-39.664 39.88-104.404 39.21-143.239-1.48z" fill="#c8effe"/></mask><g clip-path="url(#a)"><path d="m932.028 171.796c4.772-64.347 99.172-64.347 103.942 0 4.23 56.957 83.78 66.616 101.51 12.326 20.04-61.336 111.69-38.744 100.93 24.875-9.53 56.313 65.4 84.731 95.61 36.261 34.13-54.759 117.72-10.889 92.04 48.306-22.73 52.395 43.22 97.92 84.15 58.088 46.25-45 116.91 17.599 77.81 68.928-34.61 45.434 18.53 105.42 67.81 76.541 55.66-32.626 109.29 45.063 59.04 85.544-44.47 35.831-7.23 106.792 47.53 90.544 61.85-18.355 95.33 69.91 36.85 97.19-51.75 24.147-32.57 101.958 24.48 99.286 64.45-3.019 75.83 90.693 12.53 103.186-56.04 11.059-56.04 91.199 0 102.259 63.3 12.49 51.92 106.2-12.53 103.19-57.05-2.68-76.23 75.13-24.48 99.28 58.48 27.28 25 115.55-36.85 97.19-54.76-16.25-92 54.71-47.53 90.54 50.25 40.49-3.38 118.18-59.04 85.55-49.28-28.88-102.42 31.11-67.81 76.54 39.1 51.33-31.56 113.93-77.81 68.93-40.93-39.83-106.88 5.69-84.15 58.09 25.68 59.19-57.91 103.06-92.04 48.3-30.21-48.47-105.14-20.05-95.61 36.26 10.76 63.62-80.89 86.21-100.93 24.88-17.73-54.29-97.28-44.63-101.51 12.32-4.77 64.35-99.17 64.35-103.942 0-4.224-56.95-83.78-66.61-101.512-12.32-20.033 61.33-111.69 38.74-100.924-24.88 9.53-56.31-65.403-84.73-95.612-36.26-34.129 54.76-117.716 10.89-92.038-48.3 22.729-52.4-43.225-97.92-84.156-58.09-46.242 45-116.902-17.6-77.803-68.93 34.607-45.43-18.536-105.42-67.81-76.54-55.667 32.63-109.293-45.06-59.047-85.55 44.475-35.83 7.232-106.79-47.521-90.54-61.858 18.36-95.333-69.91-36.859-97.19 51.757-24.15 32.579-101.96-24.472-99.28-64.4533 3.01-75.832-90.7-12.529-103.19 56.032-11.06 56.032-91.2 0-102.259-63.303-12.493-51.9243-106.205 12.529-103.186 57.051 2.672 76.229-75.139 24.472-99.286-58.474-27.28-24.999-115.545 36.859-97.19 54.753 16.248 91.996-54.713 47.521-90.544-50.246-40.481 3.38-118.17 59.047-85.544 49.274 28.879 102.417-31.107 67.81-76.541-39.099-51.329 31.561-113.928 77.803-68.928 40.931 39.832 106.885-5.693 84.156-58.088-25.678-59.195 57.909-103.065 92.038-48.306 30.209 48.47 105.142 20.052 95.612-36.261-10.766-63.619 80.891-86.211 100.924-24.875 17.732 54.29 97.288 44.631 101.512-12.326z" fill="#05b46c"/><g stroke-linecap="round" stroke-width="58"><path d="m94.8583 278.34 71.2217 43.435" stroke="#ffd15b"/><path d="m264.402 151.999 27.865 78.63" stroke="#ffd15b"/><path d="m122.692 141.118 103.426 133.19" stroke="#feb137"/><path d="m29-29h83.421" stroke="#ffd15b" transform="matrix(.853762 -.520663 -.520663 -.853762 55 1742.63)"/><path d="m29-29h83.421" stroke="#ffd15b" transform="matrix(.334024 -.942565 -.942565 -.334024 227.381 1896.28)"/><path d="m29-29h168.632" stroke="#feb137" transform="matrix(.613329 -.789827 -.789827 -.613329 82 1894.63)"/><path d="m29-29h83.421" stroke="#ffd15b" transform="matrix(-.853762 .520663 .520663 .853762 1848.62 288)"/><path d="m29-29h83.421" stroke="#ffd15b" transform="matrix(-.334024 .942565 .942565 .334024 1676.24 134.352)"/><path d="m29-29h168.632" stroke="#feb137" transform="matrix(-.613329 .789827 .789827 .613329 1821.62 136)"/><path d="m1808.76 1752.29-71.22-43.43" stroke="#ffd15b"/><path d="m1639.22 1878.63-27.87-78.63" stroke="#ffd15b"/><path d="m1780.93 1889.51-103.43-133.19" stroke="#feb137"/></g><path d="m431.347 1078.81c-35.682-37.38-37.003-95.793-3.047-134.75l110.973-127.317c37.956-43.546 104.807-45.968 145.814-5.283l111.776 110.896c39.414 39.105 103.139 38.614 141.946-1.093l405.241-414.626c38.84-39.741 102.63-40.193 142.03-1.006l134.1 133.366c39.16 38.947 39.33 102.263.38 141.421l-679.796 683.502c-39.664 39.88-104.404 39.21-143.239-1.48z" fill="#f7f7f7"/><g mask="url(#b)"><path d="m-9.37525 1110.6c-35.68175-37.38-37.00225-95.8-3.04645-134.753l192.0307-220.313c23.969-27.5 61.011-39.765 96.656-32.005l213.775 46.54c26.236 5.712 53.666.634 76.118-14.092l556.162-364.782c39.54-25.933 91.84-20.628 125.36 12.716l205.27 204.158c39.16 38.947 39.33 102.263.39 141.421l-849.908 854.53c-39.664 39.88-104.404 39.22-143.239-1.47z" fill="#fff"/></g></g></svg>