<svg fill="none" height="2048" width="1482" xmlns="http://www.w3.org/2000/svg" xmlns:xlink="http://www.w3.org/1999/xlink"><clipPath id="a"><path d="m0 0h1481.84v2048h-1481.84z"/></clipPath><g clip-path="url(#a)" clip-rule="evenodd" fill-rule="evenodd"><path d="m724.8 0h33.24a146.49 146.49 0 0 1 48.032 16.608c27.257 14.284 100.884 79.722 129.803 102.475 43.378 33.217 46.536 36.539 111.525 44.511 173.51 21.425 249.3-5.647 263.09 205.116 6.32 92.842 6.32 125.228 55.01 181.033 12.97 14.616 21.44 26.74 34.24 41.853 51.85 61.286 112.68 124.232 65.48 211.926-23.76 44.178-114.01 130.709-134.79 177.213-12.13 27.075-18.44 97.325-20.11 136.025-9.97 235.34-156.72 171.57-264.09 200.3-62.656-9.3-105.868 38.86-136.781 63.11l-107.366 85.53c-109.858 28.07-131.631-3.65-193.457-55.63-25.263-21.1-48.364-39.7-72.463-59.63a142.134 142.134 0 0 0 -98.391-35.04l-141.27-13.46c-172.516-33.21-102.546-222.38-145.592-322.534-39.39-91.679-200.604-168.909-134.955-304.102a255.955 255.955 0 0 1 34.071-46.006c25.429-32.055 86.923-98.489 100.884-131.208 16.62-38.864 13.628-87.361 19.778-136.19 6.98-54.31 2.659-85.7 30.248-125.726 67.976-98.655 209.247-44.677 303.649-88.69 68.142-31.556 132.96-134.862 220.714-146.654zm-91.909 1184.02a458.102 458.102 0 0 1 -220.24-124.81 457.651 457.651 0 0 1 -120.242-222.664 457.438 457.438 0 0 1 16.494-252.478 457.748 457.748 0 0 1 148.192-205.151 458.225 458.225 0 0 1 234.609-95.14 458.323 458.323 0 0 1 249.344 43.94 457.93 457.93 0 0 1 187.892 169.594 457.453 457.453 0 0 1 69.03 243.43c-.5 296.459-281.375 514.369-565.577 442.449z" fill="#ffd681"/><path d="m632.393 1183.19c6.98-8.3 251.959-64.94 319.935-324.695 27.756-105.962 7.646-131.705 12.798-190.5l-264.591 263.08c-27.922 27.902-65.151 65.105-113.681 19.432l-132.961-131.872a64.085 64.085 0 0 1 -18.329-72.238 64.117 64.117 0 0 1 14.405-22.035 64.15 64.15 0 0 1 22.05-14.394 64.193 64.193 0 0 1 51.51 2.141 64.148 64.148 0 0 1 20.777 16.175c18.781 19.1 69.805 74.739 88.419 85.368 18.448-9.134 119.83-116.26 143.099-138.847l69.97-70.088c12.133-11.958 22.271-21.591 33.24-33.217a55.982 55.982 0 0 1 18.624-18.029 56.052 56.052 0 0 1 24.754-7.715c-38.226-107.623-158.056-203.786-270.74-240.824-22.105-7.307-16.62-7.141-16.62-11.459-100.319 23.46-189.794 80.033-253.969 160.579a457.529 457.529 0 0 0 -99.705 283.318 457.525 457.525 0 0 0 97.481 284.09c63.542 81.05 152.57 138.32 252.703 162.56" fill="#ff7f00"/><path d="m741.088 1612.03a978.44 978.44 0 0 1 60.497-147.16c-109.859 28.07-131.631-3.65-193.458-55.63-25.262-21.1-48.364-39.7-72.463-59.63a142.134 142.134 0 0 0 -98.391-35.04c-61.494 140.5-121.492 295.96-182.82 438.46-10.969 25.25-20.609 47.34-30.913 73.25-8.809 22.08-26.26 52.81-26.26 77.72 33.24 0 142.6-35.04 181.823-46.33 47.7-13.62 49.86-20.43 86.424 49.82l67.644 124.23c6.814 13.29 4.654 15.28 24.431 16.61l90.247-217.74c15.291-38.2 31.246-72.08 46.37-109.61z" fill="#fe4b4a"/><path d="m635.883 292.643c0 4.318-4.986 4.152 16.62 11.46 112.684 37.037 232.68 132.868 270.74 240.824a63.528 63.528 0 0 1 42.666 8.982 63.452 63.452 0 0 1 26.806 34.366c12.965 41.521-13.13 60.289-28.254 79.721-5.152 58.794 14.958 84.537-12.797 190.5-67.976 259.754-312.956 316.394-319.936 324.694 284.202 71.92 565.082-145.99 565.082-443.279a456.229 456.229 0 0 0 -44.56-199.565 456.489 456.489 0 0 0 -127.29-160.093 456.861 456.861 0 0 0 -184.464-88.488 457.028 457.028 0 0 0 -204.613.878z" fill="#ff5f06"/><path d="m833.495 1828.6c6.15 23.75 65.151 156.95 79.943 195.48 5.318 13.46 4.819 16.61 16.62 23.92 20.608-5.48 40.885-60.29 52.187-79.89l31.575-56.3c48.03-83.04 11.3-77.89 239.83-11.13 47.03 13.79 31.58-9.96 5.65-69.92l-158.72-377.68c-6.15-15.61-42.71-112.94-56.18-125.06z" fill="#ff4949"/><path d="m965.126 667.996c15.124-19.432 41.214-38.2 28.254-79.721a63.456 63.456 0 0 0 -26.871-34.425 63.525 63.525 0 0 0 -42.767-8.924 56.048 56.048 0 0 0 -24.754 7.715 55.995 55.995 0 0 0 -18.625 18.029c-11.634 12.456-21.772 22.089-33.24 33.217l-70.469 70.918c-23.268 23.252-124.65 129.713-143.098 138.848-18.615-10.63-69.638-66.434-88.419-85.368a64.155 64.155 0 0 0 -46.308-22.644 64.192 64.192 0 0 0 -48.03 18.722 64.076 64.076 0 0 0 3.925 94.272l132.961 131.872c48.53 45.674 85.759 8.471 113.681-19.432z" fill="#fffefe"/><path d="m801.585 1464.87a978.44 978.44 0 0 0 -60.497 147.16l92.407 215.91 210.905-500.59 1.33-11.79c-62.655-9.3-105.867 38.87-136.78 63.12z" fill="#ef3535"/></g></svg>