<svg width="834" height="195" viewBox="0 0 834 195" fill="none" xmlns="http://www.w3.org/2000/svg">
<path d="M267.938 98.7227C267.938 105.103 267.117 110.868 265.477 116.018C263.836 121.122 261.535 125.679 258.572 129.689C255.656 133.654 252.169 137.072 248.113 139.943C244.057 142.814 239.614 145.184 234.783 147.053C229.952 148.876 224.803 150.243 219.334 151.154C213.911 152.02 208.328 152.453 202.586 152.453C200.444 152.453 198.348 152.408 196.297 152.316C194.246 152.18 192.15 151.997 190.008 151.77L191.922 60.0312C196.935 58.4362 202.085 57.3197 207.371 56.6816C212.703 55.998 217.99 55.6562 223.23 55.6562C229.747 55.6562 235.74 56.6361 241.209 58.5957C246.678 60.5553 251.395 63.3809 255.359 67.0723C259.324 70.7637 262.4 75.2754 264.588 80.6074C266.821 85.9395 267.938 91.9779 267.938 98.7227ZM239.91 103.098C239.956 100.637 239.682 98.2669 239.09 95.9883C238.543 93.7096 237.609 91.7044 236.287 89.9727C235.011 88.1953 233.37 86.7826 231.365 85.7344C229.36 84.6406 226.967 84.0482 224.188 83.957L221.453 126.34C224.188 125.93 226.671 125.041 228.904 123.674C231.137 122.261 233.051 120.552 234.646 118.547C236.287 116.496 237.54 114.24 238.406 111.779C239.318 109.273 239.819 106.698 239.91 104.055V103.098ZM354.617 139.055C352.475 141.743 349.832 144.09 346.688 146.096C343.543 148.101 340.171 149.764 336.57 151.086C332.97 152.408 329.279 153.387 325.496 154.025C321.714 154.709 318.113 155.051 314.695 155.051C308.087 155.051 302.003 153.866 296.443 151.496C290.883 149.126 286.076 145.868 282.02 141.721C278.009 137.528 274.865 132.606 272.586 126.955C270.307 121.304 269.168 115.22 269.168 108.703C269.168 103.736 269.738 98.8822 270.877 94.1426C272.016 89.3574 273.634 84.8685 275.73 80.6758C277.872 76.4375 280.47 72.5638 283.523 69.0547C286.577 65.5 290.04 62.4466 293.914 59.8945C297.788 57.3424 302.026 55.36 306.629 53.9473C311.232 52.5345 316.154 51.8281 321.395 51.8281C323.354 51.8281 325.451 51.9193 327.684 52.1016C329.917 52.2383 332.127 52.5117 334.314 52.9219C336.548 53.2865 338.712 53.8105 340.809 54.4941C342.905 55.1777 344.819 56.0208 346.551 57.0234L344.637 83.1367C342.085 82.1797 339.441 81.5417 336.707 81.2227C334.018 80.8581 331.375 80.6758 328.777 80.6758C325.132 80.6758 321.714 81.2454 318.523 82.3848C315.379 83.4785 312.622 85.0736 310.252 87.1699C307.928 89.2663 306.082 91.8184 304.715 94.8262C303.348 97.834 302.664 101.229 302.664 105.012C302.664 107.382 302.983 109.683 303.621 111.916C304.259 114.104 305.216 116.063 306.492 117.795C307.814 119.481 309.432 120.848 311.346 121.896C313.305 122.945 315.561 123.469 318.113 123.469C319.845 123.469 321.622 123.241 323.445 122.785C325.314 122.329 326.909 121.555 328.23 120.461L328.504 115.129L312.098 114.855L312.918 94.3477C319.708 94.1198 326.499 93.9375 333.289 93.8008C340.079 93.6185 346.915 93.3906 353.797 93.1172L354.617 139.055ZM419.832 116.77L416.961 147.121L359.402 151.633L361.59 54.0156H397.137L392.078 116.77H419.832ZM507.537 100.637C507.537 104.784 507.059 108.794 506.102 112.668C505.145 116.496 503.755 120.096 501.932 123.469C500.154 126.841 497.967 129.94 495.369 132.766C492.817 135.546 489.923 137.938 486.688 139.943C483.497 141.949 480.011 143.521 476.229 144.66C472.446 145.754 468.436 146.301 464.197 146.301C460.096 146.301 456.176 145.777 452.439 144.729C448.748 143.68 445.285 142.222 442.049 140.354C438.813 138.439 435.874 136.161 433.23 133.518C430.633 130.829 428.4 127.867 426.531 124.631C424.708 121.35 423.273 117.84 422.225 114.104C421.222 110.367 420.721 106.47 420.721 102.414C420.721 98.4492 421.199 94.5755 422.156 90.793C423.113 86.9648 424.48 83.3646 426.258 79.9922C428.081 76.6198 430.268 73.5208 432.82 70.6953C435.372 67.8698 438.221 65.4316 441.365 63.3809C444.555 61.3301 447.996 59.735 451.688 58.5957C455.379 57.4564 459.275 56.8867 463.377 56.8867C469.985 56.8867 476.001 57.9121 481.424 59.9629C486.893 62.0137 491.541 64.9531 495.369 68.7812C499.243 72.5638 502.228 77.1667 504.324 82.5898C506.466 87.9674 507.537 93.9831 507.537 100.637ZM477.186 102.414C477.186 100.454 476.889 98.5632 476.297 96.7402C475.75 94.8717 474.93 93.2311 473.836 91.8184C472.742 90.36 471.375 89.1979 469.734 88.332C468.139 87.4206 466.294 86.9648 464.197 86.9648C462.055 86.9648 460.141 87.3522 458.455 88.127C456.769 88.9017 455.311 89.9727 454.08 91.3398C452.895 92.6615 451.984 94.2337 451.346 96.0566C450.708 97.834 450.389 99.7253 450.389 101.73C450.389 103.645 450.662 105.559 451.209 107.473C451.756 109.387 452.576 111.118 453.67 112.668C454.764 114.217 456.108 115.471 457.703 116.428C459.344 117.385 461.235 117.863 463.377 117.863C465.519 117.863 467.433 117.453 469.119 116.633C470.851 115.767 472.309 114.628 473.494 113.215C474.679 111.757 475.59 110.093 476.229 108.225C476.867 106.356 477.186 104.419 477.186 102.414ZM591.893 128.664C591.893 132.447 591.186 135.705 589.773 138.439C588.406 141.174 586.561 143.498 584.236 145.412C581.912 147.326 579.223 148.898 576.17 150.129C573.162 151.314 570.018 152.248 566.736 152.932C563.455 153.615 560.151 154.071 556.824 154.299C553.543 154.527 550.467 154.641 547.596 154.641C544.77 154.641 541.831 154.527 538.777 154.299C535.77 154.117 532.762 153.775 529.754 153.273C526.746 152.772 523.784 152.111 520.867 151.291C517.951 150.425 515.193 149.354 512.596 148.078L512.459 60.0312C515.011 58.9831 517.723 58.0488 520.594 57.2285C523.465 56.3626 526.382 55.6562 529.344 55.1094C532.352 54.5169 535.337 54.084 538.299 53.8105C541.261 53.4915 544.132 53.332 546.912 53.332C550.148 53.332 553.406 53.5371 556.688 53.9473C560.014 54.3574 563.204 55.041 566.258 55.998C569.311 56.9551 572.16 58.2083 574.803 59.7578C577.446 61.2617 579.747 63.1302 581.707 65.3633C583.712 67.5964 585.262 70.194 586.355 73.1562C587.495 76.1185 588.064 79.5365 588.064 83.4102C588.064 85.9622 587.7 88.3548 586.971 90.5879C586.242 92.821 585.193 94.8262 583.826 96.6035C582.459 98.3809 580.796 99.9076 578.836 101.184C576.876 102.414 574.666 103.326 572.205 103.918C575.167 104.693 577.856 105.832 580.271 107.336C582.732 108.84 584.806 110.663 586.492 112.805C588.224 114.947 589.546 117.362 590.457 120.051C591.414 122.74 591.893 125.611 591.893 128.664ZM557.166 89.6992C557.166 88.3776 556.893 87.2611 556.346 86.3496C555.799 85.3926 555.115 84.6178 554.295 84.0254C553.52 83.4329 552.654 83 551.697 82.7266C550.786 82.4531 549.965 82.3164 549.236 82.3164C548.325 82.3164 547.436 82.4531 546.57 82.7266C545.704 83 544.861 83.319 544.041 83.6836L543.631 98.8594C544.679 98.8594 545.978 98.7682 547.527 98.5859C549.077 98.4036 550.558 98.0163 551.971 97.4238C553.429 96.7858 554.66 95.8743 555.662 94.6895C556.665 93.459 557.166 91.7956 557.166 89.6992ZM547.459 111.984C546.137 111.984 544.861 112.121 543.631 112.395L543.357 127.98C544.041 128.117 544.702 128.254 545.34 128.391C546.023 128.482 546.684 128.527 547.322 128.527C548.279 128.527 549.327 128.436 550.467 128.254C551.606 128.026 552.677 127.616 553.68 127.023C554.682 126.385 555.503 125.542 556.141 124.494C556.824 123.446 557.166 122.056 557.166 120.324C557.166 118.592 556.824 117.18 556.141 116.086C555.503 114.992 554.705 114.149 553.748 113.557C552.791 112.919 551.743 112.508 550.604 112.326C549.464 112.098 548.416 111.984 547.459 111.984ZM681.785 147.121L647.879 151.496L643.777 136.047H628.191L624.773 151.496L589.91 148.078L617.117 57.0234L655.125 55.1094L681.785 147.121ZM641.316 115.129L636.121 91.3398L631.062 115.129H641.316ZM743.172 116.77L740.301 147.121L682.742 151.633L684.93 54.0156H720.477L715.418 116.77H743.172ZM816.453 118C816.453 124.243 815.359 129.644 813.172 134.201C811.03 138.713 808.068 142.45 804.285 145.412C800.548 148.329 796.15 150.493 791.092 151.906C786.079 153.273 780.678 153.957 774.891 153.957C772.658 153.957 770.197 153.661 767.508 153.068C764.865 152.476 762.176 151.747 759.441 150.881C756.707 149.969 754.064 149.012 751.512 148.01C749.005 146.962 746.772 145.982 744.812 145.07L747.82 118.273C751.694 120.598 755.978 122.375 760.672 123.605C765.411 124.79 770.06 125.383 774.617 125.383C775.483 125.383 776.531 125.36 777.762 125.314C778.992 125.223 780.154 125.018 781.248 124.699C782.387 124.335 783.344 123.811 784.119 123.127C784.894 122.443 785.281 121.464 785.281 120.188C785.281 119.322 785.008 118.592 784.461 118C783.914 117.362 783.208 116.861 782.342 116.496C781.476 116.086 780.496 115.79 779.402 115.607C778.309 115.38 777.238 115.22 776.189 115.129C775.141 115.038 774.161 114.992 773.25 114.992C772.339 114.992 771.609 114.992 771.062 114.992C767.143 114.992 763.566 114.377 760.33 113.146C757.14 111.916 754.383 110.184 752.059 107.951C749.78 105.673 748.003 102.938 746.727 99.748C745.451 96.5124 744.812 92.9349 744.812 89.0156C744.812 83.638 745.883 78.8301 748.025 74.5918C750.213 70.3079 753.107 66.6849 756.707 63.7227C760.353 60.7148 764.523 58.4134 769.217 56.8184C773.911 55.2233 778.764 54.4258 783.777 54.4258C786.01 54.4258 788.312 54.5169 790.682 54.6992C793.051 54.8359 795.398 55.1094 797.723 55.5195C800.092 55.9297 802.394 56.4538 804.627 57.0918C806.86 57.7298 808.979 58.5273 810.984 59.4844L808.387 87.2383C805.288 86.1901 802.029 85.3242 798.611 84.6406C795.239 83.9115 791.935 83.5469 788.699 83.5469C788.107 83.5469 787.332 83.5697 786.375 83.6152C785.464 83.6152 784.484 83.6836 783.436 83.8203C782.433 83.9115 781.408 84.071 780.359 84.2988C779.311 84.5267 778.377 84.8457 777.557 85.2559C776.736 85.6204 776.076 86.1217 775.574 86.7598C775.073 87.3978 774.845 88.1497 774.891 89.0156C774.936 90.0182 775.301 90.793 775.984 91.3398C776.714 91.8867 777.625 92.2969 778.719 92.5703C779.858 92.7982 781.089 92.9121 782.41 92.9121C783.777 92.9121 785.122 92.8893 786.443 92.8438C787.765 92.7526 788.995 92.6842 790.135 92.6387C791.274 92.5475 792.208 92.5247 792.938 92.5703C796.583 92.7982 799.865 93.5729 802.781 94.8945C805.698 96.2161 808.159 97.9707 810.164 100.158C812.215 102.346 813.764 104.966 814.812 108.02C815.906 111.027 816.453 114.354 816.453 118Z" fill="white"/>
<path d="M139.5 130.5L128 150.5C138.237 144.721 143.085 140.232 150.5 130.5H139.5Z" fill="white"/>
<path d="M110 154.5C119.401 149.008 124.326 144.601 131.5 130.5H116L110 154.5Z" fill="white"/>
<path d="M108.5 130.5H88C89.3033 144.198 91.9075 149.766 98.5 157.5C103.898 150.383 106.379 145.148 108.5 130.5Z" fill="white"/>
<path d="M86.5 154.5L80.5 130.5L66 131.5C70.1542 143.641 75.6667 147.837 86.5 154.5Z" fill="white"/>
<path d="M57.5 130.5C61.525 139.049 64.2799 143.286 69.5 150.5C59.3983 145.145 54.427 140.692 46.5 130.5H57.5Z" fill="white"/>
<path d="M42 123.5C36.8262 114.739 35.538 108.778 35 97H50.5C50.751 108.518 51.8803 114.209 55 123.5H42Z" fill="white"/>
<path d="M78 97H58C58.9508 109.66 60.3899 114.668 63 123.5H79.5L78 97Z" fill="white"/>
<path d="M110 123.5L87.5 123C86.1292 114.254 85.5911 108.804 85.5 97H111.5L110 123.5Z" fill="white"/>
<path d="M139 97H119L117.5 123.5H134.5C137.21 114.462 138.002 108.396 139 97Z" fill="white"/>
<path d="M142 123.5C145.03 114.09 146.246 108.464 146.5 97H162.5C161.315 109.454 159.487 115.032 155 123.5H142Z" fill="white"/>
<path d="M162 89.5C160.989 82.1094 159.299 78.5781 154 73.5C147.553 79.6079 143.234 81.3504 134.5 82L136 89.5H162Z" fill="white"/>
<path d="M69 90L129 89.5C127.563 79.5582 124.658 75.4482 117.5 69.5C100.501 82.9119 92.9837 79.8339 80.5 69.5C71.9712 76.6269 69.7656 81.1831 69 90Z" fill="white"/>
<path d="M63 82L61 89.5H35C35.6886 84.3 36.8225 81.0869 43.5 73.5C49.5727 79.4323 53.5551 81.7777 63 82Z" fill="white"/>
<circle cx="59" cy="59.5" r="12.5" fill="white"/>
<circle cx="137" cy="59.5" r="12.5" fill="white"/>
<circle cx="99" cy="53.5" r="15.5" fill="white"/>
</svg>
