<svg fill="none" height="2048" width="2264" xmlns="http://www.w3.org/2000/svg" xmlns:xlink="http://www.w3.org/1999/xlink"><clipPath id="a"><path d="m0 0h2263.65v2048h-2263.65z"/></clipPath><g clip-path="url(#a)" clip-rule="evenodd" fill-rule="evenodd"><path d="m1096.18 1894.5c6.85-1.3 5.55 3.43 5.38-12.56v-537.65h-10.27c0 4.73-2.29 4.57-8.48 10.77l-.98 1.3-3.59 3.59-12.56 12.4-1.8 1.95-3.59 3.59-4.73 4.73-22.18 22.68-4.24 4.08c-5.06 4.73-4.08-2.45-4.41 6.19h-8.8c0 10.28-1.64-1.46-6.53 8.49h-9.624c-7.503 1.63-1.305-1.31-4.73 4.24h-32.625v-3.75l-14.517-.82v-4.08h-9.462c0-11.42-4.893 2.78-5.383-8.64l-8.482-1.14v-4.9h-5.383l-.979-8.64c-11.582 0 2.447-5.06-8.809-5.39l-.978-8.81h-4.731v-4.89h-4.241v75.85h-3.915v9.95h-4.078l-.979 9.14c-8.482 0 1.631-2.61-12.723 11.09-8.483 8.32-5.873-1.47-6.199 7.83l-9.135.98v4.08h-9.787v4.07h-80.746v-1.63l-47.142-.81-2.447-4.08h-190.2v3.59l-62.313 1.14v3.75h-71.937v-3.59h-9.787v-4.07l-9.135-.82c0-8.32 0-1.79-3.752-5.71-14.844-13.05-7.503-13.05-15.007-13.21l-.979-9.14h-4.078v-9.95h-4.078v-191.5h3.915v-9.95h4.078l.816-9.14c8.319 0 1.794 0 5.709-3.75 13.05-14.68 13.05-7.67 13.213-15.01l9.135-.98v-4.07h9.787v-3.92c19.738 0 13.376 0 16.312-4.4h16.312c14.681 0 9.788 0 12.071-4.08l26.263-1.14c20.88 0 19.575 1.63 19.738-4.08 27.404 0 22.022.98 25.774-4.4 37.518 0 74.872-1.31 112.39-1.31 37.519 0 74.058 1.14 110.923 1.31v3.58l43.065 1.31v.81h19.575c16.312 0 13.539-.97 13.702 4.25h19.901v3.75l19.248.98v3.91h14.355c0-4.08 0-2.77 2.61-5.55 3.589-4.24 0-3.91 5.383-4.07l.979-8.65c8.319 0 2.283 0 4.73-2.45l11.419-11.25 65.248-65.25 5.384-5.38 12.071-11.91 2.936-3.1c4.404-4.24 2.773 3.91 2.936-5.38h4.73v-10.28h-3.914c0-21.04-2.773-10.6-4.731-16.31-.174-3.48-.174-6.96 0-10.44-1.142-13.7-4.241 1.3-4.567-15.34v-9.62c0-20.23 0-12.56-4.241-16.31v-50.244c0-7.504-2.121-10.114 3.751-10.114l1.142-28.872h3.752l.979-19.249h3.751l.816-14.517h3.915l.979-14.192h3.915v-9.951h3.915v-9.787h4.078v-9.461h4.073l.82-9.461h4.08l.81-9.135c11.42 0-2.61-5.057 8.65-5.546l.98-8.809c11.42 0-2.61-5.057 8.64-5.383l1.15-8.809c8.8 0 2.12.001 5.05-3.262l8.16-8.482c1.14-1.305 0 0 1.63-1.958l22.02-22.184 1.14-1.305 8.49-8.319 7.83-7.83 1.79-1.794 2.45-2.284c4.24-4.568-2.45-3.589 5.87-3.752v-4.894c0-4.241 1.3-5.709 1.47-11.581v-10.767-21.532c-16.32 0-30.67-1.142-48.94-1.142h-145.994v-13.213c-29.199 0-54.483-1.141-83.845-1.141h-87.27c0-4.241.979-5.546-1.142-7.178v-21.532c0-5.383 1.142-12.397-1.142-14.518h-.816-.815c-.816 0 0 0 0 0l6.035-1.141v-4.568l-41.922-.979-2.447-3.588h-136.859c-4.078 0-2.936-1.142-2.936 3.751l-38.824.816v3.752l-27.731.816-2.283 3.751-32.624 1.305v3.752l-23.817 1.142v3.752c-20.064 0-13.376 0-16.312 4.893h-37.028v-3.915l-9.135-.978v-4.731h-4.731l-.979-8.809h-4.567v-33.603h3.915l1.142-8.971c1.725.315 3.494.315 5.22 0 3.588-1.142 1.305 0 5.383-4.078s3.099 3.425 3.425-4.894c19.086 0 12.887 0 15.334-4.568 40.943-1.305-3.1-3.588 34.745-5.383 10.113 0 5.383 0 8.319-4.078 5.057 0 13.376.001 18.106-.815 10.603-1.305 1.306 0 6.036-3.263a327.43 327.43 0 0 1 41.27-2.12v-3.752l47.795-1.142v-3.915h140.448v-5.872l53.831-1.305v-30.994h-574.844l-1.141 18.597h-3.915l-.816 24.305h-3.915v1143.648h3.915v10.12c1.468 10.76 0 1.63 3.426 6.03a51.533 51.533 0 0 1 1.957 17.45h3.915v9.79h4.078l.816 9.3c11.255 0-2.61 5.06 8.482 5.55l1.142 8.81c8.319 0 1.794 0 5.546 3.91l20.554 20.06c1.957 1.96 2.12-3.58 2.446 4.57l8.809.98c0 11.42 5.057-2.61 5.383 8.65h9.461v4.07h9.624v-1.95l14.192.97v3.92l19.412.82v3.91h37.028l2.284-3.59 27.405-1.47v-3.75l18.759-1.14v-3.92h14.681v-3.75c17.128-.98 12.723 0 16.312-4.56 22.674-.82 16.312 0 19.085-4.73l27.242-1.31v-3.75l24.305-.98v-3.59c28.709-1.14 25.447 1.31 29.851-4.89l51.221-1.31v-3.59h186.448v4.08l33.767.98v3.75h18.269c14.844.98-2.283 3.75 12.887 4.24l18.106.82c15.334 0 12.398-.82 12.561 4.24l19.412.98v3.75c19.901 0 13.539 0 16.312 4.4l22.51 1.31v3.91c20.554 0 18.597 0 18.76 4.9h10.439v3.75l14.519.98v3.91h14.354v3.92l14.192.98v3.91l14.028.98v3.92h9.951v3.91l13.702 1.14v4.08h9.948v4.08h9.79v4.08h9.62v4.08h9.63v4.07h9.62v4.24h9.46v4.08l9.3.82v4.08h9.3v4.24l9.3.81c0 11.26 5.22-2.77 5.54 8.49h9.14v4.56zm-550.699-1128.315h156.923c1.631 1.794.001 0 1.305 1.958 1.305 1.957-1.468-1.469.979 1.794a194.759 194.759 0 0 1 41.107 1.794c4.73 2.773-3.589 2.447 6.688 2.936l31.156.979c2.121.816 2.284 3.426 2.447 3.752h21.532c17.617.816 14.844 0 14.844 4.404h19.575v3.915c35.234 0-7.503 4.731 38.008 5.709v4.078h5.546v4.568h5.056v4.73h4.405v6.688h4.567v32.625h-4.078l-.979 9.135h-4.73v4.73l-8.972.816v4.241c-6.851 0-13.213.816-20.227 0-18.433 0-12.071 0-14.355-4.404l-27.241-1.305v-3.915c-27.242 0-4.894-4.078-24.142-4.567-9.461 0-19.086-1.142-28.547-1.142v-3.752l-42.901.163v-3.752h-24.631c-11.582-1.142 0-1.957-7.341-3.752h-126.419c-7.667 0-8.809-1.957-8.809 3.752h-32.625l-2.284 3.589-41.759 1.305v3.751c-43.717 0 6.525 4.242-46.816 5.547l-2.447 3.915a56.927 56.927 0 0 0 -17.127 1.794c-3.915 2.284 2.773 2.773-11.582 3.426h-32.625v-3.263l-8.808-.979v-4.73h-4.731l-.978-8.972h-4.568v-33.44h4.241v-5.383h4.568v-4.893h4.894v-4.242h9.624v-3.914l19.085-.98v-3.751c19.901 0 13.376-.001 16.312-4.405 25.611-1.305 20.391 0 23.979-4.893l32.625-1.305v-3.589l38.007-1.305v-3.589l43.391-.978zm-46.49 225.109h25.121c30.177-.816 10.44-1.468 19.411-3.915 6.036-1.631 144.363 0 144.526 0 .164 0 2.121 3.262 2.284 3.589l60.845 1.468v3.588l27.731.979 2.446 3.757h21.533c17.454.81 14.844-.984 14.844 4.24 18.106 0 12.886 0 16.312 4.4l27.078 1.47v3.75h14.845v3.92h9.624c0 8.15-.001 2.77 2.283 4.56l1.469 1.14c12.071 11.1 1.304 8.65 10.439 8.98v32.62h-3.915l-.978 9.14h-4.731v4.56l-8.809.98v4.24h-34.092c-7.177-.98-3.262 0-5.872-4.24l-27.079-1.3v-3.76c-4.128.26-8.269.26-12.397 0-5.22-1.63 0-3.09-7.014-3.91a82.32 82.32 0 0 1 -23.327-1.63c-5.219-3.26 7.341-2.61-19.901-3.43h-22.674l-2.446-3.75c-67.207-.98-132.619 0-199.825 0v3.59l-42.738 1.3v3.76c-24.305 0-16.312 1.46-21.369 4.07l-24.469 1.47c-7.666 0-11.092-1.95-11.255 4.24l-19.248.98v3.75h-43.065c0-4.73 0-1.63-3.915-5.54l-1.305-1.14c-2.284-1.96 0-1.63-4.078-1.8l-.815-8.97h-4.568l.816-33.6c8.156 0 1.957 0 4.404-2.61l.979-1.47c10.277-11.91 8.156 0 8.482-10.28h9.624v-3.91l23.327-1.31v-3.75c9.624 0 13.05 0 15.17-2.61 2.121-2.61-.978.98.979-1.79l27.241-1.31v-3.59l28.71-1.14v-3.751l27.731-.815c1.631-2.61 1.305-4.894 1.631-5.22z" fill="#e8e7e8"/><path d="m.326 612.524v1083.946c0 3.43 0 8.65 1.468 10.77a34.73 34.73 0 0 1 3.1 20.39h3.915l1.142 22.67c6.524 4.08 4.077 5.06 4.73 15.17h3.915v10.28h3.915l1.142 13.86h4.078v9.63h4.078v9.62h6.525v9.3c11.255 0-2.774 5.06 8.482 5.55l.816 9.13h4.24l.98 8.32 4.893 3.92 1.794 1.95c3.59 4.08-1.305 4.24 6.2 4.57l.978 7.99a24.723 24.723 0 0 1 7.34 6.37l21.37 21.69 1.304 1.14 2.937 2.94s1.141 0 1.305 1.14c.163 1.14 1.631-3.91 1.957 4.08l8.645 1.14c0 8.48-.815 1.14 1.958 3.75 7.503 7.83 8.319 2.78 8.483 9.46l8.808 1.15c0 11.09 5.057-2.94 5.546 8.48l9.135.81v4.08l9.298.98v3.91h9.624v4.25h9.625v4.07h9.95v4.08l14.191.98v3.75c5.941-.34 11.897.32 17.618 1.96 4.567 3.1-4.568 1.96 6.035 3.43h9.95v3.91l28.873.98v3.59h65.249c3.1-5.55-2.936-2.77 4.568-4.08h19.574c9.298 0 2.61 0 5.873-2.61 5.872-4.57 11.255 1.3 19.085-4.89.816 0 0-.98 3.426-1.63 3.425-.66 8.482 0 10.603 0v-3.92c30.83 0 10.766-3.42 23.979-5.22 7.014-.98 10.439 0 14.68-3.1a19.473 19.473 0 0 1 10.114-1.79c0-5.88 1.142-4.08 8.809-4.24h15.007v-3.76l32.625-1.3v-3.75l33.766-.98v-3.59h172.583v5.87l38.497.98c0 6.53 2.773 3.75 17.291 4.41 7.83 0 16.312 0 23.816.97 3.262 5.39-2.774 2.45 4.73 3.92h11.256v3.91c7.014 0 14.354 0 21.369.98 11.255 0 2.936 4.41 17.29 4.57 0 6.04 2.448 4.73 18.76 4.89v3.92l18.596 1.3v3.92h14.354v3.91h10.114v3.92l14.192 1.14v6.2l13.702.98v4.08h9.95v3.91h9.788v4.08h9.624v4.08h9.787v4.07h9.298v4.08h9.298v7.34l9.298.82c0 11.09 5.057-2.77 5.546 8.48l9.134.98v4.08l9.14.81c0 11.26 5.22-2.77 5.54 8.65h9.3v3.91l9.79.82v3.91h15.98c3.27.98.82 1.15 3.59 2.94l9.3.98h12.07c.38.54.65 1.15.82 1.79 1.46 2.29 0 0 1.46 1.96h31.65v-3.75l24.14-.98v-3.75l18.27-1.47v-3.91h9.63v-4.25h9.29c0-11.25 5.22 2.61 5.55-8.48l9.14-.98v-4.07l8.48-.98c3.42-7.51 6.03 0 6.36-8.49l9.13-.81v-4.08h9.3v-4.08h9.63v-4.08l9.46-.81v-4.08h9.79v-3.91h9.78v-4.08l13.05-.98c2.45-4.57.98-4.41 10.77-4.57v-4.08l13.21-.97c2.61-4.57.82-4.25 10.93-4.41v-3.91l14.52-.98v-3.92l17.62-1.14c6.19-9.13 5.87-1.14 17.61-4.89 5.22-1.8-1.14 1.14 1.8-1.31 2.93-2.45-1.8-2.77 11.09-2.93v-4.25l26.91-1.46c2.78-4.57-2.77-4.08 16.32-4.24v-3.76l36.7-1.46c4.08-6.04 2.94-3.92 28.71-4.57 25.77-.66 14.68-1.63 22.67-3.92 11.26-3.26 146.81 0 163.94 0l2.45 3.59 32.62.98v3.75l25.29.98c10.6 0 4.89 0 8.97 3.26h.81c.97.17 1.97.17 2.94 0 7.01.82 14.19-.98 19.57 3.1l1.31.98c4.23.95 8.56 1.33 12.89 1.14 7.34 0 1.46 2.29 7.17 4.08 2.61.25 5.23.25 7.83 0 0 5.22-.81 3.92 6.36 4.41h12.4v4.07h14.68c0 5.88 1.15 4.08 8.81 4.41h14.52v3.91l24.47.82v3.59h65.25l2.44-3.92c9.53.41 19.07.09 28.55-.98 6.52-1.3-2.94-4.24 13.7-4.4v-3.92l18.6-1.14v-3.91l14.19-.98v-3.92h9.95v-.49h9.79v-4.07h9.46v-4.08l9.3-.98v-4.08l9.13-.81c0-11.1 5.22 2.93 5.55-8.49l8.81-1.14c0-5.87.97-2.61 5.38-6.52 4.24-3.75 4.4 0 4.57-6.2l7.99-1.14c1.84-3.02 4.15-5.72 6.85-8l4.41-4.07 12.23-11.91c4.89-5.06 8.81-11.75 15.01-14.36l1.14-7.99c6.36 0 2.12 0 5.38-3.92l3.26-3.91c2.29-2.12-3.75-1.63 3.92-1.96l.98-8.81c11.25 0-2.61-5.05 8.64-5.38l.82-9.3h4.24l.82-9.3h3.91v-9.46h4.08v-9.78h3.91v-9.95h3.92l.98-14.2h3.91l.82-14.51h7.83l.98-19.25h3.75l1.3-42.58h3.59v-1081.335c-5.38 0-11.74-9.298-16.31-13.213l-21.7-21.369c-.97-1.468-.97 0-1.14-3.752h-9.46c0-8.971 0-1.794-1.63-4.404l-6.36-5.546c-2.12-2.61-1.47 4.568-1.63-4.404h-9.63l-8.97 1.141c0 4.568 0 2.284-3.1 5.221l-16.31 16.312-4.24 4.241-28.22 28.22-6.04 5.873-1.14 1.142-1.79 1.957c-8.32 8.482 2.61 5.709-8 6.199l-.98 8.319v1057.028c-5.38 3.27-3.91-2.44-5.05 20.39h-4.73l-.82 14.2h-4.08v9.78h-4.07l-.82 9.3c-11.09 0 2.94 5.06-8.48 5.55l-.98 8.81c-7.67 0 0-1.64-10.77 9.29l-6.03 6.04-6.69 6.52h-.82c-3.1 2.78-2.77-3.26-3.1 5.22l-8.8.98c0 11.26-5.06-2.77-5.39 8.48l-9.46.82v4.08h-9.62v4.57l-14.19.98v3.75h-15.01v3.75c-18.48 1.13-37.02.86-55.46-.82-3.75-2.44 6.36-3.42-16.32-3.75v-3.91c-5.45-.04-10.9-.42-16.31-1.15-4.89-1.46 0-4.07-12.88-4.24v-3.91l-19.09-.98v-3.75l-19.08-.98v-3.75l-23.82-1.14v-3.76l-28.55-1.14v-3.75l-32.62-1.14v-2.94l-46.82-1.3-2.44-3.59h-171.12v4.24l-43.23 1.14v3.59l-32.62 1.14v3.75l-23.98.98v3.75l-27.24 1.31c-3.26 4.89 1.47 3.59-16.31 4.4v3.75l-22.35 1.31c-6.2 9.3-5.71.98-17.62 4.89-5.06 1.8.98-.97-1.79 1.31l-2.29 2.12c-2.75.82-5.62 1.15-8.48.98v3.91l-14.52.82v3.91l-14.35.98v3.75l-14.03 1.15v3.91l-14.03.98v3.91h-10.11v4.08l-13.7 1.14v3.92h-9.96v4.08h-9.62v4.08h-9.79v4.07h-9.62v4.08h-9.46v4.24h-9.46v4.08h-9.3v4.08h-9.14v4.24h-8.8c-4.57 9.79-5.88-1.47-6.2 8.65h-8.97c0 11.25-5.06-2.78-5.55 8.64h-8.97v-5.06l-5.22.82v1.96h-9.14c0-11.26-5.05 2.77-5.54-8.49l-9.3-.81v-4.24h-9.3v-4.08l-9.3-.82v-4.07h-9.46v-4.24h-9.62v-5.88h-9.63v-4.08h-9.62v-4.07h-9.79v-4.08h-9.949v-4.08l-13.702-1.14v-3.92h-9.951v-3.91l-14.028-.98v-3.91l-14.192-.98v-3.92h-14.355v-3.91l-14.518-.98v-3.75h-10.439c0-4.73 1.794-4.73-18.76-4.9v-3.91l-22.51-1.31c-2.284-4.08 4.078-4.24-16.313-4.4v-3.75l-19.411-.98c0-5.06 2.773-3.59-12.561-4.24l-18.106-.82c-15.171 0 1.957-3.26-12.887-4.24h-18.27v-9.3l-33.766-.98v-3.59h-186.449v3.59l-51.22 1.31c-4.405 6.2-1.142 3.75-29.851 4.89v3.59l-24.305.98v3.75l-27.242 1.31c-2.773 4.56 3.589 3.91-19.085 4.73-3.099 5.05 1.305 3.58-16.312 4.56v3.76h-14.682v4.73l-18.759 1.14v3.75l-27.404 1.47-2.284 3.59h-37.029v-3.92l-19.411-.81v-3.92l-14.192-.98v-3.91h-9.624v-4.08h-9.461c0-11.26-4.894 2.77-5.383-8.65l-8.809-.97c0-8.16 0-2.61-2.447-4.57l-20.553-20.07c-3.752-4.24 2.773-3.75-5.546-3.91l-1.142-8.81c-11.093 0 2.773-5.22-8.482-5.55l-.816-9.29h-4.078v-9.79h-3.915a51.567 51.567 0 0 0 -1.958-17.46c-3.099-4.4-1.957 4.74-3.425-6.03v-10.11h-3.915v-1143.654h.326l.816-24.305h3.915l1.141-18.597h3.916v-4.893h-9.788v4.893h-14.355v4.731h-9.624v4.731h-8.645v4.893h-9.624c0 12.071-4.568-2.61-4.731 9.461h-9.624v4.894h-9.624c0 12.071-4.568-2.61-4.731 9.461h-9.624c0 12.234-4.568-2.447-4.73 9.624h-9.625c0 8.809 1.305 1.468-2.936 5.383l-3.752 3.426c-1.957 2.61-1.305-4.568-1.63 4.404h-10.93c0 4.078 0 3.1-6.036 8.483l-26.588 25.61c-2.447 2.447-1.63 3.426-6.035 3.589l.652 4.73z" fill="#fc5c70"/><path d="m1497.63 334.89v4.568c-9.47 0-1.31-.816-4.25 1.794l-17.12 17.454-6.04 6.035-31.16 30.994-13.7 13.702-8.97 8.972-8.97 8.971-13.7 13.866-8.97 8.972-3.43 3.588-9.62 9.625-29.86 29.851-16.31 16.312-6.03 6.035-13.87 13.703-26.43 26.263-3.42 3.588-8.32 8.482-4.73 4.731-8.32 8.32-5.87 6.035-16.31 16.312-8.98 9.135-6.03 6.035-6.53 6.525-15.49 16.312-18.6 18.433-1.14 1.306-5.87 5.872-1.96 1.794-2.45 2.447-5.38 5.383c-2.45 2.61-2.28 4.078-6.69 4.078v9.624c9.3 0 1.47 0 4.24 1.795l9.46 9.624 1.15 1.305 23.97 23.979 13.87 13.702 6.69 6.525 1.63 1.958 6.03 5.872 17.3 17.291 8.97 8.972 7.34 7.014 1.63 1.957 22.35 22.022 1.63 1.794 28.71 28.71 4.24 4.241 24.63 24.631 1.96 1.795 1.14 1.304 5.87 5.873 1.8 1.794c1.3 1.142 0 0 1.79 1.795l42.41 42.412 26.92 26.915 1.79 1.794 93.47 93.309 11.26 11.58 30.66 30.5 4.24 4.08c2.94 3.26-2.44 3.43 5.71 3.59v4.4h4.57c0-6.52-.98 0 9.79-11.74l8.97-8.97 8.97-8.97 6.04-6.04 9.62-9.62 27.41-27.74 25.12-24.95 1.14-1.31 1.3-1.14 6.04-5.872 92.16-92.165 26.27-26.262 18.59-18.596 10.77-10.766 1.96-1.631 13.05-13.213 6.52-6.525 8.32-8.319 13.21-13.05c1.31-1.142 0 0 1.8-1.958l13.21-13.049 9.13-8.972 18.6-18.596 9.14-8.972 18.59-18.432 22.84-22.675 15.01-14.844 1.79-1.794 31.65-31.809 7.17-7.177 17.46-17.291c2.61-2.61 5.05-3.426 6.36-6.851v-5.383l8.64-1.142.98-8.319c10.61 0 0 2.283 8-6.199l1.79-1.957 1.14-1.142 6.04-5.873 28.22-28.22 4.24-4.241 16.31-16.312c2.94-2.937 2.94-.001 3.1-5.22l8.97-1.142v-4.241c4.08 0 2.29 0 3.75-1.142a193.703 193.703 0 0 0 16.32-17.454l1.3-1.142 1.31-1.142c.29-.506.67-.95 1.14-1.305l1.14-1.142c0-.815 0 0 1.3-1.142l1.15-1.304c.34-.421.72-.804 1.14-1.142l1.14-1.306 1.31-1.141 1.14-1.142 1.14-1.305 1.3-1.142 1.15-1.142 1.3-1.142a4.44 4.44 0 0 1 1.14-1.304l22.68-22.675 1.14-1.304 1.3-1.142 1.15-1.142 7.17-7.341c7.51-7.829 2.61-6.362 8.98-6.525v-9.461c12.23 0-2.62-4.567 9.62-4.893v-9.462c12.07 0-2.61-4.567 9.46-4.893v-9.461h4.89v-9.625h4.73v-9.624h4.73v-14.355h4.9v-12.56h4.73v-38.334h4.73v-9.624h-4.73v-43.39h-4.73v-14.355h-4.9v-14.355h-4.73v-14.355h5.22v-9.461c-12.23 0 2.61-4.567-9.62-4.893v-9.462c-12.07 0 2.61-4.567-9.62-4.893v-9.788c-3.92 0-2.12 0-3.59-1.142l-5.39-5.382-1.14-1.306-8.32-8.318-1.14-1.306-37.19-37.028-10.6-10.766-27.57-26.916c-.34-.42-.72-.803-1.14-1.141l-16.32-16.313-4.07-4.241-47.31-47.142c-7.67-7.504-6.36-2.773-6.52-9.135h-9.47c0-12.071-4.56 2.61-4.89-9.461h-9.46c0-12.235-4.57 2.61-4.89-9.625h-14.36v-6.524h-12.07v-4.894h-14.52v-4.73h-19.08v-4.731h-86.13v4.73h-14.36v4.731h-14.35v4.894h-14.68v4.73h-9.63v4.73h-9.46c0 12.235-4.56-2.446-4.89 9.625h-8.65c0 6.688 0 1.957-9.13 11.419l-1.14 1.142-1.14 1.142c-3.1 2.936-2.78-3.263-2.94 5.382h-9.62c0 8.809 0 2.773-3.59 6.036l-16.32 16.312-1.95 1.795-1.15 1.142-1.95 1.794-4.24 4.078-2.94 2.936-20.39 20.39-1.14 1.142-19.09 19.248-6.52 6.525a7.2 7.2 0 0 0 -1.14 1.142l-9.47 9.624-5.38 5.384-1.3 1.142-9.95 9.95-40.13 40.128-12.4 12.723-1.96 1.632-8.32 8.482-1.63 1.794-13.21 13.05c-.29.506-.68.95-1.14 1.305l-10.77 10.766c-1.14 1.305 0 0-1.79 1.794l-14.36 14.355-44.86 45.022-12.56 12.071c-3.1 3.099-3.42 5.709-8.48 5.872z" fill="#80e0b4"/><path d="m2043.6 642.376c7.66 0 4.73 6.688 4.73 27.567v507.307c-26.27 0-248.11-1.46-253.33.82l-.82 3.75h15.17v3.75l19.09.98v3.92h9.46c0 7.99 0 2.77 2.28 4.56l1.47 1.15c.64.61 1.24 1.26 1.79 1.95l2.94 3.1c2.77 3.43-3.26 2.94 5.22 3.26v32.63h-3.91l-.98 8.97h-4.73v7.83h-9.3v4.73l-42.9-1.14v-3.59c-20.07 0-13.54 0-16.32-4.4-24.79 0-20.55 0-23.97-4.73-40.62-.98-12.4-4.41-29.86-4.9l-33.6-.98h-10.93c-6.2 0-5.05 0-5.22-3.91h-20.88c-20.22 0-9.3-1.96-16.31-3.75-7.01-1.8-111.09 0-121.04 0v3.59h-29.36c-19.74 0-23.16-1.96-23.32 4.24h-20.23c-5.38 0-3.92-1.14-4.08 3.91l-14.19.98c0 9.95-1.63-1.3-6.36 8.32l-12.56 1.3v4.08h-9.79v4.08h-10.11v3.92l-14.2.97v3.92l-18.76 1.14v3.75l-19.24.98v3.75h-16.32c-10.76 0-6.52 0-9.62 3.92h-57.42c-15.01 0-12.23 0-12.23-4.08h-20.07v-3.75l-23.49-1.31v-3.75h-10.44v-4.08h-14.03v4.9c-4.73 0-10.6 8.15-14.35 12.07l-2.61 2.45-4.89 4.89-1.15 1.3-6.68 6.53-6.04 6.03-5.38 5.39-13.05 13.05-7.18 7.17c-3.75 3.92 2.77 3.27-6.2 3.43v4.73h5.71v537.32c0 16.32 1.47 11.26-5.38 12.57v5.05h8.97c0-11.42 5.22 2.61 5.55-8.64h8.97c0-10.12 1.63 1.14 6.2-8.65h8.8v-4.24h9.14v-4.08h9.3v-4.08h9.46v-4.24h9.46v-2.61h9.62v-4.07h9.79v-4.08h9.63v-4.08h9.95v-3.92l13.7-1.14v-4.08h10.11v-3.91l14.03-.98v-3.91l14.03-1.15v-3.75l14.35-.98v-3.91l14.52-.82v-3.91c2.86.17 5.74-.16 8.48-.98l2.29-2.12c2.77-2.29-3.26 0 1.79-1.31 11.91-3.91 11.42 4.41 17.62-4.89l22.35-1.31v-3.75c17.45 0 12.72 0 16.31-4.4l27.24-1.31v-3.75l23.98-.98v-3.75l32.62-1.14v-7.18l43.23-1.14v-4.24h171.12l2.44 3.59 46.82 1.3v3.59l32.62 1.14v3.75l28.55 1.15v3.75l23.82 1.14v3.75l19.08.98v3.75l19.09.98v3.92c12.23 0 7.99 2.77 12.88 4.24 5.41.72 10.86 1.11 16.32 1.14v3.91c22.02 0 11.9 1.31 16.31 3.76 18.44 1.67 36.98 1.95 55.46.81v-3.75h15.01v-3.75l14.19-.98v-4.08h9.62v-4.08l9.46-.81c0-11.26 4.9 2.77 5.39-8.48l8.81-.98c0-8.49 0-2.45 3.09-5.22h.82l6.69-6.53 6.03-6.03c11.1-10.93 3.1-8.98 10.77-9.3l.98-8.81c11.42 0-2.61-5.22 8.48-5.55l.82-9.29h4.08v-9.79h4.07l.82-14.19h3.91c1.15-22.84 0-16.32 5.06-20.39v-1057.036l-8.65 1.142zm-549.07 740.414c7.66-1.14 1.46 1.3 4.73-4.24h151.54v3.58l42.25.98 2.28 3.59 26.43.82c21.04 0 19.57-1.31 19.57 4.4l24.31.98v3.75c23 0 9.78 3.92 20.55 4.57 22.67 1.63 16.31-1.63 19.25 4.57l22.51 1.3v3.75l9.79.82c0 8.16 0 1.96 3.75 5.55l4.73 4.89c4.4 5.06-2.45 3.75 6.03 3.91l-.81 37.36c-8 0 0-1.47-5.87 4.73l-1.8 1.79-1.79 1.8c-6.2 5.87-4.24-2.45-4.57 6.03-8.97 0-16.31 1.47-25.94 1.15-9.62-.33-17.29-1.15-25.77-1.31v-3.75h-13.7c-2.12-.98-2.12-3.43-2.45-3.75l-31.81-1.47v-3.75l-28.87-.98v-3.59l-38.34-1.14v-3.59c-52.68 0-102.76-1.63-155.78 0-40.61 0-11.42 2.94-26.26 4.24h-31.16c-18.59 0-25.61-1.79-25.77 4.57h-18.6c-1.46 1.63 0 0-1.3 1.96-3.43 5.38 1.3-1.31-.98 1.79l-28.71 1.31c-3.91 0-2.93-1.15-2.93 3.75l-19.42.98v4.24h-39.15v-4.08l-8.8-.98v-4.73h-4.57l-.98-9.14h-4.57l.82-32.62c8.32 0 0 1.47 5.38-4.08l6.04-6.03c1.79-1.63 2.28 3.75 2.44-4.41h9.63v-3.91l23.32-1.31v-3.75c9.46 0 12.89 0 15.01-2.61s0 .98.98-1.79l27.4-1.31v-3.75c6.24.78 12.57.28 18.6-1.47 5.22-3.1-3.26-2.28 5.38-3.1l47.47-1.47v-3.58z" fill="#dfdfdf"/><path d="m1099.93 731.93v4.893c-8.32 0-1.63-.815-5.87 3.752l-2.45 2.284-1.79 1.794-7.83 7.83-8.48 8.319-1.14 1.305-22.68 23.816c-1.47 1.468 0 0-1.63 1.957l-8.16 8.483c-2.93 3.426 3.76 2.936-5.05 3.262l-1.14 8.809c-11.26 0 2.77 5.057-8.65 5.383l-.98 8.809c-11.25 0 2.77 5.219-8.64 5.546l-.82 9.134h-4.08l-.81 9.462h-4.08v9.461h-4.89v9.787h-3.919v9.95h-3.916l-.978 14.192h-3.915l-.816 14.518h-3.752l-.978 19.248h-3.752l-1.142 28.873c-5.873 0-3.752 2.61-3.752 10.114v50.239c4.568 3.1 3.589-4.57 4.241 16.31v9.63c0 16.31 3.426 1.63 4.568 15.33-.174 3.48-.174 6.96 0 10.44 1.958 6.2 4.241-4.24 4.73 16.31h3.916v10.28h4.078l.978 13.87h4.409v9.78h4.07v9.63h4.08l.82 9.3h4.07l.82 9.29c11.42 0-2.61 5.06 8.65 5.39l.98 8.97c6.85 0 .97 0 9.29 8.64 2.12 1.96-3.59 1.47 3.92 1.8l1.14 8.64c8.81 0 .98-1.3 5.06 3.27l3.59 3.75 4.24 4.08 12.07 12.07 2.93 3.1 8.65 8.15c4.24 3.92 2.94 0 3.26 5.06l8.65.98c0 7.67 0 1.96 1.79 4.08l6.69 5.38c2.12 2.12 1.63-3.75 1.96 3.75l8.81.98c0 11.42 5.05-2.61 5.54 8.65h9.14v4.24h9.46v9.62h9.46v4.08h9.95v4.08l13.7 1.14v4.08h14.03v4.08h10.44v3.75l23.49 1.3v3.75h20.06c0 4.9-2.77 3.76 12.24 4.08h57.42c3.1-4.57-1.15-3.75 9.62-3.91h16.31v-3.75l19.25-.98v-3.76l18.76-1.14v-3.91l14.19-.98v-3.92h10.12v-4.07h9.78v-3.92l12.56-1.3c4.73-9.63 6.04 1.63 6.37-8.32l14.19-.98c0-5.06-1.31-3.26 4.07-3.92v-5.22c3.76 0 2.61 0 5.55-2.12 6.53-5.54 5.06-3.75 5.06-6.69l8.81-1.14c0-9.46-1.31-.81 4.4-6.2l4.41-3.91 1.63-1.8 2.61-2.28 6.03-5.87c6.2-6.04 4.08 2.77 4.41-6.2l7.83-1.31c1.14-2.77 0-1.14 1.79-3.42l26.43-26.26c3.75-3.43 5.38-6.2 10.6-7.34l2.61-5.88 2.28-2.44 6.53-6.53 10.11-12.88v-4.41c-8.16 0-2.77 0-5.71-3.59l-4.24-4.08-30.67-30.5-11.25-11.58-87.11-98.038-1.79-1.794-26.92-26.915-42.41-42.412c-1.3-1.142 0 0-1.79-1.794l-1.8-1.795-5.87-5.872-1.14-1.305-1.96-1.794-24.63-24.632-4.24-4.241-28.71-28.71-1.63-1.794-22.35-22.021-1.63-1.958-7.34-7.014-8.98-8.972-17.29-17.291-6.03-5.872-1.63-1.958-6.69-6.525-13.87-13.702-23.98-23.979-1.14-1.305-9.46-9.624c-2.77-2.447 5.06-1.468-4.24-1.794v-4.568h-5.06c0 7.993 0 2.774-2.12 4.731l-8.48 8.319-8.32 8.319c-3.91 3.915-1.96 0-5.22 6.362z" fill="#77718c"/><path d="m162.307 502.416v4.894h572.396v30.994l-53.831 1.304v5.873h32.625v3.751l47.631 1.142v3.752l37.029 1.305c1.631 2.773-1.305 3.752 9.625 4.078h14.354a4.408 4.408 0 0 0 2.447 3.915l21.532.979c3.262 5.383-2.936 2.447 4.567 3.915 3.748.251 7.508.251 11.256 0v3.915l18.759.978c0 8.483 0-1.141 13.376 14.845 3.915 4.73-2.447 3.752 5.546 3.915v32.624c-9.298 0 0-2.121-8.156 6.362l-7.34 7.014c-4.731 3.915-3.752-2.773-4.078 5.383h-28.384c-19.085-.815 2.61-4.567-23.978-4.894v-3.914l-19.739-.816c0-4.73 1.306-3.426-3.914-3.915l-33.767-3.752c-2.61-3.751-29.362-2.447-32.624-1.305l-6.036 1.142h1.632c2.283 2.121 1.142 9.135 1.142 14.518v21.532c2.12 1.631 1.141 2.936 1.141 7.177h87.271c29.362 0 54.646 1.142 83.845 1.142v13.213h145.996c17.61 0 31.32 1.142 48.93 1.142v-228.371h-5.22v-1.631h-9.62c0-12.234-4.57 2.61-4.73-9.624h-9.62v-4.731h-9.63v-4.731h-9.46v-4.893h-9.62c0-12.071-4.57 2.61-4.73-9.461h-9.63v-4.894h-9.62v-4.731h-14.36v-4.73h-9.458v-4.894h-9.625v-4.73h-14.354v-4.731h-9.625v-4.893h-14.354v-4.731h-14.355v-4.894h-14.355v-4.893h-14.355v-4.731h-14.355v-4.894h-19.085v-4.73h-19.248v-4.731h-19.412v-4.893h-23.979v-4.731h-28.709v-3.915h-38.171v-4.893h-47.958v-4.731h-133.597v4.731h-52.689v4.893h-33.766v4.731h-28.709v4.73h-23.979v4.894h-23.979v4.731h-19.086v4.73h-13.539v4.894h-19.248v3.915h-14.355v4.73h-15.334v4.894h-14.354v4.73h-9.461v4.894h-14.355v4.731h-9.624v4.73h-14.355v4.894h-9.624v4.73h-9.788c0 12.071-4.567-2.61-4.893 9.625h-9.461c0 3.915-.001 2.12-1.142 3.588l-31.156 30.993c-2.447 2.61-1.632 3.589-6.036 3.589v9.624c-12.235 0 2.61 4.568-9.624 4.731v9.624h-4.731v9.624h-4.73z" fill="#e9e9e9"/><path d="m1555.37 1128.81-10.11 12.88-6.53 6.53-2.28 2.44-2.61 5.88c19.32-1.51 38.71-1.78 58.07-.82h57.75v3.75l60.68 1.31c3.1 4.4-3.27 3.59 30.01 4.73v6.85l28.55 1.14v3.75l29.03 1.31c5.22-2.29 227.07-.82 253.33-.82v-507.797c0-20.879 2.94-27.241-4.73-27.568-1.3 3.426-3.75 4.241-6.36 6.851l-20.39 17.455-7.18 7.177-33.11 33.44-1.8 1.794-15 14.845-22.84 22.673-18.6 18.433-9.13 8.972-18.6 18.596-9.13 8.971-13.21 13.051c-1.8 1.794 0 .815-1.8 1.957l-13.21 13.05-8.32 8.319-6.53 6.525-13.05 13.213-1.95 1.631-10.77 10.766-18.6 18.596-26.26 26.263-92.16 92.167-6.04 5.87-1.3 1.14-1.14 1.31-25.13 24.95-27.4 27.73-9.62 9.63-6.04 6.03-8.97 8.98-8.97 8.97c-10.77 11.25-9.46 5.22-9.79 11.74z" fill="#e1e1e1"/><path d="m899.782 1378.71v-9.46c-11.418 0 2.774-5.06-8.645-5.39l-.815-8.97c-8.483 0 0 1.96-5.546-4.07l-3.753-4.57c-2.283-2.29 3.752-1.63-3.914-1.96l-.816-9.13h-4.242l-.978-8.98c-11.256 0 2.61-5.38-8.319-5.71l-1.142-13.7h-4.078c0-13.05-1.794-7.5-3.915-11.91a417.12 417.12 0 0 1 0-45.34h3.752l.815-14.68h4.079v-14.36h-8.809v-3.91l-19.249-.98v-3.76h-19.9c0-5.21 2.61-3.58-13.703-4.24h-19.575v-3.58l-43.064-1.31v-3.59c-36.865 0-73.894-1.3-110.923-1.3s-74.873.98-112.391 1.3c-3.752 5.38 1.631 3.59-25.774 4.41 0 5.7 1.142 3.42-19.737 4.07l-26.263 1.15c-2.284 3.42 2.61 3.75-12.071 4.07h-16.312c-2.447 3.92 3.915 4.08-16.312 4.41v3.91h-9.788v4.08l-9.135.98c0 7.34 0 0-13.213 15.01-3.915 4.4 2.61 3.59-5.709 3.75l-.815 9.13h-4.078v9.95h-3.915v191.51h4.078v9.95h4.078l.979 9.14c7.503 0-.001 0 15.007 13.21 4.404 3.91 3.588-2.61 3.752 5.71l9.134.81v4.24h9.788v3.92h71.937v-3.92l62.312-1.14v-3.59h190.201l2.446 4.08 47.143.82v3.59h80.746v-3.76h9.787v-4.07l9.134-.98c0-9.3-2.283 0 6.199-7.83 14.355-13.7 4.241-10.77 12.724-11.09l.978-9.14h4.078v-9.95h3.916zm-330.322-62.15h110.107v3.75l28.873.98v3.75l23.653 1.14v3.76h9.951v5.54h5.056v4.73h4.568v5.06h4.404v9.95h3.915v18.76h-3.915v9.95h-4.404v5.06h-4.568v4.56h-5.056v4.24h-9.951v3.92h-8.646c-16.312 0-13.702 0-13.702-4.24h-19.575v-3.75h-27.73c-2.121-.98-2.121-3.43-2.284-3.75h-74.873v3.58h-23.327l-2.446 3.75c-31.483 0-10.44 4.08-23.653 4.9-20.064 1.3-22.185 1.47-22.185-4.41h-5.872v-4.07l-8.646-1.15-1.142-8.64h-4.078v-9.79h-3.915v-19.41h3.752v-9.79h4.405v-5.05h4.567v-4.41h5.22v-4.24l14.192-.81v-3.76l19.411-.98v-3.75l28.709-.98z" fill="#35d199"/><path d="m1101.24 459.352v260.669c0 5.873-1.8 7.341-1.47 11.582h4.4c3.27-6.035 1.31-2.447 5.22-6.362l8.32-8.319 8.49-8.319c1.95-1.957 1.95 3.262 2.12-4.731h5.05v-5.056c4.41 0 4.24-1.469 6.69-4.078l5.38-5.383 2.45-2.448 1.96-1.794 5.87-5.872 1.14-1.305 18.6-18.433 15.5-16.312 6.52-6.525 6.04-6.035 8.97-9.135 16.31-16.312 5.87-6.036 8.32-8.319 4.73-4.731 8.32-8.482 3.43-3.589 26.42-26.263 13.87-13.702 6.03-6.035 16.32-16.313 29.85-29.851 9.62-9.624 3.43-3.589 8.97-8.972 13.7-13.865 8.97-8.972 8.97-8.972 13.71-13.702 31.15-30.993 6.04-6.036 17.13-17.454c2.93-2.61-5.22-1.631 4.24-1.794v-4.567h-37.85v4.893h-38.33v4.731h-9.46v4.731h-23.98v4.893h-19.09v4.731h-19.24v4.73h-19.25v4.894h-14.36v-13.866h-14.35v4.731h-14.36v4.894h-14.35v4.73h-14.36v4.894h-9.62v4.73h-14.36v4.731h-9.46v4.894h-8.97v4.73h-9.62v4.731h-14.36v4.893h-9.62c0 12.071-4.41-2.61-4.73 9.461h-9.63v4.894h-9.46v4.73h-9.62v4.731h-9.63c0 12.234-4.4-2.61-4.73 9.624h-9.62v4.731z" fill="#e1e1e1"/><path d="m860.959 1221.3v14.35h-4.078l-.815 14.68h-3.752a417.304 417.304 0 0 0 0 45.35c2.12 4.4 3.752-1.14 3.915 11.91h4.078l1.142 13.7c10.929 0-2.936 5.22 8.319 5.71l.979 8.97h4.241l.815 9.14c7.667 0 1.631 0 3.915 1.95l3.752 4.57c4.894 6.04-2.936 3.75 5.546 4.08l.816 8.97c11.419 0-2.773 4.89 8.646 5.38v9.47h4.24v4.89h4.731l.979 8.81c11.255 0-2.773 5.05 8.809 5.38l.978 8.65h4.731v4.89l8.482 1.14c0 11.42 5.057-2.77 5.383 8.65h9.461v4.07l14.518.82v3.75h32.624c3.426-5.54-2.773-2.61 4.731-4.24h9.625c4.89-9.95 6.2 1.8 6.52-8.48h8.81c0-8.65 0-1.47 4.41-6.2l4.24-4.08 17.29-17.45 4.73-4.73 3.59-3.59 1.79-1.96 12.56-12.4 3.59-3.58.98-1.31c6.2-6.2 8.32-6.04 8.48-10.77h4.57v-4.73c8.97 0 2.45 0 6.2-3.42l7.18-7.18 13.05-13.05 5.38-5.38 6.03-6.04 6.69-6.52 1.14-1.31 4.9-4.89 2.61-2.45c3.75-3.91 9.62-11.91 14.35-12.07v-8.97l-13.7-1.14v-4.08h-9.95v-16.64h-9.46v-4.24h-9.46v-4.24h-9.14c0-11.26-5.22 2.77-5.54-8.65l-8.81-.98c0-7.5 0-1.63-1.96-3.75l-6.69-5.38c-1.95-2.12-1.63 3.59-1.79-4.08l-8.65-.98c0-4.56.98-1.14-3.26-5.05l-8.64-8.16-2.94-3.1-12.07-12.07-4.24-4.08-3.59-3.75c-4.08-4.57 3.75-2.94-5.06-3.26l-1.14-8.65c-7.5 0-1.79 0-3.92-1.79-8.31-8-2.44-8.32-9.29-8.65l-.98-8.97c-11.26 0 2.77-5.06-8.65-5.38l-.81-9.3h-4.08l-.82-9.3h-4.075v-9.62h2.615v-9.79h-4.083l-.979-13.87h-8.808c0 9.3 1.468 1.15-2.936 5.39l-2.937 3.1-12.071 11.9-5.383 5.39-65.249 65.25-11.418 11.25c-2.447 2.61 3.589 2.12-4.731 2.45l-.978 8.64c-4.568 0-1.795 0-5.384 4.08-2.446 2.78-2.446 1.47-2.61 5.55l-12.234 1.47z" fill="#80dcb5"/><path d="m498.991 991.294s0 2.61-2.447 3.752l-27.73.815v3.752l-28.71 1.147v3.58l-27.242 1.31c-1.957 2.77 2.284-3.26-.978 1.79-3.263 5.06-5.546 2.12-15.171 2.61v3.75l-23.326 1.31v3.91h-9.624c0 9.47 1.794-1.63-8.483 10.28l-.978 1.47c-2.447 2.77 3.752 2.28-4.405 2.61l-.815 33.6h4.567l.816 8.97c4.567 0 1.794 0 4.078 1.8l1.305 1.14c3.915 3.92 3.752 0 3.915 5.55h43.064v-3.75l19.248-.98c0-6.2 3.589-3.92 11.256-4.25l24.468-1.46c5.709-2.61-2.936-3.92 21.369-4.08v-3.75l42.739-1.31v-3.59c67.206 0 132.618-.81 199.824 0l2.447 3.76h22.674c27.241.81 14.681 0 19.901 3.42a82.314 82.314 0 0 0 23.326 1.63c6.851.82 1.795 2.29 7.015 3.92 4.128.25 8.268.25 12.397 0v3.75l27.078 1.3c2.61 4.24-1.305 3.27 5.873 4.25h34.092v-4.25l8.809-.97v-4.57h4.73l.979-9.14h3.915v-32.62c-9.135 0 1.631 2.12-10.44-8.97l-1.468-1.15c-1.794-1.79-2.12 3.59-2.283-4.56h-9.625v-3.92h-14.844v-3.75l-27.078-1.47c-3.263-4.89 1.957-3.59-16.312-4.4 0-5.222 2.609-3.43-14.845-4.243h-21.532l-2.447-3.752-27.731-.979v-3.588l-60.844-1.468s0-2.773-2.284-3.589-138.49-1.142-144.526 0c-8.972 2.447 10.766 3.099-19.411 3.915h-25.121m965.844 393.614v3.59l-47.47 1.47c-8.64 0 0 0-5.38 3.1a46.36 46.36 0 0 1 -18.6 1.46v3.76l-27.4 1.3c-1.79 2.77 2.12-3.1-.98 1.8-3.1 4.89-5.54 2.12-15.01 2.6v3.76l-23.32 1.3v3.92h-9.63c0 8.15 0 2.77-2.44 4.4l-6.04 6.04c-4.73 5.54 2.94 3.75-5.38 4.07l-.82 32.63h4.57l.98 9.13h4.57v4.73l8.8.98v4.08h39.15v-4.24l19.42-.98c0-4.89-.98-3.1 2.93-3.75l28.71-1.31c2.29-3.09-2.45 3.59.98-1.79 1.31-2.12 0 0 1.31-1.96h18.59c0-6.36 7.18-3.91 25.77-4.56h31.16c14.84-1.31-14.35-3.59 26.26-4.25 53.02-.97 103.1 0 155.79 0v3.59l38.33 1.14v3.59l28.87.98v3.75l31.81 1.47s0 2.78 2.45 3.75h13.7v3.76c8.48 0 17.13.97 25.77 1.3 8.65.33 16.32-.82 25.94-1.14 0-8.48-1.63 0 4.57-6.04l1.79-1.79 1.8-1.8c5.7-6.19-2.13-4.4 5.87-4.73l.81-37.35c-8.48 0-1.63 1.14-6.03-3.92l-4.73-4.89c-4.08-3.59-3.59 2.61-3.75-5.55l-9.79-.81v-3.75l-22.51-1.31c-3.59-6.2 3.42-2.93-19.25-4.57-10.77 0 2.45-4.4-20.55-4.56v-3.76l-24.31-.97c0-5.71 1.47-3.59-19.57-4.41l-26.43-.81-2.28-3.59-42.25-.98v-3.59h-151.54c-3.27 5.55 2.93 3.1-4.73 4.24z" fill="#5e5a71"/><path d="m737.149 627.205c3.915-1.142 30.667-2.447 32.625 1.305l33.766 3.752c5.22 0 3.915-.816 3.915 3.915l19.738.815v3.916c26.589 0 4.893 4.077 23.979 4.893h28.383c0-8.156 0-1.468 4.078-5.383l7.341-7.014c7.993-8.483-1.142-6.199 8.156-6.362v-32.624c-7.993 0-1.631.815-5.546-3.916-13.213-16.312-13.213-6.361-13.377-14.843l-18.759-.979v-3.915a84.208 84.208 0 0 1 -11.255 0c-7.504-1.468-1.305 1.468-4.567-3.915l-21.532-.979a4.406 4.406 0 0 1 -2.447-3.915h-14.355c-10.929 0-7.993-1.305-9.624-4.078l-37.029-1.305v-3.752l-47.632-1.141v-3.752h-173.072v3.915l-47.795 1.141v3.752a327.6 327.6 0 0 0 -41.27 2.121c-4.731 2.936 4.567 1.957-6.035 3.262-4.731 0-13.05.001-18.107.816-2.936 4.568 1.794 3.589-8.32 4.078-37.844 1.795 6.199 4.078-34.744 5.383-2.447 3.915 3.751 4.241-15.334 4.567 0 8.32 1.468.816-3.426 4.894-4.893 4.078-1.794 2.936-5.383 4.078a14.535 14.535 0 0 1 -5.22 0l-1.142 8.972h-3.914v33.603h4.567l.979 8.809h4.73v4.73l9.135.979v3.915h37.029c2.447-4.404-4.241-4.568 16.312-4.894v-3.751l23.816-1.142v-3.752l32.625-1.305 2.283-3.752 27.731-.816v-3.752l38.823-.815c0-4.894-1.142-3.263 2.936-3.752h143.548l2.447 3.589 41.922.978zm-191.668 142.732-43.391.979v3.589l-38.007 1.305v3.589l-32.625 1.304c-3.588 5.546 1.632 3.589-23.979 4.894-2.446 3.915 4.079 4.078-16.312 4.404v3.752l-19.085.979v3.915h-9.624v4.241h-4.894v4.894h-4.567v5.709h-4.242v33.44h4.568l.978 8.972h4.731v4.731l8.809.978v4.078h32.624c14.355 0 7.667-1.142 11.582-3.426a56.93 56.93 0 0 1 17.128-1.794l2.446-3.914c53.341-1.305 3.1-5.221 46.817-5.547v-3.752l41.759-1.305 2.283-3.589h32.625c0-5.709 1.142-3.914 8.809-3.751h126.419c6.852 1.794-4.241 2.61 7.341 3.751h24.631v3.752l42.901 1.142v3.752c9.462 0 19.086.816 28.547 1.142 19.248 0-3.099 4.404 24.142 4.567v3.916l27.241 1.304c2.284 4.242-4.078 4.078 14.355 4.404h20.227v-3.914l8.972-.816v-4.73h4.731l.979-9.135h4.078v-32.625h-4.568v-5.383h-4.404v-4.73h-5.057v-4.568h-5.546v-4.078c-45.511-.978-2.773-5.383-38.008-5.709v-3.915h-19.574c0-5.22 2.773-3.589-14.845-4.404h-21.532s0-2.937-2.447-3.752l-31.156-.979c-10.277 0-1.958 0-6.688-2.936a194.759 194.759 0 0 0 -41.107-1.794c-2.447-3.263 1.958 2.773-.978-1.795-2.937-4.567 0 0-1.305-1.957h-156.924zm894.559 469.953h20.23c0-6.2 3.59-3.75 23.33-4.24h29.36v-3.59c9.95 0 116.47-1.3 121.04 0 4.56 1.31-4.25 3.59 16.31 3.75h20.88c0 4.73-.98 3.76 5.22 3.92h10.93l33.6.98c17.45 0-10.77 3.91 29.85 4.89 3.43 5.38 0 4.08 23.98 4.73 2.45 4.08-4.08 4.24 16.31 4.41v3.91l42.9 1.14v-5.87l8.98-.98v-4.73h4.73l.97-8.97h3.92v-32.63c-8.48 0-2.45.01-5.22-3.26l-2.94-3.1a19.42 19.42 0 0 0 -1.79-1.95l-1.47-1.15c-1.96-1.79-2.12 3.43-2.28-4.56h-9.46v-3.92l-19.09-.98v-3.75h-15.17l.82-3.75-29.04-1.31v-6.52l-28.55-1.14v-3.59c-32.62-1.14-26.91 0-30.01-4.73l-60.68-1.31v-3.75h-57.75c-19.35-.96-38.75-.69-58.07.82-5.22 1.14-6.85 3.91-10.6 7.34l-26.43 26.26c-2.12 2.28 0 0-1.79 3.43l-7.83 1.3c0 8.97 1.79 0-4.41 6.2l-6.03 5.87-2.61 2.29-1.63 1.79-4.41 3.91c-5.71 5.39-4.08-3.26-4.4 6.2l-8.81 1.15c0 2.93 1.47 1.14-5.06 6.68-2.93 2.45-1.79 1.96-5.54 2.12z" fill="#5c586f"/><path d="m569.46 1320.31-28.71.98v3.75l-19.411.98v3.75l-14.192.82v4.89h-5.219v4.57h-4.568v5.06h-4.404v9.78h-3.752v19.41h3.915v9.79h4.078l1.142 8.65 8.645 1.14v4.08h5.873c0 5.87 2.12 5.71 22.184 4.4 13.213 0-7.83-4.08 23.653-4.89l2.447-3.75h23.326v-3.59h74.874s-.001 2.77 2.283 3.75h27.731v3.75h19.574c0 4.57-2.935 4.24 13.703 4.24h9.461v-3.91h9.951v-4.24h5.056v-4.57h4.568v-5.06h4.404v-9.95h3.915v-18.76h-3.915v-9.95h-4.241v-5.05h-4.568v-4.9h-5.057v-4.24h-9.95v-3.75l-23.653-1.14v-3.75l-28.872-.98v-3.76h-110.108z" fill="#5b596f"/></g></svg>