<svg width="2049" height="2049" viewBox="0 0 2049 2049" fill="none" xmlns="http://www.w3.org/2000/svg">
<path d="M1463 334H1697V668.5L1463 609V334Z" fill="#F05540"/>
<path d="M285 835.5L1025 199L1764 810V1800C1764 1827.61 1741.61 1850 1714 1850H335C307.386 1850 285 1827.61 285 1800V835.5Z" fill="#FFD15C"/>
<mask id="mask0_866_1518" style="mask-type:alpha" maskUnits="userSpaceOnUse" x="285" y="199" width="1479" height="1651">
<path d="M285 835.5L1025 199L1764 810V1800C1764 1827.61 1741.61 1850 1714 1850H335C307.386 1850 285 1827.61 285 1800V835.5Z" fill="#FFD15C"/>
</mask>
<g mask="url(#mask0_866_1518)">
<rect x="1021" y="1223" width="626" height="434" rx="25" fill="#8AD7F8" stroke="#415A6B" stroke-width="50"/>
<path d="M91.5995 1029.76C48.9349 985.868 54.4214 914.51 103.294 877.661L889.536 284.837C964.642 228.207 1068.57 229.645 1142.08 288.331L1887.17 883.162C1930.8 917.997 1936.57 982.187 1899.85 1024.24V1024.24C1867.68 1061.09 1813.26 1068.58 1772.33 1041.79L1017.16 547.577L218.292 1045.19C177.687 1070.48 124.945 1064.06 91.5995 1029.76V1029.76Z" fill="#F7B64C"/>
</g>
<path d="M91.5995 967.755C48.9349 923.868 54.4214 852.51 103.294 815.661L889.536 222.837C964.642 166.207 1068.57 167.645 1142.08 226.331L1887.17 821.162C1930.8 855.997 1936.57 920.187 1899.85 962.244V962.244C1867.68 999.093 1813.26 1006.58 1772.33 979.794L1017.16 485.577L218.292 983.189C177.687 1008.48 124.945 1002.06 91.5995 967.755V967.755Z" fill="#F3705A"/>
<rect x="1758" y="132" width="234" height="369" rx="20" transform="rotate(90 1758 132)" fill="#F3705A"/>
<path d="M452 1248C452 1220.39 474.386 1198 502 1198H851C878.614 1198 901 1220.39 901 1248V1850H452V1248Z" fill="#415A6B"/>
<circle cx="504" cy="1605" r="30" fill="#FFD15C"/>
</svg>
