<svg width="2048" height="2048" fill="none" xmlns="http://www.w3.org/2000/svg"><g clip-path="url(#clip0_1435_8001)" fill-rule="evenodd" clip-rule="evenodd"><path d="M534.487 531.462c2.589 1.726 12.774-5.524-9.496 21.231a205.905 205.905 0 0 0-17.264 23.474 684.317 684.317 0 0 0-118.429 439.463 693.487 693.487 0 0 0 201.043 441.07 693.721 693.721 0 0 0 440.819 201.72c94.24 6.6 188.84-5.9 278.12-36.76 97.03-34.52 122.4-55.76 195.26-105.64 15.88-10.87 8.11-6.04 11.56-2.59 17.27-11.22 61.46-71.98 78.04-95.11 23.9-34.69 44.7-71.43 62.15-109.77 80.79-168.99 80.27-400.111 0-569.613-70.14-152.957-192.58-275.862-345.28-346.598-175.4-83.715-393.268-80.263-569.704-2.761a690.575 690.575 0 0 0-109.97 61.966c-17.264 12.6-34.527 23.82-49.892 37.801a273.786 273.786 0 0 0-47.648 41.599l.691.518zm153.129 398.38c29.866 18.642 57.834 41.944 86.319 63.348a800.735 800.735 0 0 0 85.455 62.14l112.387-288.775c11.912-30.034 17.264-79.228 53.343-79.228 36.08 0 42.3 51.782 54.38 82.162 29.01 72.84 90.29 225.599 109.63 286.531 27.45-12.43 177.12-138.088 196.46-141.195 45.06-8.112 40.22 34.522 31.07 64.728-17.26 56.787-34.52 113.227-53.34 170.707-18.82 57.48-34.53 117.38-53.52 170.71-17.26 55.07-32.11 66.63-96.68 66.46H885.113c-58.006 0-106.172 9.66-131.55-31.94-10.185-17.26-69.918-214.38-79.931-248.03-12.602-41.95-26.241-81.99-39.189-124.972-6.905-22.784-18.644-47.295 3.108-62.312a38.504 38.504 0 0 1 50.755 10.184l-.69-.518z" fill="#FFDF76"/><path d="M986.624 0h77.516c230.66 8.857 451.59 95.278 627.02 245.277a1057.16 1057.16 0 0 1 182.82 205.059 1031.316 1031.316 0 0 1 90.46 166.222c140.19 319.671 103.59 725.992-108.59 1007.512l-56.45 71.64c-21.23 22.61-39.01 45.05-61.46 64.9h-2.24l-15.37 7.76c-406.39 335.73-1022.183 297.06-1375.918-76.12a427.345 427.345 0 0 1-32.111-31.58c-69.055-89.07-114.631-134.64-168.494-255.81C.863 1082.95 20.372 733.759 203.195 435.664c42.469-69.043 71.299-94.072 100.647-138.087l51.792-49.021a1038.304 1038.304 0 0 1 448.857-224.39A1062.76 1062.76 0 0 1 988.005 1.207L986.624 0zm-32.111 201.262a826.002 826.002 0 0 1 468.907 99.927 825.762 825.762 0 0 1 334.38 343.536 825.601 825.601 0 0 1 87.17 471.375 825.635 825.635 0 0 1-189.43 440.36 825.918 825.918 0 0 1-402.17 260.95 826.047 826.047 0 0 1-479.404-6.39 826.007 826.007 0 0 1-395.068-271.59 825.702 825.702 0 0 1-177.603-445.26 825.127 825.127 0 0 1 35.7-320.369 825.19 825.19 0 0 1 155.723-282.25 825.362 825.362 0 0 1 251.989-201.073 825.484 825.484 0 0 1 309.806-89.216z" fill="#FFD05B"/><path d="M954.514 201.262A825.982 825.982 0 0 0 508.915 378.76a825.762 825.762 0 0 0-271.786 395.163 825.62 825.62 0 0 0-6.302 479.537 825.763 825.763 0 0 0 261.307 402.17 826.007 826.007 0 0 0 440.78 189.14 826.082 826.082 0 0 0 471.576-87.67 825.855 825.855 0 0 0 343.31-334.93 825.638 825.638 0 0 0 99.25-469.199c-18.75-217.983-123.29-419.605-290.65-560.559-167.36-140.954-383.85-209.707-601.886-191.15zm-420.027 330.2a273.743 273.743 0 0 1 47.647-41.599c15.883-13.981 32.456-25.201 49.893-37.801a690.614 690.614 0 0 1 109.97-61.967c176.263-77.501 394.133-80.953 569.703 2.762 152.7 70.735 275.14 193.641 345.28 346.598 80.27 168.983 80.79 400.105 0 569.605a716.697 716.697 0 0 1-62.15 109.78c-17.27 23.13-60.43 83.89-78.04 95.11-12.6 8.97-57.48 51.78-95.64 79.23-189.9 136.7-470.262 165.7-683.987 62.65a699.13 699.13 0 0 1-109.625-62.48c-19.163-14.33-31.765-23.65-49.547-38.49l-86.319-86.31a692.754 692.754 0 0 1-97.713-734.101c73.371-149.997 105.655-150.687 140.528-202.987z" fill="#FEE9A4"/><path d="M688.306 930.359l58.697 194.701c22.616 71.98 31.938 134.81 81.313 170.88 53.517 39.01 153.647 25.38 227.884 25.38h252.74c19.68-53.34 35.73-114.96 53.52-170.71 17.78-55.75 35.9-113.92 53.34-170.712 9.15-30.207 13.99-72.841-31.07-64.728-19.34 3.625-169.02 128.77-196.46 141.19-19.34-60.927-80.63-213.686-109.63-286.526-12.08-30.725-18.3-82.162-54.38-82.162-36.082 0-41.434 49.193-53.346 79.227L860.081 1056.19a799.62 799.62 0 0 1-85.456-62.138c-28.485-21.403-56.453-44.705-86.319-63.347" fill="#FFC244"/><path d="M1737.94 1759.92h-2.24l-15.37 7.76c-406.39 335.73-1022.183 297.06-1375.918-76.12a427.345 427.345 0 0 1-32.111-31.58c-69.055-89.07-114.631-134.64-168.494-255.81C.863 1082.26 20.372 733.068 203.195 434.974c42.469-69.044 71.299-94.072 100.647-138.087-28.83 20.022-95.295 106.845-116.357 135.325a1076.1 1076.1 0 0 0-94.088 161.907 773.675 773.675 0 0 0-36.772 91.137c-10.876 32.623-21.061 63.175-29.348 98.732A1068.971 1068.971 0 0 0 0 983.006v84.064c10.775 261.39 121.2 508.76 308.616 691.33 187.416 182.56 437.61 286.5 699.244 290.46h29c66.63-.91 133.03-7.96 198.36-21.05a1000.089 1000.089 0 0 0 468.2-237.51 353.027 353.027 0 0 0 34.52-31.07" fill="#FFC244"/><path d="M1516.62 1514.12c-3.45-3.45 4.32-8.28-11.57 2.59-72.85 49.88-98.23 71.12-195.25 105.64a701.346 701.346 0 0 1-278.12 36.76c-166.422-12.04-322.929-83.65-440.821-201.72a693.487 693.487 0 0 1-201.043-441.07 684.302 684.302 0 0 1 118.429-439.462 205.916 205.916 0 0 1 17.264-23.475c22.27-26.754 12.085-19.505 9.495-21.231-34.527 51.783-67.156 52.991-140.354 202.643a692.731 692.731 0 0 0-57.474 381.195 692.795 692.795 0 0 0 155.187 352.91l86.318 86.3c17.264 14.85 30.384 24.17 49.547 38.49a699.981 699.981 0 0 0 109.625 62.49c213.726 103.56 493.567 74.05 683.987-62.66 38.16-27.44 83.04-70.25 95.64-79.23" fill="#FFD05B"/><path d="M1308.94 1320.97H1056.2c-74.237 0-174.367 13.64-227.885-25.37-49.374-36.08-58.697-98.91-81.312-170.88l-58.698-194.705a38.496 38.496 0 0 0-51.791-10.184c-21.752 15.017-10.013 39.527-3.107 62.311 12.948 42.978 26.586 83.028 39.189 124.968 10.013 33.66 69.055 231.3 79.931 248.04 25.377 41.6 73.544 31.93 131.55 31.93h328.013c64.57 0 79.58-11.39 96.68-66.45" fill="#FFAA5A"/></g><defs><clipPath id="clip0_1435_8001"><path fill="#fff" d="M0 0H2048V2048H0z"/></clipPath></defs></svg>