<svg width="2085" height="2048" fill="none" xmlns="http://www.w3.org/2000/svg"><g clip-path="url(#clip0_1436_8380)" fill-rule="evenodd" clip-rule="evenodd"><path d="M1180.9 1320.76a701.3 701.3 0 0 0 87.16-45.76l129.56-95.29c33.68-38.04 70.13-66.17 102.42-108.36 15.26-19.81 29.52-38.24 45.37-60.43 15.85-22.183 30.31-46.747 44.18-67.35 12.28-27.735 29.91-57.45 44.77-88.156a824.167 824.167 0 0 0 37.64-96.675l43.98-159.672a365.558 365.558 0 0 1 11.88-59.431l15.06-184.832v-59.431c0-23.376-4.16-31.102-4.16-57.252H473.271c-27.735 393.831 102.618 750.221 386.105 978.239a566.585 566.585 0 0 0 224.054 118.86c38.63 9.11 61.22-7.92 97.47-13.87v-.59zM929.901 626.603a30.9 30.9 0 0 1 12.726-31.565 30.897 30.897 0 0 1 34.026-.726c12.085 7.132 59.427 62.799 122.627 7.528 19.81-17.433 50.71-16.442 55.47 13.868 5.74 36.847-61.41 69.93-104.01 72.109-48.93 1.783-115.887-30.309-120.839-62.204v.99zm471.879 12.085a31.622 31.622 0 0 1-12.03 12.302 31.675 31.675 0 0 1-16.68 4.203 31.673 31.673 0 0 1-16.42-5.133 31.615 31.615 0 0 1-11.32-12.957 205.241 205.241 0 0 1 1.78-88.553c3.1-4.605 7.36-8.32 12.34-10.776a31.873 31.873 0 0 1 31.6 1.939 31.862 31.862 0 0 1 10.93 12.205 224.034 224.034 0 0 1-.2 85.779v.991zm-720.302-3.962a220.296 220.296 0 0 1 2.774-85.582 30.907 30.907 0 0 1 45.969-8.907 30.89 30.89 0 0 1 10.094 14.257 212.754 212.754 0 0 1-2.179 85.382 31.098 31.098 0 0 1-30.337 15.457 31.106 31.106 0 0 1-26.321-21.598v.991z" fill="#F8E769"/><path d="M346.088 237.329l-1.783 25.753a2000.858 2000.858 0 0 0 15.452 277.346C356.389 599.859 418 785.087 449.3 852.64l43.385 89.147a104.982 104.982 0 0 1 22.98 31.697c71.119 118.866 118.863 141.046 172.351 206.226a873.4 873.4 0 0 0 186.019 127.78c13.075 5.94 21.396 6.73 29.914 15.85a296.955 296.955 0 0 1 59.431 13.07c24.367 4.95 44.18 4.76 69.14 8.12 8.12 57.06-15.26 149.18-36.849 203.46-28.13 70.72-9.905 54.67-148.38 54.28l-2.179-3.17c11.292 4.95 385.508 4.75 395.018 0a532.358 532.358 0 0 1-46.55-122.43c-9.51-42.99-21.99-107.57-12.48-155.91-36.26 5.94-59.43 22.98-97.47 13.87a566.593 566.593 0 0 1-224.056-118.86c-283.487-228.022-413.84-584.412-386.105-978.243H1738.96c91.72 4.358 159.67-118.862 80.43-198.104-25.36-25.555-37.64-29.716-82.02-36.055-44.37-6.34-865.514-1.585-935.048-1.585-64.78 0-434.839-7.132-464.158 1.981h108.164l-3.169 2.18-17.433 9.905c-86.968 41.8-104.599 174.133 26.942 220.687l-106.58.793z" fill="#F9B559"/><path d="M811.632 2046.61h502.788c166.61 0 163.04-27.34 163.04-174.92 0-67.95 10.3-193.55-16.44-236.34-33.28-53.29-143.23-36.65-221.88-36.65-9.51 4.75-383.727 4.95-395.019 0h-39.62c-92.317 47.74-71.12 61.02-71.12 228.22a1298.459 1298.459 0 0 0 1.387 147.58c8.915 52.5 37.838 53.1 75.676 72.11h1.188zm38.433-314.78c22.98-8.92 267.245-4.16 313.595-4.16 59.43 0 99.06-6.74 100.64 58.24 3.17 163.63 19.81 130.95-344.899 130.95-89.939 0-109.552 6.14-100.637-138.68a44.546 44.546 0 0 1 7.864-28.94 44.494 44.494 0 0 1 24.427-17.41h-.99z" fill="#4F4C5F"/><path d="M688.016 1179.31c-53.885-65.17-101.232-86.96-172.351-206.222a104.982 104.982 0 0 0-22.98-31.697c-37.045-9.707-128.768-72.11-155.71-103.015a593.124 593.124 0 0 1-103.41-161.256 534.888 534.888 0 0 1-38.036-137.088h164.228a2000.858 2000.858 0 0 1-15.452-277.346l-2.377 89.741h-231.98C20.801 352.427 1.585 392.048 0 466.139v19.81c2.377 121.24 50.715 250.008 104.401 348.862 99.052 181.459 281.308 290.819 479.61 330.829a596.531 596.531 0 0 0 104.005 13.87M1850.69 540.032h38.23a544.975 544.975 0 0 1-35.26 131.541 488.242 488.242 0 0 1-59.43 108.759c-5.15 45.564-57.85 147.786-78.05 188.793a923.096 923.096 0 0 1-49.33 85.185c-18.23 28.73-39.62 52.5-56.07 80.23 60.43-11.49 185.63-85.58 235.15-133.32a784.692 784.692 0 0 0 87.96-95.29 724.736 724.736 0 0 0 121.04-249.413 893.129 893.129 0 0 0 29.13-154.125c0-3.169-.01-6.339.99-9.311v-57.648c-14.86-105.788-122.43-82.609-217.92-82.609.62 62.754-4.61 125.429-15.65 187.208" fill="#F8E769"/><path d="M851.055 1731.83a44.55 44.55 0 0 0-23.826 17.65 44.582 44.582 0 0 0-7.474 28.7c-8.915 144.82 10.697 138.68 100.637 138.68 364.318 0 348.068 32.68 344.898-130.95-1.19-64.98-41.01-58.24-100.64-58.24-46.35 0-290.615-4.76-313.595 4.16z" fill="#E8E8E8"/><path d="M811.633 2046.61c-37.838-19.81-66.761-19.81-75.676-72.11-3.26-49.13-3.723-98.4-1.387-147.58 0-167.2-21.197-180.48 71.12-228.22-125.004 0-199.293-19.81-198.104 118.86v215.74c0 135.3 87.76 113.91 204.839 113.91" fill="#423E4F"/><path d="M1589.59 943.174c-13.87 19.81-29.32 46.554-44.18 67.356-14.86 20.8-30.11 39.62-45.37 60.42-32.29 42.2-68.74 70.33-102.42 108.36 46.95 0 189.79-27.73 212.97-44.77 16.04-27.73 37.83-51.51 56.06-80.23a920.955 920.955 0 0 0 49.33-85.185c19.81-41.007 72.9-143.229 78.05-188.793l-39.62 47.941c-41.4 44.772-110.94 99.052-164.62 114.901" fill="#F9B559"/><path d="M847.093 1601.87c138.673 0 120.249 16.44 148.38-54.28 21.597-54.28 44.967-146.4 36.847-203.45-24.96-3.37-44.771-3.17-69.138-8.13a296.97 296.97 0 0 0-59.431-13.07c0 19.81 4.556 17.63 3.566 34.87-9.509 162.44-53.687 203.84-60.422 244.06M346.088 237.329H452.47C320.929 190.774 338.56 59.035 425.527 16.641l17.433-9.905 3.17-2.18H337.966c-127.381 25.556-126.589 146.399-72.507 200.68a105.39 105.39 0 0 0 80.629 32.093z" fill="#EC8D00"/><path d="M1727.86 540.032h122.83a1008.46 1008.46 0 0 0 15.65-187.208c-34.67 0-92.32-4.755-123.42 2.377l-15.06 184.831z" fill="#F9B559"/><path d="M929.901 625.613c4.952 31.894 71.909 63.987 120.839 61.214 42.6-2.18 109.75-35.263 104.01-72.111-4.76-30.309-35.46-31.3-55.47-13.866-63.2 55.271-110.542-.001-122.627-7.529a30.902 30.902 0 0 0-45.126 14.599 30.902 30.902 0 0 0-1.626 17.693zm-248.423 8.122a31.108 31.108 0 0 0 26.652 21.024 31.096 31.096 0 0 0 30.006-15.874 212.754 212.754 0 0 0 2.179-85.382 30.895 30.895 0 0 0-26.306-20.763 30.907 30.907 0 0 0-29.757 15.414 220.291 220.291 0 0 0-2.774 85.581zm720.302 3.962a224.209 224.209 0 0 0 0-86.769 31.829 31.829 0 0 0-10.92-12.205 31.894 31.894 0 0 0-43.95 8.837 205.237 205.237 0 0 0-1.78 88.552 31.609 31.609 0 0 0 11.32 12.957 31.674 31.674 0 0 0 16.42 5.134 31.726 31.726 0 0 0 16.69-4.204 31.759 31.759 0 0 0 12.03-12.302" fill="#423E4F"/></g><defs><clipPath id="clip0_1436_8380"><path fill="#fff" d="M0 0H2084.85V2048H0z"/></clipPath></defs></svg>