<svg fill="none" height="2048" viewBox="0 0 2048 2048" width="2048" xmlns="http://www.w3.org/2000/svg" xmlns:xlink="http://www.w3.org/1999/xlink"><clipPath id="a"><path d="m0 0h2048v2048h-2048z"/></clipPath><mask id="b" height="740" maskUnits="userSpaceOnUse" width="1158" x="445" y="1169"><path clip-rule="evenodd" d="m1024.17 1540.5 182.4 345.39c13.31 25.2 47.31 30.01 68.14 10.56 91.41-85.34 168.61-125.12 293.64-154.11 27.51-6.38 42.31-36.92 29.12-61.89l-270.01-511.26-303.29 160.17-303.296-160.17-270.008 511.26c-13.188 24.97 1.608 55.51 29.118 61.89 125.037 28.99 202.232 68.77 293.644 154.11 20.833 19.45 54.826 14.64 68.135-10.56z" fill="#ad7fdd" fill-rule="evenodd"/></mask><mask id="c" height="1416" maskUnits="userSpaceOnUse" width="1420" x="314" y="117"><path d="m977.82 159.9c4.739-56.636 87.62-56.636 92.36 0 4.13 49.321 72.32 58.695 89.6 12.316 19.85-53.257 99.66-30.896 88.94 24.918-9.33 48.606 53.8 76.031 82.96 36.034 33.47-45.928 104.29-2.865 78.91 47.989-22.1 44.285 31.3 87.728 70.16 57.08 44.63-35.194 101.2 25.379 63.04 67.499-33.23 36.68 6.47 92.919 52.16 73.892 52.47-21.848 90.6 51.741 42.49 82.005-41.89 26.355-18.84 91.218 30.29 85.224 56.42-6.883 73.28 74.265 18.79 90.428-47.45 14.075-42.75 82.753 6.17 90.236 56.18 8.593 50.53 91.281-6.3 92.144-49.49.751-63.49 68.149-18.4 88.555 51.78 23.43 24.02 101.53-30.93 87.03-47.86-12.63-79.53 48.49-41.61 80.3 43.54 36.54-4.26 104.25-53.26 75.46-42.68-25.07-89.66 25.24-61.74 66.1 32.07 46.92-32.22 99.23-71.64 58.29-34.33-35.66-93.15.11-77.28 46.99 18.22 53.84-57.8 86.86-84.71 36.8-23.44-43.6-89.73-25.02-87.1 24.4 3.02 56.75-79.09 68.04-91.5 12.58-10.8-48.3-79.639-48.3-90.443 0-12.407 55.46-94.517 44.17-91.499-12.58 2.627-49.42-63.658-68-87.093-24.4-26.911 50.06-102.93 17.04-84.713-36.8 15.864-46.88-42.952-82.65-77.28-46.99-39.418 40.94-103.71-11.37-71.644-58.29 27.925-40.86-19.061-91.17-61.735-66.1-49.003 28.79-96.799-38.92-53.261-75.46 37.914-31.81 6.244-92.93-41.612-80.3-54.953 14.5-82.708-63.6-30.929-87.03 45.091-20.406 31.086-87.804-18.402-88.555-56.827-.863-62.484-83.551-6.303-92.144 48.925-7.483 53.622-76.161 6.172-90.236-54.487-16.163-37.624-97.311 18.792-90.428 49.129 5.994 72.181-58.869 30.288-85.224-48.106-30.264-9.975-103.853 42.492-82.005 45.69 19.027 85.387-37.212 52.158-73.892-38.157-42.12 18.414-102.693 63.041-67.499 38.862 30.648 92.261-12.795 70.16-57.08-25.378-50.854 45.438-93.917 78.914-47.989 29.152 39.997 92.291 12.572 82.959-36.034-10.717-55.814 69.091-78.175 88.934-24.918 17.281 46.379 85.477 37.005 89.604-12.316z" fill="#f3d332"/></mask><mask id="d" height="1015" maskUnits="userSpaceOnUse" width="1015" x="516" y="320"><circle cx="1023.57" cy="827.568" fill="none" r="457.041" stroke="#e38523" stroke-width="100"/></mask><mask id="e" height="843" maskUnits="userSpaceOnUse" width="843" x="602" y="406"><circle cx="1023.57" cy="827.57" fill="#f3d332" r="420.883"/></mask><mask id="f" height="498" maskUnits="userSpaceOnUse" width="518" x="765" y="559"><path d="m969.789 598.514c17.063-52.515 91.361-52.515 108.421 0l21.97 67.628c7.63 23.485 29.52 39.386 54.21 39.386h71.11c55.22 0 78.18 70.658 33.51 103.114l-57.53 41.796c-19.98 14.515-28.34 40.242-20.71 63.728l21.97 67.628c17.07 52.516-43.04 96.186-87.71 63.726l-57.53-41.79c-19.97-14.52-47.03-14.519-67.004 0l-57.528 41.79c-44.671 32.46-104.777-11.21-87.714-63.726l21.974-67.628c7.631-23.486-.729-49.213-20.707-63.728l-57.527-41.796c-44.672-32.456-21.714-103.114 33.504-103.114h71.108c24.693 0 46.579-15.901 54.21-39.386z" fill="#e38523"/></mask><g clip-path="url(#a)"><path d="m936.981 1375.41 390.479-206.22 270.01 511.26c13.19 24.97-1.61 55.52-29.12 61.89-125.03 28.99-202.23 68.77-293.64 154.11-20.83 19.45-54.83 14.64-68.14-10.56z" fill="#ad7fdd"/><path d="m1111.36 1375.41-390.484-206.22-270.009 511.26c-13.188 24.97 1.608 55.52 29.118 61.89 125.037 28.99 202.232 68.77 293.645 154.11 20.833 19.45 54.826 14.64 68.135-10.56z" fill="#ad7fdd"/><g mask="url(#b)"><path d="m958.866 233.135c4.739-56.637 87.624-56.637 92.364 0 4.12 49.321 72.32 58.694 89.6 12.315 19.84-53.257 99.65-30.896 88.93 24.919-9.33 48.605 53.81 76.03 82.96 36.034 33.48-45.929 104.29-2.865 78.92 47.988-22.1 44.285 31.29 87.728 70.16 57.08 44.62-35.194 101.19 25.379 63.04 67.499-33.23 36.681 6.47 92.919 52.16 73.893 52.46-21.849 90.59 51.74 42.49 82.004-41.9 26.355-18.84 91.219 30.29 85.225 56.41-6.884 73.27 74.264 18.79 90.427-47.45 14.075-42.75 82.753 6.17 90.236 56.18 8.593 50.52 91.281-6.3 92.144-49.49.752-63.5 68.151-18.4 88.551 51.77 23.44 24.02 101.53-30.93 87.03-47.86-12.63-79.53 48.49-41.62 80.31 43.54 36.53-4.25 104.24-53.26 75.45-42.67-25.07-89.66 25.24-61.73 66.1 32.06 46.93-32.23 99.23-71.65 58.29-34.32-35.65-93.14.11-77.28 47 18.22 53.83-57.8 86.85-84.71 36.79-23.43-43.59-89.72-25.02-87.09 24.4 3.02 56.76-79.09 68.04-91.5 12.58-10.81-48.3-79.643-48.3-90.447 0-12.407 55.46-94.517 44.18-91.5-12.58 2.628-49.42-63.657-67.99-87.092-24.4-26.911 50.06-102.931 17.04-84.713-36.79 15.864-46.89-42.953-82.65-77.28-47-39.418 40.94-103.71-11.36-71.644-58.29 27.925-40.86-19.061-91.17-61.735-66.1-49.003 28.79-96.799-38.92-53.262-75.45 37.914-31.82 6.244-92.94-41.611-80.31-54.953 14.5-82.708-63.59-30.929-87.03 45.091-20.4 31.086-87.799-18.402-88.551-56.828-.863-62.484-83.551-6.303-92.144 48.925-7.483 53.622-76.161 6.172-90.236-54.487-16.163-37.624-97.311 18.791-90.427 49.13 5.994 72.182-58.87 30.289-85.225-48.106-30.264-9.975-103.853 42.492-82.004 45.69 19.026 85.387-37.212 52.158-73.893-38.157-42.12 18.414-102.693 63.04-67.499 38.863 30.648 92.261-12.795 70.161-57.08-25.378-50.853 45.438-93.917 78.914-47.988 29.152 39.996 92.291 12.571 82.959-36.034-10.717-55.815 69.09-78.176 88.934-24.919 17.28 46.379 85.477 37.006 89.604-12.315z" fill="#9d66d6"/></g><path d="m977.82 159.9c4.739-56.636 87.62-56.636 92.36 0 4.13 49.321 72.32 58.695 89.6 12.316 19.85-53.257 99.66-30.896 88.94 24.918-9.33 48.606 53.8 76.031 82.96 36.034 33.47-45.928 104.29-2.865 78.91 47.989-22.1 44.285 31.3 87.728 70.16 57.08 44.63-35.194 101.2 25.379 63.04 67.499-33.23 36.68 6.47 92.919 52.16 73.892 52.47-21.848 90.6 51.741 42.49 82.005-41.89 26.355-18.84 91.218 30.29 85.224 56.42-6.883 73.28 74.265 18.79 90.428-47.45 14.075-42.75 82.753 6.17 90.236 56.18 8.593 50.53 91.281-6.3 92.144-49.49.751-63.49 68.149-18.4 88.555 51.78 23.43 24.02 101.53-30.93 87.03-47.86-12.63-79.53 48.49-41.61 80.3 43.54 36.54-4.26 104.25-53.26 75.46-42.68-25.07-89.66 25.24-61.74 66.1 32.07 46.92-32.22 99.23-71.64 58.29-34.33-35.66-93.15.11-77.28 46.99 18.22 53.84-57.8 86.86-84.71 36.8-23.44-43.6-89.73-25.02-87.1 24.4 3.02 56.75-79.09 68.04-91.5 12.58-10.8-48.3-79.639-48.3-90.443 0-12.407 55.46-94.517 44.17-91.499-12.58 2.627-49.42-63.658-68-87.093-24.4-26.911 50.06-102.93 17.04-84.713-36.8 15.864-46.88-42.952-82.65-77.28-46.99-39.418 40.94-103.71-11.37-71.644-58.29 27.925-40.86-19.061-91.17-61.735-66.1-49.003 28.79-96.799-38.92-53.261-75.46 37.914-31.81 6.244-92.93-41.612-80.3-54.953 14.5-82.708-63.6-30.929-87.03 45.091-20.406 31.086-87.804-18.402-88.555-56.827-.863-62.484-83.551-6.303-92.144 48.925-7.483 53.622-76.161 6.172-90.236-54.487-16.163-37.624-97.311 18.792-90.428 49.129 5.994 72.181-58.869 30.288-85.224-48.106-30.264-9.975-103.853 42.492-82.005 45.69 19.027 85.387-37.212 52.158-73.892-38.157-42.12 18.414-102.693 63.041-67.499 38.862 30.648 92.261-12.795 70.16-57.08-25.378-50.854 45.438-93.917 78.914-47.989 29.152 39.997 92.291 12.572 82.959-36.034-10.717-55.814 69.091-78.175 88.934-24.918 17.281 46.379 85.477 37.005 89.604-12.316z" fill="#f3d332"/><g mask="url(#c)"><circle cx="882.27" cy="351.976" fill="#f7e365" r="849.089"/></g><circle cx="1023.57" cy="827.568" r="457.041" stroke="#e38523" stroke-width="100"/><g mask="url(#d)"><circle cx="923.194" cy="641.897" fill="#e69642" r="624.647"/></g><circle cx="1023.57" cy="827.57" fill="#f3d332" r="420.883"/><g mask="url(#e)"><circle cx="859.008" cy="654.392" fill="#f7e365" r="525.996"/></g><path d="m969.789 598.514c17.063-52.515 91.361-52.515 108.421 0l21.97 67.628c7.63 23.485 29.52 39.386 54.21 39.386h71.11c55.22 0 78.18 70.658 33.51 103.114l-57.53 41.796c-19.98 14.515-28.34 40.242-20.71 63.728l21.97 67.628c17.07 52.516-43.04 96.186-87.71 63.726l-57.53-41.79c-19.97-14.52-47.03-14.519-67.004 0l-57.528 41.79c-44.671 32.46-104.777-11.21-87.714-63.726l21.974-67.628c7.631-23.486-.729-49.213-20.707-63.728l-57.527-41.796c-44.672-32.456-21.714-103.114 33.504-103.114h71.108c24.693 0 46.579-15.901 54.21-39.386z" fill="#e38523"/><g mask="url(#f)"><circle cx="849.098" cy="625.527" fill="#e69642" r="371.342"/></g></g></svg>