<svg fill="none" height="2048" width="2407" xmlns="http://www.w3.org/2000/svg" xmlns:xlink="http://www.w3.org/1999/xlink"><clipPath id="a"><path d="m0 0h2406.1v2048h-2406.1z"/></clipPath><g clip-path="url(#a)" clip-rule="evenodd" fill-rule="evenodd"><path d="m1.348 1681.1c-.842 59.99 0 120.15 0 180.14 0 64.55-3.707 116.11 33.704 153.86 68.25 70.11 163.968 8.93 281.593-26.12a1654.725 1654.725 0 0 1 307.377-62.86c70.946-7.41 297.772-8.76 343.609 25.79 88.469 7.08 170.199 97.57 235.929 97.4 48.7 0 79.54-31.01 114.93-50.56 28.14-15.67 86.95-43.98 121.16-46.84 50.56-34.55 264.24-33.71 335.69-26.8a1863.304 1863.304 0 0 1 450.78 108.7c55.78 21.4 104.82 21.23 143.24-15.84 38.43-37.08 35.9-85.27 35.9-151.67 0-61.85.84-123.86 0-185.37-47.86 56.29-54.6 50.56-136.84 16.85a1905.746 1905.746 0 0 0 -453.99-120.49c-115.43-13.98-246.03-14.49-355.06 14.66-84.26 22.58-192.96 71.62-248.74 133.47-10.44 7.25 13.49 7.08-13.14 5.9-35.9-47.36-117.96-92.01-185.37-117.97-83.08-32.52-157.902-34.71-255.643-44.82-205.76 0-401.747 48.53-589.813 118.97-98.414 36.91-107.177 61.34-165.147-6.4" fill="#69c65e"/><path d="m1200.19 212.502c10.28 74.485-2.2 987.008 1.68 1201.198v16.85c0 2.53-6.74 0 6.91 16.85 55.78-61.84 164.31-110.88 248.73-133.46 109.03-29.16 239.64-28.65 355.07-14.67a1905.746 1905.746 0 0 1 453.99 120.49c82.23 33.71 88.98 38.76 136.83-16.85 2.87-181.66 0-365.01 0-547.006v-276.202c0-88.303 6.07-185.369-5.73-270.64-19.04-62.351-55.94-95.718-113.58-117.962-45.83-18.032-122.68-51.904-168.51-58.813-14.83 33.704 8.93 290.525-4.55 351.697-20.56 92.18-126.22-10.448-158.24-33.703-68.93-50.556-104.48 41.624-170.37 67.407-65.9 25.783-67.41-48.87-67.41-101.111 0-114.929-6.24-248.228 1.51-360.798-173.57 0-337.03 14.998-467.3 119.985a325.617 325.617 0 0 1 -49.2 37.917zm377.98 494.6c140.04-12.47 277.21 6.067 408.15 35.052 38.59 8.594 151.67 32.018 170.37 55.611a41.348 41.348 0 0 1 8.4 19.294 41.459 41.459 0 0 1 -2.16 20.931 41.386 41.386 0 0 1 -12.15 17.176 41.506 41.506 0 0 1 -19.03 8.995c-29.32 5.056-246.2-82.742-488.7-76.676-94.2 2.191-170.03 32.693-192.62 0-51.06-72.462 95.22-77.013 127.74-80.383zm-20.73 229.353c133.3-16.852 292.38 1.517 417.93 30.839 32.35 7.583 157.39 37.246 174.75 50.556a41.887 41.887 0 0 1 12.82 16.9 41.87 41.87 0 0 1 2.91 21.02 41.871 41.871 0 0 1 -7.74 19.75 41.982 41.982 0 0 1 -16.41 13.44c-38.09 14.16-242-77.68-487.86-74.48-38.26 0-174.76 22.58-193.46 11.29a42.1 42.1 0 0 1 -13.79-15.51 42.338 42.338 0 0 1 -4.76-20.198 42.262 42.262 0 0 1 5.43-20.03 42.28 42.28 0 0 1 14.3-15.04c18.2-10.279 72.29-15.166 95.88-18.031zm-1550.531-628.235c-11.628 84.259-5.056 177.786-5.73 265.078v276.202c0 183.85-2.022 369.05 0 552.74 57.97 67.41 67.408 43.31 165.148 6.4 187.392-70.44 383.379-117.96 589.813-118.97 19.548-38.42 43.815-68.42 64.543-112.91a1028.926 1028.926 0 0 0 48.533-126.22c29.491-94.874 42.635-189.581 58.307-293.725a210.816 210.816 0 0 1 8.089-127.4c25.783-117.962-2.191-496.791 2.696-535.382l3.876-14.492a33.753 33.753 0 0 1 2.022-4.55c-89.82-35.39-309.567-21.402-412.363-4.382-46.006 7.583-81.394 16.01-126.557 25.784-64.88 13.987-290.862 84.258-336.025 120.658a165.993 165.993 0 0 0 -61.846 91.169zm213.849 319.004c75.16-39.77 78.53 122.344 40.613 142.903-37.916 20.56-61.509-6.066-63.7-44.32-2.19-38.254-7.414-82.91 22.582-98.583zm516.171 120.828a146.613 146.613 0 0 1 -57.633 50.555c-107.009 53.589-228.005-24.266-211.827-81.731 8.594-30.165 45.837-35.557 71.452-14.661 93.696 76.002 107.346-4.044 151.666-11.459a40.61 40.61 0 0 1 49.679 35.032 40.61 40.61 0 0 1 -3.842 22.264z" fill="#fbf0ce"/><path d="m1.348 1402.24c-.842 59.99 0 120.15 0 180.14 0 64.55-3.707 116.11 33.704 153.86 68.25 70.11 163.968 8.93 281.593-26.12a1654.725 1654.725 0 0 1 307.377-62.86c70.946-7.41 297.772-8.76 343.609 25.79 88.469 7.08 170.199 97.57 235.929 97.4 48.7 0 79.54-31.01 114.93-50.55 28.14-15.68 86.95-43.99 121.16-46.85 50.56-34.55 264.24-33.71 335.69-26.8a1863.304 1863.304 0 0 1 450.78 108.7c55.78 21.4 104.82 21.23 143.24-15.84 38.43-37.08 35.9-85.27 35.9-151.67 0-61.85.84-123.86 0-185.37-47.86 56.29-54.6 50.56-136.84 16.85a1905.746 1905.746 0 0 0 -453.99-120.49c-115.43-13.98-246.03-14.49-355.06 14.66-84.26 22.58-192.96 71.62-248.74 133.47-10.44 7.25 13.49 7.08-13.14 5.9-35.9-47.36-117.96-92.01-185.37-117.97-83.08-32.52-157.902-34.71-255.643-44.82-205.76 0-401.747 48.53-589.813 118.97-98.414 36.91-107.177 61.34-165.147-6.4" fill="#f7c7a5"/><path d="m935.107 629.415c70.613-19.548 73.473 20.054 72.293 85.102-1.18 70.103-36.23 72.294-80.382 42.298-15.672 104.144-28.816 198.851-58.307 293.725a1029.087 1029.087 0 0 1 -48.533 126.22c-20.728 44.49-44.995 74.49-64.543 112.91 97.741 10.11 172.563 12.3 255.645 44.82 67.4 26.63 149.64 71.29 185.37 117.97 26.62 1.18 2.69 1.35 13.14-5.9-13.65-16.85-6.91-16.85-6.91-16.85v-16.85c-3.87-214.19 8.6-1126.717-1.68-1201.202a544.342 544.342 0 0 0 -256.825-137.51 33.755 33.755 0 0 0 -2.022 4.55l-3.876 14.493c-4.887 38.59 23.087 417.756-2.696 535.382" fill="#fae0bd"/><path d="m1717.03 54.6c-7.75 112.57-1.18 245.867-1.52 360.797 0 52.409 0 128.242 67.41 101.11 67.41-27.131 101.11-119.31 170.37-67.407 32.02 23.761 137.68 126.389 158.24 33.704 13.48-61.172-10.28-317.994 4.55-351.697-1.52-84.26-81.56-88.978-186.38-109.874-123.36-24.773-180.99-42.467-212.84 33.703" fill="#fc5c70"/><path d="m1439.14 1673.05c-33.7 2.86-93.02 31.17-121.16 46.85-35.39 19.54-66.23 50.55-114.93 50.55-66.06 0-147.79-90.32-235.925-97.4-8.257 1.85-14.493-8.77-14.83 32.69v342.09h503.865l-3.2-369.56c-9.43-9.1 3.04-3.54-13.98-5.22" fill="#69c65e"/><path d="m1557.44 936.961c-23.59 2.865-77.68 7.752-95.88 18.874a42.277 42.277 0 0 0 -14.3 15.039 42.265 42.265 0 0 0 -5.43 20.03 42.397 42.397 0 0 0 4.76 20.206 42.236 42.236 0 0 0 13.79 15.5c18.7 11.29 155.2-10.78 193.46-11.29 245.86-3.2 449.77 88.64 488.7 74.49a41.948 41.948 0 0 0 24.15-33.2c.85-7.14-.15-14.37-2.91-21.01a41.897 41.897 0 0 0 -12.82-16.91c-16.85-13.65-142.39-43.307-174.75-50.554-125.54-29.322-284.63-47.017-417.92-30.839m19.88-230.195c-32.52 2.865-178.8 7.415-128.07 80.384 22.58 32.692 98.41 2.19 192.61 0 242.84-6.067 459.72 81.731 488.71 76.675a41.432 41.432 0 0 0 19.02-8.994 41.511 41.511 0 0 0 12.16-17.176 41.457 41.457 0 0 0 2.15-20.931 41.433 41.433 0 0 0 -8.39-19.295c-18.54-23.592-131.78-47.016-170.37-55.611-130.94-28.985-268.12-47.522-408.16-35.052m-841.406 40.95a40.617 40.617 0 0 0 -4.415-43.575 40.618 40.618 0 0 0 -41.422-14.227c-44.826 7.415-58.476 87.461-151.666 11.459-25.615-20.896-62.858-15.503-71.452 14.661-16.852 57.465 104.818 134.816 211.827 81.732a146.605 146.605 0 0 0 57.633-50.555m-516.676-120.323c-29.996 15.673-25.278 61.172-23.087 98.583s26.289 64.542 63.7 44.32 34.546-182.673-40.613-142.903zm714.854 2.191a210.817 210.817 0 0 0 -8.089 127.4c44.152 29.996 79.202 27.805 80.382-42.298 1.18-65.048-1.68-104.65-72.293-85.102z" fill="#4e565f"/></g></svg>