<svg width="2081" height="2048" fill="none" xmlns="http://www.w3.org/2000/svg"><g clip-path="url(#clip0_1436_8407)" fill-rule="evenodd" clip-rule="evenodd"><path d="M0 1599.21V645.763a194.532 194.532 0 0 1 24.447-108.268c63.564-128 184.753-113.68 304.895-113.68H1571.27l2.1 1381.805c-102.51-6.64-224.92-.87-329.69-.87H1081.1c-40.16 0-129.046-5.77-161.875-1.22l-675.274 1.92c-85.217 1.39-150.003-16.59-198.723-81.73A200.278 200.278 0 0 1 0 1599.21zm662.352-989.595h244.474c27.591-5.588 371.424-3.143 379.114 1.747 47.32.873 83.12 38.592 97.26 74.564 14.15 35.973 7.69 122.238 7.69 164.148 0 54.657 4.01 641.226-1.92 678.246-19.91 121.19-155.42 98.83-239.76 98.83H420.846c-63.564 0-150.527 11.7-194.358-23.92-55.88-45.4-48.545-85.91-48.545-171.83V992.742c0-387.841-29.163-384.174 273.113-384.174 36.496-.699 189.293-4.89 211.296 1.047z" fill="#FDCA8A"/><path d="M1874.77 676.671a144.206 144.206 0 0 1 59.63 34.85 144.203 144.203 0 0 1 36.59 58.574 169.36 169.36 0 0 1 3.1 84.386 169.477 169.477 0 0 1-38.02 75.396 161.548 161.548 0 0 1-74.31 40.517 161.539 161.539 0 0 1-84.6-2.623 144.709 144.709 0 0 1-59.58-35.158 144.81 144.81 0 0 1-36.47-58.79c-26.89-61.468 2.45-125.032 35.8-159.084a136.008 136.008 0 0 1 65.49-40.338 150.674 150.674 0 0 1 91.67 2.27h.7zm-126.6 486.679c-25.67-109.49 133.41-137.78 156.11-38.94 24.8 107.22-133.24 135.86-156.11 38.94zm-79.8 211.47c-10.13-53.43 74.91-38.77 148.43-38.77h93.42c29.51 0 67.06-5.58 73.34 23.06 12.05 54.3-76.83 39.46-150.52 39.46h-93.43c-28.64 0-65.48 5.94-71.24-23.75zm0 113.68c-3.5-34.92 26.36-36.15 55.35-35.97h191.04c32.13 0 67.06-4.89 69.85 28.29 4.37 48.89-83.82 34.92-155.24 34.92h-93.6c-31.08-.35-64.78 3.85-67.93-27.24h.53zm413.16-849.897V1560.8c.25 28.33-1.68 56.65-5.76 84.69-33.18 113.68-119.45 164.15-238.19 159.78h-263.69l-2.62-1380.582h269.8c53.61 0 78.06 0 116.3 17.462a233.487 233.487 0 0 1 75.44 58.674 223.86 223.86 0 0 1 44.18 89.932 296.15 296.15 0 0 1 4.01 47.847h.53zm-412.99 967.767c-4.89-34.05 25.84-37.37 55.18-37.19h187.02c33.18 0 69.85-6.46 73.7 25.32 7.33 52.39-79.81 37.54-150.88 37.54h-93.42c-30.91.18-67.58 5.24-72.12-25.67h.52z" fill="#FEDFB6"/><path d="M611.536 2041.36c12.922 0 1066.084 4.2 1093.854-1.57a170.781 170.781 0 0 0 60.99-27.58 170.9 170.9 0 0 0 45.7-48.9c28.47-42.79 24.97-89.24 24.97-158.04h-263.68c-102.5-6.63-224.92-.87-329.69-.87H1081.1c-40.16 0-129.046-5.76-161.875-1.22l-9.604 4.54c-39.291 12.74-107.045 8.38-191.04 65.66a238.928 238.928 0 0 0-71.799 72.14 238.896 238.896 0 0 0-35.246 95.5" fill="#FAB558"/><path d="M420.846 1627.5v-419.1c-19.558-15.19-42.434-24.44-42.609-60.94-.174-36.5 22.876-45.23 42.783-60.07V609.615h241.507c-22.003-5.937-174.625-1.746-211.297-1.746-302.275 0-273.113-2.969-273.113 384.174v439.007c0 85.92-7.334 126.43 48.546 171.83 43.831 34.93 130.794 23.92 194.357 23.92" fill="#C7AEE4"/><path d="M662.702 1626.98h243.252l1.397-1017.016H662.876l-.174 1017.016zm44.18-528.59a30.728 30.728 0 0 1 3.778-25.66 30.844 30.844 0 0 1 9.525-9.26 30.846 30.846 0 0 1 12.541-4.37c26.193-2.97 25.845 18.68 44.529 23.4 26.718 6.64 26.543-14.49 43.307-21.3 54.658-22.18 63.738 78.23-28.289 85.21-38.243 2.97-79.629-21.83-85.391-48.02z" fill="#FE8A98"/><path d="M1149.9 1088.26c20.26 12.92 41.04 23.23 40.87 59.03-.18 35.79-20.43 46.27-41.04 58.67v421.72c84.34 0 219.85 22.35 239.76-98.84 5.94-37.02 1.92-623.585 1.92-678.242 0-41.386 5.59-130.445-7.68-164.148-13.27-33.702-49.95-73.691-97.27-74.565h-136.73l.17 476.375z" fill="#81D9E7"/><path d="M905.954 1626.98h244.476v-421.2c-44.18 17.47-87.31 10.83-113.51-17.46a58.454 58.454 0 0 1-14.62-24.32 58.482 58.482 0 0 1 10.59-54.02 58.324 58.324 0 0 1 22.72-17c-17.47-27.59-28.99 20.78-63.217-2.27-22.003-14.85-8.382-45.06 8.377-56.76 38.77-27.24 112.46-12.74 104.78 45.23a93.294 93.294 0 0 1 45.05 9.26V611.187h136.73c-7.68-4.89-351.515-7.335-379.106-1.747l-2.27 1017.54z" fill="#B9ECC2"/><path d="M421.195 1087.04l43.132-8.38c-8.032-61.99 70.723-68.98 104.775-44.88 38.069 27.07 17.463 75.79-25.495 57.97-11.35-4.71-16.065-13.79-27.416-1.92 12.573 12.93 27.765 20.96 32.83 41.74a58.49 58.49 0 0 1-.246 30.4 58.502 58.502 0 0 1-15.471 26.18c-28.987 29.68-65.309 30.56-111.934 19.9v419.1h241.855V609.79H421.719l-.524 477.25z" fill="#2EDBD9"/><path d="M965.85 167.64a335.685 335.685 0 0 1-26.892 48.021 407.553 407.553 0 0 0-22.876 58.849 427.281 427.281 0 0 0-13.446 149.13H1476.1a174.524 174.524 0 0 0-25.67-55.531c-12.22-20.606-23.57-32.305-34.92-50.117a267.424 267.424 0 0 1-37.55-33.004c-64.43-58.151-85.74-55.007-113.15-73.517-8.73-5.763-4.19-2.446-8.73-7.51-24.1-2.095-91.51-41.211-207.46-40.687-32.65 0-56.227 4.017-83.469 4.017" fill="#A6B5C5"/><path d="M611.536 2041.36a238.908 238.908 0 0 1 35.246-95.49 238.95 238.95 0 0 1 71.799-72.15c83.995-57.27 151.749-52.38 191.04-65.65l9.604-4.54-675.274 1.92c0 85.91-7.16 164.67 87.312 217.93 55.007 31.26 267.002 27.41 280.622 17.46" fill="#F69E18"/><path d="M1256.08 204.311c4.54 5.064 0 1.746 8.73 7.509 27.41 18.51 48.72 15.367 113.15 73.517a267.144 267.144 0 0 0 36.5 32.655c38.42-56.403 171.48-146.51 181.96-208.153a94.822 94.822 0 0 0-138.65-97.965c-41.91 22.702-165.2 167.466-201.69 192.088" fill="#889CB0"/><path d="M666.543 316.42c12.049-9.429 19.209-20.081 32.48-30.733 13.272-10.652 24.448-19.908 38.942-30.385 14.494-10.478 81.375-46.625 84.692-50.991-23.923-26.019-168.862-174.625-196.802-191.04a94.818 94.818 0 0 0-133.558 41.916 94.833 94.833 0 0 0-8.237 51.16c4.54 37.02 29.511 56.753 51.514 78.581 43.482 43.481 90.63 87.312 130.969 131.492z" fill="#6A829A"/><path d="M822.657 204.311c-3.317 4.366-71.421 41.386-84.692 50.99-13.272 9.605-26.369 20.257-38.942 30.385-12.573 10.129-20.431 21.304-32.48 30.734-8.382 15.891-22.876 31.433-34.925 48.721A166.935 166.935 0 0 0 604.9 423.64h296.862a427.305 427.305 0 0 1 13.447-149.13 407.496 407.496 0 0 1 22.876-58.848 335.696 335.696 0 0 0 26.892-48.022 512.86 512.86 0 0 0-72.47 14.843 659.57 659.57 0 0 1-69.85 21.828z" fill="#889CB0"/><path d="M1681.81 873.823a144.892 144.892 0 0 0 36.46 58.791 144.817 144.817 0 0 0 59.59 35.157c0-12.049-2.27-4.191 6.98-15.018l36.85-36.322c27.59-27.59 133.93-137.779 149.3-146.335a144.207 144.207 0 0 0-36.59-58.575 144.217 144.217 0 0 0-59.63-34.85c-1.05 11.351 0 5.937-9.08 15.192-4.89 5.065-7.51 7.16-12.57 12.05-36.5 36.322-150.53 154.892-171.31 169.91z" fill="#A6B5C5"/><path d="M1748.17 1163.35c22.88 96.92 180.91 68.28 156.11-38.94-22.7-98.84-181.78-69.85-156.11 38.94z" fill="#889CB0"/><path d="M1739.61 1398.57h93.43c73.69 0 162.57 14.84 150.52-39.46-6.28-28.64-43.83-23.06-73.34-23.06h-93.42c-73.52 0-158.56-14.66-148.43 38.77 5.76 29.69 42.6 23.75 71.24 23.75zm-4.19 116.82h93.6c71.42 0 159.61 14.32 155.24-34.92-2.97-33.18-37.89-28.29-69.85-28.29H1723.2c-28.99 0-58.85 1.22-55.36 35.97 3.15 31.09 36.85 26.9 67.58 26.9m4.19 117.17h93.43c71.07 0 158.21 14.32 150.87-37.55-4.36-31.78-40.51-25.32-73.69-25.32H1723.2c-29.34 0-60.07 3.15-55.18 37.2 4.54 30.91 41.21 25.84 71.59 25.84" fill="#516980"/><path d="M1054.91 1092.63a58.397 58.397 0 0 0-22.72 17 58.562 58.562 0 0 0-12.05 25.69 58.651 58.651 0 0 0 1.46 28.34 58.587 58.587 0 0 0 14.62 24.31c26.2 28.64 69.85 34.93 113.51 17.47 20.61-12.4 41.04-23.75 41.04-58.68 0-34.92-20.61-46.1-40.87-59.02-14-6.8-29.49-9.98-45.05-9.26-19.56 20.96-21.83 16.42-49.94 13.8m-633.715-5.24c-19.907 14.84-42.958 21.48-42.783 60.07.174 38.59 23.05 45.75 42.608 60.94 46.625 10.66 82.947 9.78 111.935-19.9a58.502 58.502 0 0 0 15.471-26.18 58.49 58.49 0 0 0 .245-30.4c-5.064-20.78-20.256-28.81-32.829-41.74-29.686 12.05-33.179 8.04-52.388-11.17l-42.259 8.38z" fill="#FEFCDC"/><path d="M1681.81 873.823c20.78-15.018 134.81-133.588 171.31-169.91 5.06-4.89 7.68-6.985 12.57-12.05 8.91-9.255 8.03-3.841 9.08-15.192a150.705 150.705 0 0 0-91.68-2.27 136.024 136.024 0 0 0-65.48 40.338c-33.35 34.052-62.69 97.616-35.8 159.084zm96.05 93.948a161.505 161.505 0 0 0 84.59 2.623 161.49 161.49 0 0 0 74.31-40.517 169.392 169.392 0 0 0 38.03-75.396 169.36 169.36 0 0 0-3.1-84.386c-15.37 8.557-122.24 118.745-149.31 146.336l-36.84 36.322c-9.26 10.827-6.29 2.969-6.99 15.018" fill="#889CB0"/><path d="M706.882 1098.39c5.762 26.19 47.148 50.99 85.391 48.02 92.027-6.98 82.947-107.39 28.289-85.21-17.462 6.81-16.589 27.94-43.306 21.3-18.685-4.72-18.336-26.37-44.53-23.4-4.449.53-8.73 2.02-12.541 4.37a30.83 30.83 0 0 0-9.524 9.26 30.73 30.73 0 0 0-3.779 25.66zm348.028-5.76c28.11 2.62 30.38 7.16 49.94-13.8 7.68-57.97-66.01-72.47-104.77-45.23-17.466 11.7-30.388 41.91-8.385 56.76 34.925 23.05 45.405-25.32 63.215 2.27zm-590.583-13.97c18.336 19.21 21.829 23.22 52.388 11.17 11.35-11.87 16.065-2.79 27.416 1.93 42.609 17.46 63.563-30.91 25.495-57.98-33.702-24.1-112.458-17.46-104.775 44.88" fill="#454545"/></g><defs><clipPath id="clip0_1436_8407"><path fill="#fff" d="M0 0H2080.83V2048H0z"/></clipPath></defs></svg>